SplineFontDB: 3.0
FontName: Historic_v2-Regular
FullName: Historic_v2 Regular
FamilyName: Historic_v2
Weight: Book
Version: 001.003
ItalicAngle: 0
UnderlinePosition: -150
UnderlineWidth: 50
Ascent: 800
Descent: 200
InvalidEm: 0
sfntRevision: 0x00010000
LayerCount: 2
Layer: 0 1 "Zur+APwA-ck" 1
Layer: 1 1 "Zeichen" 0
XUID: [1021 696 198661152 31796]
StyleMap: 0x0040
FSType: 0
OS2Version: 4
OS2_WeightWidthSlopeOnly: 0
OS2_UseTypoMetrics: 0
CreationTime: 1557570887
ModificationTime: 1557756252
PfmFamily: 17
TTFWeight: 400
TTFWidth: 5
LineGap: 90
VLineGap: 0
Panose: 2 0 5 3 0 0 0 0 0 0
OS2TypoAscent: 800
OS2TypoAOffset: 0
OS2TypoDescent: -200
OS2TypoDOffset: 0
OS2TypoLinegap: 90
OS2WinAscent: 725
OS2WinAOffset: 0
OS2WinDescent: 293
OS2WinDOffset: 0
HheadAscent: 725
HheadAOffset: 0
HheadDescent: -293
HheadDOffset: 0
OS2SubXSize: 650
OS2SubYSize: 700
OS2SubXOff: 0
OS2SubYOff: 140
OS2SupXSize: 650
OS2SupYSize: 700
OS2SupXOff: 0
OS2SupYOff: 480
OS2StrikeYSize: 49
OS2StrikeYPos: 258
OS2CapHeight: 659
OS2XHeight: 449
OS2Vendor: 'CLGR'
OS2CodePages: 00000001.00000000
OS2UnicodeRanges: 00000003.00000000.00000000.00000000
DEI: 91125
TtTable: prep
PUSHW_1
 511
SCANCTRL
PUSHB_1
 4
SCANTYPE
EndTTInstrs
ShortTable: cvt  2
  33
  633
EndShort
ShortTable: maxp 16
  1
  0
  87
  288
  3
  0
  0
  2
  0
  1
  1
  0
  64
  0
  0
  0
EndShort
LangName: 1033 "" "" "" "Calligraphr : Historic_v2 Regular : 11-05-2019" "" "Version 001.003" "" "" "" "" "Created with Calligraphr.com" "" "" "" "" "" "Historic_v2" "Regular"
GaspTable: 1 65535 15 1
Encoding: UnicodeBmp
UnicodeInterp: none
NameList: AGL For New Fonts
DisplaySize: -48
AntiAlias: 1
FitToEm: 0
WinInfo: 38 19 14
BeginChars: 65538 87

StartChar: .notdef
Encoding: 65536 -1 0
Width: 364
Flags: W
LayerCount: 2
Fore
SplineSet
33 0 m 1,0,-1
 33 666 l 1,1,-1
 298 666 l 1,2,-1
 298 0 l 1,3,-1
 33 0 l 1,0,-1
66 33 m 1,4,-1
 265 33 l 1,5,-1
 265 633 l 1,6,-1
 66 633 l 1,7,-1
 66 33 l 1,4,-1
EndSplineSet
EndChar

StartChar: exclam
Encoding: 33 33 5
Width: 345
GlyphClass: 2
Flags: W
LayerCount: 2
Fore
SplineSet
236 71 m 128,-1,1
 243 71 243 71 253.5 62.5 c 128,-1,2
 264 54 264 54 270 54 c 0,3,4
 282 54 282 54 285 47.5 c 128,-1,5
 288 41 288 41 288 15 c 2,6,-1
 288 -17 l 1,7,-1
 255 -49 l 2,8,9
 223 -81 223 -81 213 -81 c 0,10,11
 204 -81 204 -81 198 -90 c 0,12,13
 193 -98 193 -98 169 -98 c 2,14,-1
 146 -98 l 1,15,-1
 101 -53 l 1,16,-1
 101 45 l 1,17,-1
 114 58 l 2,18,19
 127 71 127 71 139 73 c 128,-1,20
 151 75 151 75 158 83 c 0,21,22
 166 92 166 92 184 92 c 0,23,24
 200 92 200 92 215 81 c 0,25,0
 229 71 229 71 236 71 c 128,-1,1
97 689 m 2,26,27
 99 691 99 691 102 693.5 c 128,-1,28
 105 696 105 696 106.5 697.5 c 128,-1,29
 108 699 108 699 110 700.5 c 128,-1,30
 112 702 112 702 114 702.5 c 128,-1,31
 116 703 116 703 118.5 703.5 c 128,-1,32
 121 704 121 704 124 704 c 0,33,34
 132 704 132 704 137 703 c 0,35,36
 153 702 153 702 168 687 c 0,37,38
 183 674 183 674 184 658 c 0,39,40
 186 643 186 643 190 637 c 0,41,42
 193 632 193 632 193 627 c 0,43,44
 193 619 193 619 209.5 587.5 c 128,-1,45
 226 556 226 556 231 554 c 0,46,47
 239 550 239 550 240 534 c 0,48,49
 241 517 241 517 235 512 c 0,50,51
 230 508 230 508 230 438 c 0,52,53
 230 367 230 367 227 364 c 0,54,55
 223 360 223 360 223 318 c 128,-1,56
 223 276 223 276 218 269 c 0,57,58
 213 264 213 264 213 236 c 128,-1,59
 213 208 213 208 207 204 c 0,60,61
 200 199 200 199 199 182 c 0,62,63
 197 163 197 163 184 150 c 128,-1,64
 171 137 171 137 152 136 c 2,65,-1
 142 136 l 2,66,67
 131 136 131 136 117 149 c 2,68,-1
 101 164 l 1,69,-1
 101 192 l 2,70,71
 101 219 101 219 93 227 c 128,-1,72
 85 235 85 235 84 273 c 0,73,74
 83 312 83 312 77 318 c 0,75,76
 71 325 71 325 71 352 c 0,77,78
 71 378 71 378 62 386 c 0,79,80
 49 399 49 399 58 414 c 0,81,82
 62 420 62 420 58 427 c 0,83,84
 54 432 54 432 54 451 c 0,85,86
 54 464 54 464 57 466 c 0,87,88
 61 468 61 468 61 481 c 128,-1,89
 61 494 61 494 66 502 c 128,-1,90
 71 510 71 510 71 541 c 0,91,92
 71 570 71 570 78 581 c 0,93,94
 84 590 84 590 84 634 c 2,95,-1
 84 677 l 1,96,-1
 97 689 l 2,26,27
EndSplineSet
EndChar

StartChar: ampersand
Encoding: 38 38 6
Width: 855
GlyphClass: 2
Flags: W
LayerCount: 2
Fore
SplineSet
300 287 m 0,0,1
 292 295 292 295 286.5 296.5 c 128,-1,2
 281 298 281 298 257 298 c 2,3,-1
 225 298 l 1,4,-1
 197 270 l 2,5,6
 169 242 169 242 169 234 c 0,7,8
 169 227 169 227 160 216 c 0,9,10
 153 208 153 208 153 193 c 2,11,-1
 153 176 l 2,12,13
 154 146 154 146 162 139 c 0,14,15
 169 132 169 132 169 124 c 128,-1,16
 169 116 169 116 198 87 c 2,17,-1
 227 58 l 1,18,-1
 337 58 l 1,19,-1
 393 114 l 1,20,-1
 393 178 l 1,21,-1
 354 218 l 2,22,23
 315 257 315 257 313 267 c 0,24,25
 311 276 311 276 300 287 c 0,0,1
340 537 m 0,26,27
 335 542 335 542 311 542 c 0,28,29
 294 542 294 542 288 539 c 0,30,31
 283 536 283 536 282 513 c 0,32,33
 282 510 282 510 281.5 505 c 128,-1,34
 281 500 281 500 281 498 c 0,35,36
 281 488 281 488 292 477 c 0,37,38
 304 464 304 464 323 464 c 0,39,40
 340 464 340 464 343 469.5 c 128,-1,41
 346 475 346 475 346 503 c 128,-1,42
 346 531 346 531 340 537 c 0,26,27
505 -6 m 0,43,44
 505 0 505 0 498 7 c 128,-1,45
 491 14 491 14 491 21 c 0,46,47
 491 33 491 33 483.5 37 c 128,-1,48
 476 41 476 41 452 41 c 0,49,50
 425 41 425 41 419 39 c 128,-1,51
 413 37 413 37 413 27 c 128,-1,52
 413 17 413 17 400 3.5 c 128,-1,53
 387 -10 387 -10 378 -10 c 0,54,55
 368 -10 368 -10 355 -25 c 0,56,57
 341 -41 341 -41 333 -41 c 0,58,59
 324 -41 324 -41 316 -49 c 0,60,61
 306 -58 306 -58 290 -58 c 128,-1,62
 274 -58 274 -58 267 -66 c 0,63,64
 259 -75 259 -75 234 -75 c 0,65,66
 208 -75 208 -75 198 -66 c 0,67,68
 189 -58 189 -58 173 -58 c 0,69,70
 160 -58 160 -58 151.5 -51 c 128,-1,71
 143 -44 143 -44 135 -43 c 0,72,73
 124 -41 124 -41 112.5 -29 c 128,-1,74
 101 -17 101 -17 101 -9 c 0,75,76
 101 0 101 0 78 23 c 2,77,-1
 54 46 l 1,78,-1
 54 138 l 2,79,80
 54 204 54 204 55 217.5 c 128,-1,81
 56 231 56 231 60 235 c 0,82,83
 68 241 68 241 70 252 c 128,-1,84
 72 263 72 263 106 297 c 128,-1,85
 140 331 140 331 152 333 c 0,86,87
 163 335 163 335 168 342 c 128,-1,88
 173 349 173 349 182 349 c 0,89,90
 193 349 193 349 196.5 355.5 c 128,-1,91
 200 362 200 362 200 381 c 2,92,-1
 200 404 l 1,93,-1
 183 421 l 2,94,95
 166 436 166 436 166 445 c 0,96,97
 166 450 166 450 158 460 c 0,98,99
 151 467 151 467 151 495 c 128,-1,100
 151 523 151 523 158 529 c 0,101,102
 166 536 166 536 166 552 c 0,103,104
 166 563 166 563 170 569.5 c 128,-1,105
 174 576 174 576 194 596 c 0,106,107
 221 625 221 625 233 626 c 0,108,109
 244 628 244 628 248 634 c 0,110,111
 252 641 252 641 320 641 c 2,112,-1
 390 641 l 1,113,-1
 417 613 l 2,114,115
 443 587 443 587 445 575 c 128,-1,116
 447 563 447 563 454 558 c 0,117,118
 461 552 461 552 461 527 c 0,119,120
 461 503 461 503 452 493 c 0,121,122
 444 485 444 485 444 476 c 0,123,124
 444 469 444 469 412 437 c 2,125,-1
 379 405 l 1,126,-1
 379 357 l 1,127,-1
 412 325 l 2,128,129
 444 293 444 293 444 284 c 128,-1,130
 444 275 444 275 457 263 c 128,-1,131
 470 251 470 251 490 251 c 0,132,133
 522 251 522 251 522 266 c 0,134,135
 522 275 522 275 530 283 c 0,136,137
 539 292 539 292 539 322 c 0,138,139
 539 349 539 349 536.5 356 c 128,-1,140
 534 363 534 363 525 363 c 0,141,142
 513 363 513 363 509 369.5 c 128,-1,143
 505 376 505 376 505 396 c 0,144,145
 505 420 505 420 509 424 c 0,146,147
 514 430 514 430 645 431 c 2,148,-1
 776 432 l 1,149,-1
 788 420 l 2,150,151
 800 409 800 409 799 395 c 0,152,153
 798 385 798 385 796.5 382.5 c 128,-1,154
 795 380 795 380 785 379 c 0,155,156
 770 375 770 375 767 369 c 0,157,158
 762 363 762 363 753 363 c 0,159,160
 746 363 746 363 735 354 c 0,161,162
 726 346 726 346 709 346 c 2,163,-1
 693 346 l 1,164,-1
 641 294 l 2,165,166
 590 243 590 243 590 235 c 0,167,168
 590 229 590 229 573 210 c 2,169,-1
 556 192 l 1,170,-1
 556 133 l 1,171,-1
 573 115 l 2,172,173
 590 96 590 96 590 90 c 0,174,175
 590 82 590 82 609 63 c 128,-1,176
 628 44 628 44 636 44 c 0,177,178
 646 44 646 44 652 36 c 0,179,180
 657 30 657 30 664.5 28.5 c 128,-1,181
 672 27 672 27 702 27 c 0,182,183
 733 27 733 27 739.5 26 c 128,-1,184
 746 25 746 25 752 19 c 0,185,186
 759 10 759 10 769 10 c 0,187,188
 786 10 786 10 786 -15 c 0,189,190
 786 -33 786 -33 774 -45 c 0,191,192
 760 -58 760 -58 750 -60 c 0,193,194
 739 -62 739 -62 735 -68 c 0,195,196
 732 -75 732 -75 647 -75 c 2,197,-1
 563 -75 l 1,198,-1
 534 -45 l 2,199,200
 505 -15 505 -15 505 -6 c 0,43,44
EndSplineSet
EndChar

StartChar: quotesingle
Encoding: 39 39 7
Width: 302
GlyphClass: 2
Flags: W
LayerCount: 2
Fore
SplineSet
53 612 m 1,0,1
 70 629 70 629 88 644 c 1,2,3
 106 644 106 644 142.5 643 c 128,-1,4
 179 642 179 642 197 642 c 1,5,6
 224 616 224 616 250 589 c 1,7,-1
 250 482 l 1,8,-1
 229 458 l 1,9,-1
 229 397 l 1,10,-1
 229 386 l 2,11,12
 229 338 229 338 224 330 c 128,-1,13
 219 322 219 322 192 322 c 2,14,-1
 168 322 l 1,15,-1
 120 369 l 2,16,17
 73 416 73 416 73 427 c 128,-1,18
 73 438 73 438 63 447 c 2,19,-1
 53 456 l 1,20,-1
 53 612 l 1,0,1
EndSplineSet
EndChar

StartChar: comma
Encoding: 44 44 8
Width: 384
GlyphClass: 2
Flags: W
LayerCount: 2
Fore
SplineSet
179 -9 m 2,0,-1
 179 0 l 2,1,2
 179 20 179 20 174.5 23.5 c 128,-1,3
 170 27 170 27 148 27 c 2,4,-1
 125 27 l 1,5,6
 109 44 109 44 75 76 c 1,7,-1
 75 127 l 1,8,-1
 101 154 l 2,9,10
 127 180 127 180 138 180 c 0,11,12
 148 180 148 180 157 189 c 0,13,14
 165 197 165 197 181 200 c 0,15,16
 193 202 193 202 208 202 c 0,17,18
 221 202 221 202 229 193 c 0,19,20
 238 183 238 183 248 183 c 128,-1,21
 258 183 258 183 284 157 c 0,22,23
 311 131 311 131 311 119 c 0,24,25
 311 108 311 108 321 99 c 2,26,-1
 331 90 l 1,27,-1
 331 -46 l 1,28,-1
 321 -55 l 2,29,30
 311 -64 311 -64 311 -75 c 0,31,32
 311 -82 311 -82 301.5 -93 c 128,-1,33
 292 -104 292 -104 254 -143 c 2,34,-1
 198 -200 l 1,35,-1
 131 -200 l 2,36,37
 74 -200 74 -200 64.5 -197 c 128,-1,38
 55 -194 55 -194 55 -175 c 0,39,40
 55 -165 55 -165 59 -159 c 128,-1,41
 63 -153 63 -153 80 -135 c 0,42,43
 106 -109 106 -109 119 -107 c 128,-1,44
 132 -105 132 -105 145 -91 c 128,-1,45
 158 -77 158 -77 158 -66 c 128,-1,46
 158 -55 158 -55 169 -46 c 0,47,48
 176 -39 176 -39 177.5 -34.5 c 128,-1,49
 179 -30 179 -30 179 -9 c 2,0,-1
EndSplineSet
EndChar

StartChar: hyphen
Encoding: 45 45 9
Width: 551
GlyphClass: 2
Flags: W
LayerCount: 2
Fore
SplineSet
274 371 m 0,0,1
 280 373 280 373 352 373 c 2,2,-1
 424 373 l 1,3,-1
 433 363 l 2,4,5
 442 354 442 354 456 352 c 0,6,7
 478 349 478 349 478 327 c 0,8,9
 478 317 478 317 488 308 c 2,10,-1
 498 299 l 1,11,-1
 498 209 l 1,12,-1
 471 182 l 2,13,14
 445 156 445 156 433 156 c 0,15,16
 422 156 422 156 413 146 c 2,17,-1
 404 136 l 1,18,-1
 127 136 l 1,19,-1
 118 146 l 2,20,21
 109 156 109 156 98 156 c 128,-1,22
 87 156 87 156 71 172 c 2,23,-1
 54 188 l 1,24,-1
 54 277 l 1,25,26
 71 293 71 293 105 327 c 1,27,-1
 129 329 l 2,28,29
 153 331 153 331 161 341 c 2,30,-1
 169 351 l 1,31,-1
 212 351 l 2,32,33
 244 352 244 352 250.5 353 c 128,-1,34
 257 354 257 354 262 360 c 0,35,36
 272 370 272 370 274 371 c 0,0,1
EndSplineSet
EndChar

StartChar: period
Encoding: 46 46 10
Width: 305
GlyphClass: 2
Flags: W
LayerCount: 2
Fore
SplineSet
52 79 m 1,0,1
 88 115 88 115 107 133 c 1,2,-1
 161 133 l 2,3,4
 218 133 218 133 222 130 c 0,5,6
 229 126 229 126 231 112 c 0,7,8
 232 98 232 98 242 90 c 0,9,10
 249 85 249 85 250 79 c 128,-1,11
 251 73 251 73 252 47 c 2,12,-1
 253 12 l 1,13,14
 189 -52 189 -52 158 -84 c 1,15,-1
 141 -84 l 2,16,17
 125 -84 125 -84 116 -74 c 128,-1,18
 107 -64 107 -64 96 -64 c 128,-1,19
 85 -64 85 -64 69 -47 c 2,20,-1
 52 -30 l 1,21,-1
 52 79 l 1,0,1
EndSplineSet
EndChar

StartChar: colon
Encoding: 58 58 11
Width: 274
GlyphClass: 2
Flags: W
LayerCount: 2
Fore
SplineSet
113 216 m 0,0,1
 117 218 117 218 140 218 c 2,2,-1
 163 218 l 1,3,4
 191 192 191 192 204 178 c 1,5,-1
 204 105 l 1,6,7
 200 101 200 101 191.5 93.5 c 128,-1,8
 183 86 183 86 179 82 c 1,9,-1
 96 82 l 1,10,11
 88 91 88 91 72 107 c 1,12,-1
 72 178 l 1,13,-1
 90 196 l 2,14,15
 108 214 108 214 113 216 c 0,0,1
104 524 m 0,16,17
 110 531 110 531 145 531 c 2,18,-1
 180 531 l 1,19,20
 201 511 201 511 221 490 c 1,21,-1
 221 421 l 1,22,-1
 192 393 l 2,23,24
 170 372 170 372 164 368.5 c 128,-1,25
 158 365 158 365 145 365 c 0,26,27
 126 365 126 365 119 373 c 0,28,29
 112 382 112 382 103 382 c 0,30,31
 95 382 95 382 83.5 393.5 c 128,-1,32
 72 405 72 405 72 412 c 0,33,34
 72 420 72 420 63 429 c 0,35,36
 54 439 54 439 54 457 c 0,37,38
 54 472 54 472 62 482 c 0,39,40
 69 489 69 489 71 501 c 128,-1,41
 73 513 73 513 86 515 c 128,-1,42
 99 517 99 517 104 524 c 0,16,17
EndSplineSet
EndChar

StartChar: semicolon
Encoding: 59 59 12
Width: 291
GlyphClass: 2
Flags: W
LayerCount: 2
Fore
SplineSet
53 155 m 1,0,1
 62 163 62 163 78 181 c 1,2,-1
 146 181 l 1,3,-1
 162 166 l 2,4,5
 176 152 176 152 189 148 c 0,6,7
 201 144 201 144 202 134 c 0,8,9
 204 122 204 122 212 116 c 0,10,11
 220 108 220 108 220 91 c 0,12,13
 220 73 220 73 228 66 c 0,14,15
 237 57 237 57 237 33 c 0,16,17
 237 10 237 10 228 -2 c 0,18,19
 220 -12 220 -12 220 -19 c 0,20,21
 220 -25 220 -25 213 -32 c 0,22,23
 206 -37 206 -37 204 -49 c 0,24,25
 202 -59 202 -59 174 -87 c 128,-1,26
 146 -115 146 -115 139 -115 c 0,27,28
 131 -115 131 -115 123 -123 c 0,29,30
 113 -132 113 -132 90 -132 c 0,31,32
 64 -132 64 -132 58.5 -127.5 c 128,-1,33
 53 -123 53 -123 53 -104 c 2,34,-1
 53 -83 l 1,35,-1
 131 -5 l 1,36,-1
 131 17 l 2,37,38
 131 39 131 39 121 49 c 128,-1,39
 111 59 111 59 101 61 c 0,40,41
 90 63 90 63 86 69 c 0,42,43
 82 76 82 76 74 76 c 0,44,45
 65 76 65 76 59 79 c 128,-1,46
 53 82 53 82 53 119 c 2,47,-1
 53 155 l 1,0,1
118 380 m 0,48,49
 129 388 129 388 145 388 c 0,50,51
 163 388 163 388 170 380 c 0,52,53
 177 371 177 371 187 371 c 0,54,55
 198 371 198 371 201.5 362.5 c 128,-1,56
 205 354 205 354 205 329 c 2,57,-1
 205 316 l 1,58,-1
 204 276 l 1,59,-1
 191 264 l 1,60,-1
 179 251 l 1,61,-1
 138 250 l 1,62,-1
 98 248 l 1,63,64
 93 252 93 252 83.5 261 c 128,-1,65
 74 270 74 270 69 275 c 1,66,-1
 69 311 l 1,67,-1
 68 346 l 1,68,-1
 81 359 l 2,69,70
 93 371 93 371 101 371 c 0,71,72
 107 371 107 371 118 380 c 0,48,49
EndSplineSet
EndChar

StartChar: question
Encoding: 63 63 13
Width: 387
GlyphClass: 2
Flags: W
LayerCount: 2
Fore
SplineSet
126 89 m 0,0,1
 138 99 138 99 157 99 c 0,2,3
 175 99 175 99 187 89 c 0,4,5
 201 79 201 79 209 79 c 0,6,7
 218 79 218 79 225 70 c 0,8,9
 233 62 233 62 243 62 c 0,10,11
 263 62 263 62 263 30 c 2,12,-1
 263 19 l 1,13,-1
 262 -8 l 1,14,-1
 230 -39 l 2,15,16
 199 -70 199 -70 186 -73 c 0,17,18
 174 -75 174 -75 168 -83 c 128,-1,19
 162 -91 162 -91 139 -91 c 2,20,-1
 117 -91 l 1,21,22
 94 -67 94 -67 70 -44 c 1,23,-1
 70 51 l 1,24,-1
 83 65 l 2,25,26
 97 79 97 79 105 79 c 0,27,28
 112 79 112 79 126 89 c 0,0,1
67 715 m 2,29,30
 77 725 77 725 82 727 c 128,-1,31
 87 729 87 729 102 729 c 2,32,-1
 123 729 l 1,33,-1
 177 674 l 2,34,35
 230 621 230 621 243 618 c 0,36,37
 255 615 255 615 286 584 c 2,38,-1
 318 551 l 1,39,-1
 318 495 l 1,40,-1
 318 470 l 2,41,42
 318 460 318 460 318.5 454.5 c 128,-1,43
 319 449 319 449 319 444.5 c 128,-1,44
 319 440 319 440 321 438 c 128,-1,45
 323 436 323 436 323.5 434.5 c 128,-1,46
 324 433 324 433 328.5 430.5 c 128,-1,47
 333 428 333 428 335 426 c 2,48,-1
 335 356 l 1,49,-1
 335 338 l 2,50,51
 335 296 335 296 332.5 288.5 c 128,-1,52
 330 281 330 281 315 278 c 0,53,54
 303 276 303 276 298 269 c 0,55,56
 293 261 293 261 270 260 c 0,57,58
 250 259 250 259 241 250 c 0,59,60
 234 242 234 242 215 242 c 128,-1,61
 196 242 196 242 192 237 c 0,62,63
 191 235 191 235 185.5 229.5 c 128,-1,64
 180 224 180 224 178 221 c 0,65,66
 169 211 169 211 169 192 c 0,67,68
 169 174 169 174 155 160 c 0,69,70
 145 150 145 150 140.5 148.5 c 128,-1,71
 136 147 136 147 119 147 c 128,-1,72
 102 147 102 147 97.5 149 c 128,-1,73
 93 151 93 151 83 161 c 2,74,-1
 70 175 l 1,75,-1
 70 204 l 2,76,77
 70 235 70 235 62 242 c 0,78,79
 56 248 56 248 54.5 255.5 c 128,-1,80
 53 263 53 263 53 292 c 0,81,82
 53 322 53 322 54.5 328.5 c 128,-1,83
 56 335 56 335 62 339 c 0,84,85
 70 344 70 344 70 356 c 0,86,87
 70 378 70 378 92 378 c 0,88,89
 103 378 103 378 109 387 c 0,90,91
 112 392 112 392 117 393.5 c 128,-1,92
 122 395 122 395 141 395 c 2,93,-1
 162 395 l 2,94,95
 201 395 201 395 210 397.5 c 128,-1,96
 219 400 219 400 219 413 c 2,97,-1
 219 422 l 2,98,99
 218 438 218 438 197 459 c 0,100,101
 177 479 177 479 165 482 c 0,102,103
 151 484 151 484 145 492 c 0,104,105
 138 501 138 501 125 501 c 0,106,107
 114 501 114 501 109 509 c 0,108,109
 103 518 103 518 93 518 c 0,110,111
 70 518 70 518 70 539 c 0,112,113
 70 548 70 548 62 556 c 2,114,-1
 53 563 l 1,115,-1
 53 702 l 1,116,-1
 67 715 l 2,29,30
EndSplineSet
EndChar

StartChar: A
Encoding: 65 65 14
Width: 793
GlyphClass: 2
Flags: W
LayerCount: 2
Fore
SplineSet
404 382 m 1,0,-1
 403 426 l 1,1,-1
 385 427 l 1,2,-1
 377 427 l 2,3,4
 366 427 366 427 355 415 c 0,5,6
 347 406 347 406 345.5 400 c 128,-1,7
 344 394 344 394 344 367 c 0,8,9
 344 330 344 330 348 326 c 128,-1,10
 352 322 352 322 377 322 c 2,11,-1
 382 322 l 2,12,13
 397 322 397 322 400.5 326.5 c 128,-1,14
 404 331 404 331 404 351 c 2,15,-1
 404 382 l 1,0,-1
246 334 m 0,16,17
 246 339 246 339 254.5 351 c 128,-1,18
 263 363 263 363 263 368 c 0,19,20
 263 377 263 377 271 385 c 0,21,22
 280 394 280 394 280 410 c 0,23,24
 280 427 280 427 287 431 c 0,25,26
 293 435 293 435 293 452 c 0,27,28
 293 470 293 470 302 478 c 0,29,30
 310 485 310 485 310 504 c 0,31,32
 310 522 310 522 317 526 c 0,33,34
 324 531 324 531 324 562 c 2,35,-1
 324 594 l 1,36,37
 331 601 331 601 344.5 615.5 c 128,-1,38
 358 630 358 630 365 637 c 1,39,-1
 449 637 l 1,40,-1
 461 624 l 2,41,42
 473 612 473 612 473 603 c 0,43,44
 473 593 473 593 480 588 c 0,45,46
 487 582 487 582 487 567 c 0,47,48
 487 551 487 551 495 542 c 0,49,50
 503 531 503 531 503 515 c 0,51,52
 503 501 503 501 510 494.5 c 128,-1,53
 517 488 517 488 517 473 c 0,54,55
 517 455 517 455 525 448 c 0,56,57
 534 439 534 439 534 430 c 0,58,59
 534 420 534 420 541 416 c 0,60,61
 549 410 549 410 550 391 c 128,-1,62
 551 372 551 372 558 367 c 0,63,64
 564 362 564 362 564 338 c 0,65,66
 564 317 564 317 573 305 c 0,67,68
 581 294 581 294 581 278 c 128,-1,69
 581 262 581 262 588 258 c 128,-1,70
 595 254 595 254 595 246 c 0,71,72
 595 241 595 241 603.5 228 c 128,-1,73
 612 215 612 215 612 211 c 0,74,75
 612 203 612 203 620 195 c 0,76,77
 629 185 629 185 629 161 c 128,-1,78
 629 137 629 137 636 132 c 0,79,80
 643 128 643 128 644 109 c 0,81,82
 645 96 645 96 649 90.5 c 128,-1,83
 653 85 653 85 673 65 c 0,84,85
 701 37 701 37 708 37 c 0,86,87
 724 37 724 37 724 22 c 0,88,89
 724 14 724 14 730 8 c 0,90,91
 740 -2 740 -2 740 -10 c 0,92,93
 740 -17 740 -17 729 -30 c 2,94,-1
 716 -44 l 1,95,-1
 458 -44 l 1,96,-1
 447 -33 l 2,97,98
 439 -26 439 -26 437.5 -20.5 c 128,-1,99
 436 -15 436 -15 436 3 c 2,100,-1
 436 9 l 2,101,102
 436 29 436 29 439.5 33 c 128,-1,103
 443 37 443 37 460 37 c 2,104,-1
 464 37 l 2,105,106
 489 37 489 37 501 48 c 0,107,108
 510 56 510 56 512 61.5 c 128,-1,109
 514 67 514 67 514 85 c 0,110,111
 514 110 514 110 507 115 c 0,112,113
 500 118 500 118 500 127 c 0,114,115
 500 137 500 137 492 145 c 0,116,117
 483 155 483 155 483 170 c 0,118,119
 483 181 483 181 475.5 192.5 c 128,-1,120
 468 204 468 204 467 211 c 0,121,122
 465 222 465 222 454 223 c 0,123,124
 445 225 445 225 435 233 c 0,125,126
 428 239 428 239 419 240 c 128,-1,127
 410 241 410 241 366 241 c 2,128,-1
 308 241 l 1,129,130
 294 231 294 231 283 219 c 1,131,-1
 283 187 l 2,132,133
 283 163 283 163 282 157 c 128,-1,134
 281 151 281 151 275 146 c 0,135,136
 266 137 266 137 266 129 c 0,137,138
 266 119 266 119 259 115 c 0,139,140
 251 109 251 109 250 91 c 2,141,-1
 250 81 l 2,142,143
 250 54 250 54 265 54 c 0,144,145
 274 54 274 54 288 39 c 0,146,147
 299 27 299 27 315 23 c 0,148,149
 325 22 325 22 328 16.5 c 128,-1,150
 331 11 331 11 331 -3 c 128,-1,151
 331 -17 331 -17 327.5 -22.5 c 128,-1,152
 324 -28 324 -28 314 -29 c 0,153,154
 301 -31 301 -31 297 -38 c 0,155,156
 293 -44 293 -44 217 -44 c 0,157,158
 143 -44 143 -44 136 -37 c 128,-1,159
 129 -30 129 -30 105 -30 c 2,160,-1
 97 -30 l 2,161,162
 79 -30 79 -30 68 -17 c 0,163,164
 56 -4 56 -4 56 13 c 0,165,166
 56 29 56 29 69 42 c 0,167,168
 80 54 80 54 97 54 c 2,169,-1
 105 54 l 2,170,171
 128 54 128 54 140 65 c 0,172,173
 151 76 151 76 151 84 c 0,174,175
 151 94 151 94 159 100 c 0,176,177
 168 108 168 108 168 125 c 128,-1,178
 168 142 168 142 176 149 c 0,179,180
 185 157 185 157 185 172 c 0,181,182
 185 190 185 190 191 195 c 0,183,184
 199 203 199 203 200 211 c 0,185,186
 202 223 202 223 209 228 c 0,187,188
 215 232 215 232 215 241 c 0,189,190
 215 247 215 247 224 258 c 0,191,192
 232 267 232 267 232 291 c 0,193,194
 232 314 232 314 239 321 c 0,195,196
 246 326 246 326 246 334 c 0,16,17
EndSplineSet
EndChar

StartChar: B
Encoding: 66 66 15
Width: 693
GlyphClass: 2
Flags: W
LayerCount: 2
Fore
SplineSet
459 196 m 1,0,1
 429 226 429 226 415 241 c 1,2,-1
 392 241 l 2,3,4
 373 241 373 241 364 238 c 0,5,6
 361 237 361 237 340 216 c 2,7,-1
 320 196 l 1,8,-1
 320 134 l 2,9,10
 320 72 320 72 327 68 c 0,11,12
 333 65 333 65 374 65 c 2,13,-1
 415 65 l 1,14,15
 445 93 445 93 459 108 c 1,16,-1
 459 196 l 1,0,1
500 453 m 2,17,-1
 485 468 l 1,18,-1
 460 468 l 2,19,20
 439 468 439 468 432 464.5 c 128,-1,21
 425 461 425 461 425 450 c 0,22,23
 425 441 425 441 417 433 c 128,-1,24
 409 425 409 425 409 409 c 2,25,-1
 409 395 l 1,26,-1
 410 365 l 1,27,28
 417 364 417 364 431.5 364 c 128,-1,29
 446 364 446 364 453 363 c 1,30,-1
 483 394 l 2,31,32
 514 425 514 425 514 431 c 128,-1,33
 514 437 514 437 500 453 c 2,17,-1
161 160 m 0,34,35
 161 172 161 172 169.5 185.5 c 128,-1,36
 178 199 178 199 178 211 c 0,37,38
 178 226 178 226 188 239 c 128,-1,39
 198 252 198 252 198 268 c 0,40,41
 198 282 198 282 207 293 c 0,42,43
 213 300 213 300 214 307 c 128,-1,44
 215 314 215 314 215 347 c 128,-1,45
 215 380 215 380 216.5 387 c 128,-1,46
 218 394 218 394 224 398 c 128,-1,47
 230 402 230 402 231 406.5 c 128,-1,48
 232 411 232 411 232 430 c 2,49,-1
 232 457 l 1,50,51
 209 481 209 481 161 527 c 1,52,-1
 161 582 l 2,53,54
 161 638 161 638 168 641 c 0,55,56
 174 644 174 644 181 644 c 0,57,58
 189 644 189 644 196 653 c 2,59,-1
 203 661 l 1,60,-1
 385 661 l 1,61,62
 394 648 394 648 397 646 c 0,63,64
 402 644 402 644 441 644 c 2,65,-1
 486 644 l 1,66,67
 510 622 510 622 521 610 c 1,68,-1
 529 617 l 2,69,70
 540 628 540 628 549 617 c 0,71,72
 553 611 553 611 566 609 c 0,73,74
 577 606 577 606 606 577 c 2,75,-1
 636 548 l 1,76,-1
 636 421 l 1,77,-1
 627 414 l 2,78,79
 619 408 619 408 619 398 c 128,-1,80
 619 388 619 388 598 367 c 128,-1,81
 577 346 577 346 564 344 c 0,82,83
 552 342 552 342 550 338 c 128,-1,84
 548 334 548 334 548 291 c 2,85,-1
 548 248 l 1,86,-1
 564 232 l 2,87,88
 581 216 581 216 583 206 c 0,89,90
 585 195 585 195 593 186 c 0,91,92
 602 174 602 174 602 151 c 0,93,94
 602 127 602 127 593 118 c 0,95,96
 585 111 585 111 585 92 c 2,97,-1
 585 74 l 1,98,-1
 553 42 l 2,99,100
 521 10 521 10 512 10 c 128,-1,101
 503 10 503 10 487 -7 c 0,102,103
 470 -24 470 -24 462 -24 c 0,104,105
 451 -24 451 -24 445 -32 c 2,106,-1
 437 -40 l 1,107,108
 405 -40 405 -40 340.5 -41 c 128,-1,109
 276 -42 276 -42 244 -42 c 1,110,-1
 233 -51 l 2,111,112
 224 -58 224 -58 216 -59.5 c 128,-1,113
 208 -61 208 -61 170 -61 c 0,114,115
 133 -61 133 -61 124.5 -59.5 c 128,-1,116
 116 -58 116 -58 110 -52 c 0,117,118
 102 -44 102 -44 93 -44 c 128,-1,119
 84 -44 84 -44 70 -30 c 0,120,121
 60 -20 60 -20 58 -15 c 128,-1,122
 56 -10 56 -10 56 3 c 2,123,-1
 56 22 l 1,124,-1
 100 66 l 2,125,126
 144 110 144 110 144 119 c 0,127,128
 144 127 144 127 153 136 c 0,129,130
 161 143 161 143 161 160 c 0,34,35
EndSplineSet
EndChar

StartChar: C
Encoding: 67 67 16
Width: 791
GlyphClass: 2
Flags: W
LayerCount: 2
Fore
SplineSet
311 597 m 0,0,1
 318 597 318 597 331 607 c 128,-1,2
 344 617 344 617 351 617 c 0,3,4
 361 617 361 617 367 625 c 0,5,6
 375 634 375 634 393 634 c 0,7,8
 412 634 412 634 418 641 c 0,9,10
 424 649 424 649 431 651 c 0,11,12
 437 654 437 654 516 654 c 2,13,-1
 595 654 l 1,14,-1
 606 644 l 2,15,16
 616 634 616 634 636 634 c 0,17,18
 655 634 655 634 661 625 c 0,19,20
 666 617 666 617 678 617 c 0,21,22
 700 617 700 617 700 594 c 0,23,24
 700 585 700 585 709 578 c 0,25,26
 717 570 717 570 717 560 c 128,-1,27
 717 550 717 550 725 542 c 0,28,29
 734 534 734 534 734 503 c 0,30,31
 734 481 734 481 732.5 475.5 c 128,-1,32
 731 470 731 470 725 466 c 0,33,34
 717 461 717 461 717 450 c 0,35,36
 717 440 717 440 694 417 c 2,37,-1
 671 393 l 1,38,-1
 651 393 l 1,39,-1
 631 394 l 1,40,41
 594 430 594 430 522 502 c 1,42,-1
 468 502 l 2,43,44
 429 502 429 502 420 500.5 c 128,-1,45
 411 499 411 499 405 493 c 0,46,47
 397 485 397 485 388 485 c 0,48,49
 378 485 378 485 346 453.5 c 128,-1,50
 314 422 314 422 314 411 c 0,51,52
 314 402 314 402 297 385 c 0,53,54
 281 369 281 369 278 357 c 0,55,56
 276 343 276 343 268 338 c 2,57,-1
 259 332 l 1,58,-1
 259 167 l 1,59,-1
 268 160 l 2,60,61
 276 152 276 152 278 140 c 0,62,63
 279 132 279 132 292 117 c 2,64,-1
 303 105 l 1,65,-1
 433 105 l 1,66,67
 445 117 445 117 468 140.5 c 128,-1,68
 491 164 491 164 502 176 c 1,69,-1
 562 176 l 1,70,-1
 584 154 l 2,71,72
 600 138 600 138 603.5 132 c 128,-1,73
 607 126 607 126 608 114 c 2,74,-1
 608 104 l 2,75,76
 608 94 608 94 599 85 c 0,77,78
 588 72 588 72 588 63 c 0,79,80
 588 51 588 51 580 46 c 0,81,82
 571 40 571 40 571 30 c 0,83,84
 571 19 571 19 540 -12 c 2,85,-1
 509 -43 l 1,86,-1
 479 -44 l 2,87,88
 451 -45 451 -45 441 -55 c 2,89,-1
 433 -64 l 1,90,-1
 268 -64 l 1,91,-1
 249 -46 l 2,92,93
 230 -27 230 -27 221 -27 c 0,94,95
 214 -27 214 -27 202.5 -18.5 c 128,-1,96
 191 -10 191 -10 185 -9 c 0,97,98
 175 -8 175 -8 142 25 c 0,99,100
 110 57 110 57 110 67 c 0,101,102
 110 74 110 74 101.5 84.5 c 128,-1,103
 93 95 93 95 93 101 c 0,104,105
 93 109 93 109 84 120.5 c 128,-1,106
 75 132 75 132 74 139 c 0,107,108
 72 149 72 149 64 158 c 0,109,110
 58 163 58 163 57 170.5 c 128,-1,111
 56 178 56 178 56 212 c 0,112,113
 56 245 56 245 57.5 252.5 c 128,-1,114
 59 260 59 260 65 267 c 0,115,116
 74 276 74 276 75 296 c 0,117,118
 76 317 76 317 85 324 c 0,119,120
 93 331 93 331 93 350 c 0,121,122
 93 363 93 363 96 368.5 c 128,-1,123
 99 374 99 374 112 387 c 0,124,125
 131 407 131 407 131 417 c 0,126,127
 131 428 131 428 139 433 c 0,128,129
 148 439 148 439 148 449 c 0,130,131
 148 461 148 461 156 468 c 0,132,133
 164 476 164 476 164 485 c 0,134,135
 164 496 164 496 187 519 c 128,-1,136
 210 542 210 542 221 542 c 0,137,138
 230 542 230 542 249 561 c 0,139,140
 267 580 267 580 276 580 c 0,141,142
 282 580 282 580 294 588.5 c 128,-1,143
 306 597 306 597 311 597 c 0,0,1
EndSplineSet
EndChar

StartChar: D
Encoding: 68 68 17
Width: 807
GlyphClass: 2
Flags: W
LayerCount: 2
Fore
SplineSet
581 150 m 0,0,1
 581 156 581 156 588 164 c 128,-1,2
 595 172 595 172 595 178 c 0,3,4
 595 187 595 187 603 195 c 0,5,6
 609 202 609 202 610.5 212.5 c 128,-1,7
 612 223 612 223 612 271 c 2,8,-1
 612 338 l 1,9,-1
 603 346 l 2,10,11
 595 353 595 353 595 370 c 0,12,13
 595 381 595 381 592.5 386 c 128,-1,14
 590 391 590 391 580 401 c 0,15,16
 564 415 564 415 564 423 c 0,17,18
 564 432 564 432 538 458.5 c 128,-1,19
 512 485 512 485 503 485 c 0,20,21
 492 485 492 485 488 491 c 0,22,23
 484 496 484 496 465 500 c 128,-1,24
 446 504 446 504 441 508 c 0,25,26
 434 515 434 515 427 515 c 0,27,28
 422 515 422 515 411 524 c 0,29,30
 403 532 403 532 393 532 c 0,31,32
 385 532 385 532 380 539 c 0,33,34
 374 546 374 546 336 546 c 2,35,-1
 298 546 l 1,36,37
 290 539 290 539 276 523 c 1,38,-1
 276 332 l 2,39,40
 276 190 276 190 277 164 c 128,-1,41
 278 138 278 138 283 134 c 0,42,43
 290 128 290 128 290 96 c 2,44,-1
 290 65 l 1,45,-1
 302 53 l 2,46,47
 314 41 314 41 331 41 c 0,48,49
 347 41 347 41 351 34 c 0,50,51
 356 27 356 27 404 27 c 128,-1,52
 452 27 452 27 458 34 c 0,53,54
 463 41 463 41 473 41 c 128,-1,55
 483 41 483 41 495 56 c 0,56,57
 508 71 508 71 517 71 c 0,58,59
 523 71 523 71 529 74 c 0,60,61
 535 79 535 79 543 90 c 128,-1,62
 551 101 551 101 551 105 c 0,63,64
 551 112 551 112 566 127 c 128,-1,65
 581 142 581 142 581 150 c 0,0,1
737 164 m 0,66,67
 737 158 737 158 728.5 145 c 128,-1,68
 720 132 720 132 720 127 c 0,69,70
 720 118 720 118 713 115 c 0,71,72
 707 112 707 112 707 102 c 0,73,74
 707 93 707 93 694 80.5 c 128,-1,75
 681 68 681 68 672 68 c 0,76,77
 664 68 664 68 629 31 c 0,78,79
 593 -6 593 -6 582 -9 c 0,80,81
 572 -11 572 -11 566 -17 c 0,82,83
 559 -24 559 -24 536 -24 c 128,-1,84
 513 -24 513 -24 505 -32 c 0,85,86
 498 -41 498 -41 489 -41 c 0,87,88
 479 -41 479 -41 475 -47 c 0,89,90
 470 -52 470 -52 444 -53 c 128,-1,91
 418 -54 418 -54 297 -54 c 2,92,-1
 125 -54 l 1,93,-1
 106 -34 l 2,94,95
 92 -20 92 -20 89 -14.5 c 128,-1,96
 86 -9 86 -9 86 1 c 0,97,98
 86 27 86 27 105 27 c 0,99,100
 113 27 113 27 132 46 c 2,101,-1
 151 65 l 1,102,-1
 151 355 l 1,103,-1
 142 362 l 2,104,105
 134 369 134 369 134 393 c 0,106,107
 134 416 134 416 142 425 c 0,108,109
 151 435 151 435 151 455 c 0,110,111
 151 470 151 470 148.5 474.5 c 128,-1,112
 146 479 146 479 131 495 c 0,113,114
 111 515 111 515 104 515 c 0,115,116
 95 515 95 515 76 534 c 2,117,-1
 58 553 l 1,118,-1
 57 580 l 2,119,120
 57 584 57 584 56.5 590.5 c 128,-1,121
 56 597 56 597 56 599 c 0,122,123
 56 623 56 623 71 626 c 0,124,125
 82 628 82 628 88 634 c 0,126,127
 95 641 95 641 114 641 c 0,128,129
 134 641 134 641 137 634 c 0,130,131
 139 629 139 629 160 628 c 128,-1,132
 181 627 181 627 295 627 c 2,133,-1
 448 627 l 1,134,-1
 459 619 l 2,135,136
 469 610 469 610 499 610 c 128,-1,137
 529 610 529 610 535 604 c 0,138,139
 539 600 539 600 552 595.5 c 128,-1,140
 565 591 565 591 569 586 c 0,141,142
 573 580 573 580 583 580 c 0,143,144
 589 580 589 580 596 573 c 0,145,146
 601 566 601 566 613 564 c 0,147,148
 624 562 624 562 657 529.5 c 128,-1,149
 690 497 690 497 690 489 c 0,150,151
 690 479 690 479 713 456 c 2,152,-1
 737 432 l 1,153,-1
 737 384 l 2,154,155
 737 338 737 338 744 333 c 0,156,157
 749 330 749 330 750 318 c 128,-1,158
 751 306 751 306 751 254 c 128,-1,159
 751 202 751 202 750 190 c 128,-1,160
 749 178 749 178 744 176 c 0,161,162
 737 172 737 172 737 164 c 0,66,67
EndSplineSet
EndChar

StartChar: E
Encoding: 69 69 18
Width: 669
GlyphClass: 2
Flags: W
LayerCount: 2
Fore
SplineSet
480 659 m 2,0,-1
 506 659 l 2,1,2
 537 659 537 659 543 656 c 0,3,4
 545 654 545 654 548 641 c 128,-1,5
 551 628 551 628 555 626 c 0,6,7
 562 622 562 622 562 589 c 128,-1,8
 562 556 562 556 570 547 c 0,9,10
 578 539 578 539 578 531 c 0,11,12
 578 522 578 522 594 506 c 0,13,14
 606 494 606 494 608 489.5 c 128,-1,15
 610 485 610 485 610 473 c 0,16,17
 610 457 610 457 605 451.5 c 128,-1,18
 600 446 600 446 584 446 c 128,-1,19
 568 446 568 446 560 454 c 0,20,21
 554 462 554 462 546 462 c 128,-1,22
 538 462 538 462 532 470 c 0,23,24
 525 478 525 478 509 478 c 2,25,-1
 492 478 l 1,26,-1
 428 542 l 1,27,-1
 317 542 l 1,28,29
 313 538 313 538 305.5 529.5 c 128,-1,30
 298 521 298 521 294 517 c 1,31,-1
 294 440 l 2,32,33
 294 363 294 363 298 358 c 128,-1,34
 302 353 302 353 331 353 c 2,35,-1
 360 353 l 1,36,-1
 418 354 l 1,37,-1
 419 365 l 2,38,39
 421 378 421 378 440 397 c 0,40,41
 459 417 459 417 469 417 c 0,42,43
 477 417 477 417 489 405 c 0,44,45
 500 393 500 393 500 376 c 0,46,47
 500 360 500 360 508 352 c 2,48,-1
 517 345 l 1,49,-1
 517 213 l 1,50,-1
 505 200 l 2,51,52
 493 188 493 188 476 188 c 2,53,-1
 460 188 l 1,54,55
 450 199 450 199 429.5 220.5 c 128,-1,56
 409 242 409 242 399 253 c 1,57,-1
 366 253 l 1,58,-1
 355 253 l 2,59,60
 337 253 337 253 331.5 249.5 c 128,-1,61
 326 246 326 246 305 222 c 2,62,-1
 294 210 l 1,63,-1
 294 67 l 1,64,65
 307 55 307 55 333 29 c 1,66,-1
 388 30 l 2,67,68
 429 31 429 31 437.5 32 c 128,-1,69
 446 33 446 33 452 39 c 0,70,71
 462 47 462 47 469 47 c 0,72,73
 484 47 484 47 484 66 c 0,74,75
 484 73 484 73 511 100 c 2,76,-1
 538 127 l 1,77,-1
 555 127 l 2,78,79
 568 127 568 127 573 124.5 c 128,-1,80
 578 122 578 122 593 107 c 2,81,-1
 613 87 l 1,82,-1
 613 61 l 2,83,84
 613 35 613 35 605 27 c 128,-1,85
 597 19 597 19 597 3 c 0,86,87
 597 -8 597 -8 594 -13.5 c 128,-1,88
 591 -19 591 -19 577 -33 c 2,89,-1
 557 -53 l 1,90,-1
 501 -53 l 2,91,92
 460 -53 460 -53 452 -54 c 128,-1,93
 444 -55 444 -55 439 -61 c 128,-1,94
 434 -67 434 -67 423.5 -68 c 128,-1,95
 413 -69 413 -69 359 -71 c 2,96,-1
 286 -74 l 1,97,-1
 279 -65 l 2,98,99
 271 -57 271 -57 248 -57 c 128,-1,100
 225 -57 225 -57 217 -65 c 2,101,-1
 210 -73 l 1,102,-1
 77 -73 l 1,103,-1
 66 -60 l 2,104,105
 56 -48 56 -48 56 -30 c 0,106,107
 56 -13 56 -13 68 -1 c 128,-1,108
 80 11 80 11 88 11 c 0,109,110
 98 11 98 11 104 19 c 0,111,112
 111 27 111 27 129 27 c 0,113,114
 145 27 145 27 149 33 c 0,115,116
 153 41 153 41 153 77 c 0,117,118
 153 105 153 105 154 111 c 128,-1,119
 155 117 155 117 161 124 c 2,120,-1
 169 134 l 1,121,-1
 168 303 l 2,122,123
 167 429 167 429 166 450.5 c 128,-1,124
 165 472 165 472 160 476 c 0,125,126
 154 481 154 481 152 492 c 0,127,128
 151 502 151 502 111 541 c 0,129,130
 72 579 72 579 72 591 c 0,131,132
 72 600 72 600 92 620 c 2,133,-1
 112 641 l 1,134,135
 165 642 165 642 269 642 c 128,-1,136
 373 642 373 642 426 643 c 1,137,138
 434 655 434 655 437 656 c 0,139,140
 444 658 444 658 480 659 c 2,0,-1
EndSplineSet
EndChar

StartChar: F
Encoding: 70 70 19
Width: 669
GlyphClass: 2
Flags: W
LayerCount: 2
Fore
SplineSet
294 -50 m 2,0,1
 300 -33 300 -33 291 67 c 1,2,-1
 294 210 l 1,3,-1
 305 222 l 2,4,5
 330 249 330 249 331.5 249.5 c 0,6,7
 342 253 342 253 355 253 c 2,8,-1
 366 253 l 1,9,-1
 399 253 l 1,10,11
 409 242 409 242 429.5 220.5 c 128,-1,12
 450 199 450 199 460 188 c 1,13,-1
 476 188 l 2,14,15
 493.923076923 188 493.923076923 188 505 200 c 2,16,-1
 517 213 l 1,17,-1
 517 345 l 1,18,-1
 508 352 l 2,19,20
 500 358 500 358 500 376 c 0,21,22
 500 393 500 393 489 405 c 0,23,24
 477 417 477 417 469 417 c 0,25,26
 459 417 459 417 440 397 c 0,27,28
 420.1 377.1 420.1 377.1 419 365 c 2,29,-1
 418 354 l 1,30,-1
 360 353 l 1,31,-1
 331 353 l 2,32,33
 302 353 302 353 298 358 c 128,-1,34
 294 363 294 363 294 440 c 2,35,-1
 294 517 l 1,36,37
 298 521 298 521 305.5 529.5 c 128,-1,38
 313 538 313 538 317 542 c 1,39,-1
 428 542 l 1,40,-1
 492 478 l 1,41,-1
 509 478 l 2,42,43
 525 478 525 478 532 470 c 0,44,45
 538 462 538 462 546 462 c 128,-1,46
 554 462 554 462 560 454 c 128,-1,47
 566 446 566 446 584 446 c 0,48,49
 600 446 600 446 605 451.5 c 128,-1,50
 610 457 610 457 610 473 c 0,51,52
 610 485 610 485 608 489.5 c 128,-1,53
 606 494 606 494 594 506 c 0,54,55
 578 522 578 522 578 531 c 0,56,57
 578 539 578 539 570 547 c 0,58,59
 562 556 562 556 562 589 c 128,-1,60
 562 622 562 622 555 626 c 0,61,62
 551 628 551 628 548 641 c 128,-1,63
 545 654 545 654 543 656 c 0,64,65
 540 659 540 659 506 659 c 2,66,-1
 480 659 l 2,67,68
 448 659 448 659 437 656 c 0,69,70
 434 655 434 655 426 643 c 1,71,72
 373 642 373 642 269 642 c 128,-1,73
 165 642 165 642 112 641 c 1,74,-1
 92 620 l 2,75,76
 72 599 72 599 72 591 c 0,77,78
 72 579 72 579 111 541 c 0,79,80
 151 502 151 502 152 492 c 0,81,82
 154 481 154 481 160 476 c 0,83,84
 165 472 165 472 166 450.5 c 0,85,86
 167.590814196 372.152400835 167.590814196 372.152400835 168 303 c 2,87,-1
 169 134 l 1,88,-1
 161 124 l 2,89,90
 155 117 155 117 154 110.5 c 0,91,92
 153 105 153 105 153 77 c 0,93,94
 153 -38 153 -38 144 -40 c 0,95,-1
 143 -53 l 2,96,-1
 146 -73 l 1,97,-1
 210 -73 l 1,98,-1
 241 -70 l 2,99,-1
 249 -76 l 0,100,101
 259.223880597 -67.8208955224 259.223880597 -67.8208955224 273 -71 c 2,102,-1
 286 -74 l 1,103,-1
 294 -50 l 2,0,1
EndSplineSet
EndChar

StartChar: G
Encoding: 71 71 20
Width: 807
GlyphClass: 2
Flags: W
LayerCount: 2
Fore
SplineSet
246 608 m 128,-1,1
 252 608 252 608 261.5 616 c 128,-1,2
 271 624 271 624 278 624 c 0,3,4
 287 624 287 624 292 631 c 128,-1,5
 297 638 297 638 317 639 c 0,6,7
 335 640 335 640 340 647 c 0,8,9
 344 653 344 653 367 653 c 0,10,11
 391 653 391 653 400 661 c 2,12,-1
 409 668 l 1,13,-1
 491 669 l 2,14,15
 551 669 551 669 563 668 c 128,-1,16
 575 667 575 667 577 663 c 0,17,18
 581 656 581 656 616 655 c 128,-1,19
 651 654 651 654 656 647 c 128,-1,20
 661 640 661 640 669 640 c 0,21,22
 678 640 678 640 698 620 c 2,23,-1
 719 600 l 1,24,-1
 719 456 l 1,25,-1
 707 443 l 2,26,27
 695 431 695 431 678 431 c 2,28,-1
 661 431 l 1,29,30
 579 515 579 515 537 556 c 1,31,-1
 467 556 l 2,32,33
 414 556 414 556 404 555 c 128,-1,34
 394 554 394 554 387 548 c 0,35,36
 378 540 378 540 363 540 c 128,-1,37
 348 540 348 540 339 532 c 0,38,39
 329 524 329 524 323 524 c 0,40,41
 315 524 315 524 289 497.5 c 128,-1,42
 263 471 263 471 263 463 c 128,-1,43
 263 455 263 455 255 447 c 128,-1,44
 247 439 247 439 247 423 c 128,-1,45
 247 407 247 407 239 400 c 128,-1,46
 231 393 231 393 231 368 c 0,47,48
 231 344 231 344 223 336 c 0,49,50
 217 331 217 331 216 325 c 128,-1,51
 215 319 215 319 215 292 c 0,52,53
 215 256 215 256 223 246 c 128,-1,54
 231 236 231 236 231 228 c 0,55,56
 231 223 231 223 239 212.5 c 128,-1,57
 247 202 247 202 247 197 c 0,58,59
 247 188 247 188 301.5 133.5 c 128,-1,60
 356 79 356 79 356 72 c 0,61,62
 356 64 356 64 368 52 c 128,-1,63
 380 40 380 40 388 40 c 0,64,65
 395 40 395 40 405 32 c 0,66,67
 414 24 414 24 436 24 c 0,68,69
 457 24 457 24 465 32 c 128,-1,70
 473 40 473 40 497 40 c 0,71,72
 514 40 514 40 519 41.5 c 128,-1,73
 524 43 524 43 531 51 c 0,74,75
 538 58 538 58 543 69.5 c 128,-1,76
 548 81 548 81 552 86 c 0,77,78
 558 93 558 93 559 156 c 2,79,-1
 559 220 l 1,80,-1
 540 239 l 2,81,82
 521 258 521 258 516 258 c 0,83,84
 505 258 505 258 501 264 c 128,-1,85
 497 270 497 270 497 289 c 0,86,87
 497 307 497 307 498.5 312 c 128,-1,88
 500 317 500 317 509 326 c 0,89,90
 521 338 521 338 530 338 c 0,91,92
 537 338 537 338 545 330 c 2,93,-1
 553 322 l 1,94,-1
 728 322 l 1,95,-1
 739 309 l 2,96,97
 751 295 751 295 751 290 c 0,98,99
 751 283 751 283 735 267 c 2,100,-1
 719 251 l 1,101,-1
 719 60 l 1,102,-1
 711 53 l 2,103,104
 703 47 703 47 703 38 c 128,-1,105
 703 29 703 29 668 -6 c 128,-1,106
 633 -41 633 -41 624 -41 c 0,107,108
 617 -41 617 -41 609 -49 c 2,109,-1
 602 -57 l 1,110,-1
 349 -57 l 1,111,-1
 339 -49 l 2,112,113
 329 -41 329 -41 299 -41 c 0,114,115
 267 -41 267 -41 260 -33 c 128,-1,116
 253 -25 253 -25 237 -25 c 2,117,-1
 220 -25 l 1,118,-1
 177 18 l 2,119,120
 135 60 135 60 135 70 c 0,121,122
 135 76 135 76 127 85.5 c 128,-1,123
 119 95 119 95 119 100 c 0,124,125
 119 104 119 104 110.5 116 c 128,-1,126
 102 128 102 128 102 133 c 128,-1,127
 102 138 102 138 94 149 c 128,-1,128
 86 160 86 160 86 165 c 128,-1,129
 86 170 86 170 78 182 c 128,-1,130
 70 194 70 194 70 199 c 0,131,132
 70 206 70 206 63 211 c 0,133,134
 58 215 58 215 57 224.5 c 128,-1,135
 56 234 56 234 55 288 c 2,136,-1
 54 361 l 1,137,-1
 62 369 l 2,138,139
 70 377 70 377 70 385 c 0,140,141
 70 392 70 392 78 400 c 128,-1,142
 86 408 86 408 86 424 c 0,143,144
 86 441 86 441 94 449 c 128,-1,145
 102 457 102 457 102 464 c 0,146,147
 102 472 102 472 119 489 c 0,148,149
 135 505 135 505 135 513 c 0,150,151
 135 517 135 517 151 536.5 c 128,-1,152
 167 556 167 556 167 560 c 0,153,154
 167 576 167 576 183 576 c 0,155,156
 189 576 189 576 198 584 c 128,-1,157
 207 592 207 592 214 592 c 128,-1,158
 221 592 221 592 230.5 600 c 128,-1,0
 240 608 240 608 246 608 c 128,-1,1
EndSplineSet
EndChar

StartChar: H
Encoding: 72 72 21
Width: 967
GlyphClass: 2
Flags: W
LayerCount: 2
Fore
SplineSet
910 572 m 2,0,-1
 910 551 l 2,1,2
 910 535 910 535 905.5 531.5 c 128,-1,3
 901 528 901 528 881 528 c 0,4,5
 860 528 860 528 857 521 c 0,6,7
 853 514 853 514 846 510 c 128,-1,8
 839 506 839 506 839 503 c 0,9,10
 839 501 839 501 831 493 c 0,11,12
 822 487 822 487 821 467 c 0,13,14
 819 446 819 446 815 445 c 0,15,16
 810 443 810 443 810 440 c 0,17,18
 810 436 810 436 807 434 c 0,19,20
 805 434 805 434 804 421 c 128,-1,21
 803 408 803 408 800.5 391.5 c 128,-1,22
 798 375 798 375 792 369 c 0,23,24
 786 364 786 364 783 341 c 0,25,26
 781 320 781 320 773 315 c 0,27,28
 767 311 767 311 764 289 c 0,29,30
 761 266 761 266 754 260 c 0,31,32
 746 253 746 253 746 234 c 0,33,34
 746 217 746 217 737 208 c 0,35,36
 727 198 727 198 726 178 c 0,37,38
 725 157 725 157 717 153 c 128,-1,39
 709 149 709 149 708 136 c 0,40,41
 707 124 707 124 697 118 c 0,42,43
 690 115 690 115 689 110.5 c 128,-1,44
 688 106 688 106 688 84 c 0,45,46
 688 43 688 43 701 43 c 0,47,48
 704 43 704 43 704 40 c 128,-1,49
 704 37 704 37 710.5 30.5 c 128,-1,50
 717 24 717 24 720 24 c 0,51,52
 724 24 724 24 724 2 c 0,53,54
 724 -18 724 -18 719 -24.5 c 128,-1,55
 714 -31 714 -31 699 -31 c 0,56,57
 685 -31 685 -31 685 -35 c 0,58,59
 685 -40 685 -40 678 -45 c 0,60,61
 672 -50 672 -50 651 -48 c 128,-1,62
 630 -46 630 -46 630 -51 c 0,63,64
 630 -58 630 -58 619.5 -60.5 c 128,-1,65
 609 -63 609 -63 576 -63 c 2,66,-1
 549 -63 l 2,67,68
 485 -62 485 -62 468.5 -59.5 c 128,-1,69
 452 -57 452 -57 442 -45 c 128,-1,70
 432 -33 432 -33 432 -14 c 0,71,72
 432 -1 432 -1 433.5 3 c 128,-1,73
 435 7 435 7 445 15 c 0,74,75
 458 27 458 27 474 27 c 0,76,77
 502 27 502 27 502 38 c 0,78,79
 502 43 502 43 505 43 c 0,80,81
 509 43 509 43 520.5 53.5 c 128,-1,82
 532 64 532 64 533 64 c 0,83,84
 540 68 540 68 540 107 c 2,85,-1
 540 130 l 2,86,87
 540 191 540 191 555 191 c 0,88,89
 558 191 558 191 561 198 c 0,90,91
 565 205 565 205 572 209 c 0,92,93
 579 212 579 212 579 225 c 0,94,95
 579 237 579 237 575 241 c 128,-1,96
 571 245 571 245 561 245 c 128,-1,97
 551 245 551 245 544 255 c 0,98,99
 539 262 539 262 534 263.5 c 128,-1,100
 529 265 529 265 509 265 c 0,101,102
 483 265 483 265 475 257 c 0,103,104
 470 251 470 251 461.5 250 c 128,-1,105
 453 249 453 249 411 249 c 0,106,107
 354 249 354 249 351 242 c 0,108,109
 349 238 349 238 340.5 233 c 128,-1,110
 332 228 332 228 332 218 c 0,111,112
 332 200 332 200 320 194 c 0,113,114
 313 190 313 190 313 171 c 0,115,116
 313 140 313 140 298 140 c 0,117,118
 294 140 294 140 294 98 c 0,119,120
 294 68 294 68 295 61.5 c 128,-1,121
 296 55 296 55 301 53 c 0,122,123
 305 51 305 51 311 43 c 128,-1,124
 317 35 317 35 322 32 c 0,125,126
 327 30 327 30 328 25 c 128,-1,127
 329 20 329 20 329 -2 c 128,-1,128
 329 -24 329 -24 327.5 -28.5 c 128,-1,129
 326 -33 326 -33 320 -36 c 0,130,131
 310 -40 310 -40 286 -40 c 0,132,133
 236 -40 236 -40 236 -49 c 0,134,135
 236 -54 236 -54 204 -57 c 0,136,137
 186 -58 186 -58 181 -66 c 0,138,139
 177 -71 177 -71 169.5 -72.5 c 128,-1,140
 162 -74 162 -74 128 -75 c 2,141,-1
 113 -75 l 2,142,143
 77 -75 77 -75 68 -72 c 2,144,-1
 56 -69 l 1,145,-1
 56 27 l 1,146,-1
 68 40 l 2,147,148
 79 53 79 53 83 53 c 128,-1,149
 87 53 87 53 101 68 c 128,-1,150
 115 83 115 83 120 90 c 0,151,152
 127 97 127 97 127 103 c 0,153,154
 127 120 127 120 138 124 c 0,155,156
 146 127 146 127 146 139 c 0,157,158
 146 148 146 148 150.5 155 c 128,-1,159
 155 162 155 162 160 161 c 0,160,161
 162 161 162 161 164 183 c 0,162,163
 166 217 166 217 180 217 c 0,164,165
 184 217 184 217 184 237 c 0,166,167
 184 258 184 258 191 265 c 0,168,169
 197 271 197 271 200 271 c 0,170,171
 204 271 204 271 204 282 c 0,172,173
 204 290 204 290 209.5 298 c 128,-1,174
 215 306 215 306 220 306 c 0,175,176
 223 306 223 306 223 329 c 0,177,178
 223 351 223 351 226 351 c 128,-1,179
 229 351 229 351 236 358 c 0,180,181
 242 364 242 364 242 404 c 128,-1,182
 242 444 242 444 246 444 c 0,183,184
 252 444 252 444 256.5 451.5 c 128,-1,185
 261 459 261 459 261 468 c 0,186,187
 261 480 261 480 265 480 c 0,188,189
 270 480 270 480 275 485 c 0,190,191
 281 490 281 490 281 516 c 0,192,193
 281 539 281 539 276.5 546.5 c 128,-1,194
 272 554 272 554 259 554 c 0,195,196
 249 554 249 554 242.5 561.5 c 128,-1,197
 236 569 236 569 233 571 c 0,198,199
 228 573 228 573 227 577 c 128,-1,200
 226 581 226 581 226 599 c 128,-1,201
 226 617 226 617 227 621 c 128,-1,202
 228 625 228 625 234 627 c 0,203,204
 239 630 239 630 249 647 c 1,205,-1
 296 645 l 2,206,207
 330 644 330 644 337.5 642 c 128,-1,208
 345 640 345 640 352 633 c 2,209,-1
 361 624 l 1,210,-1
 532 624 l 1,211,-1
 530 598 l 2,212,213
 528 572 528 572 520 565 c 0,214,215
 512 557 512 557 512 554 c 0,216,217
 512 550 512 550 488 550 c 128,-1,218
 464 550 464 550 464 546 c 0,219,220
 464 541 464 541 455 537 c 0,221,222
 445 533 445 533 441 524 c 128,-1,223
 437 515 437 515 433 515 c 0,224,225
 425 515 425 515 425 486 c 0,226,227
 425 478 425 478 421.5 469 c 128,-1,228
 418 460 418 460 414 460 c 0,229,230
 406 460 406 460 406 428 c 0,231,232
 406 421 406 421 398 411 c 0,233,234
 390 403 390 403 389 372 c 0,235,236
 389 342 389 342 393 339 c 0,237,238
 402 333 402 333 539 333 c 0,239,240
 610 333 610 333 623 336 c 0,241,242
 634 339 634 339 635.5 341 c 128,-1,243
 637 343 637 343 637 352 c 0,244,245
 637 364 637 364 640 364 c 128,-1,246
 643 364 643 364 650 371 c 0,247,248
 656 377 656 377 656 408 c 0,249,250
 656 438 656 438 659 438 c 0,251,252
 663 438 663 438 669 444 c 128,-1,253
 675 450 675 450 675 493 c 0,254,255
 675 529 675 529 671.5 538 c 128,-1,256
 668 547 668 547 653 547 c 0,257,258
 642 547 642 547 639 555 c 0,259,260
 636 561 636 561 628 565 c 0,261,262
 621 568 621 568 621 581 c 0,263,264
 621 605 621 605 631 605 c 0,265,266
 637 605 637 605 639 612 c 0,267,268
 640 617 640 617 649 621 c 0,269,270
 655 624 655 624 659 632 c 0,271,272
 661 638 661 638 665.5 639 c 128,-1,273
 670 640 670 640 692 640 c 0,274,275
 733 640 733 640 733 625 c 0,276,277
 733 620 733 620 803 620 c 0,278,279
 833 620 833 620 833 622 c 0,280,281
 833 638 833 638 865 638 c 0,282,283
 883 638 883 638 890 631 c 128,-1,284
 897 624 897 624 897 621 c 128,-1,285
 897 618 897 618 901 618 c 0,286,287
 910 618 910 618 910 572 c 2,0,-1
EndSplineSet
EndChar

StartChar: I
Encoding: 73 73 22
Width: 467
GlyphClass: 2
Flags: W
LayerCount: 2
Fore
SplineSet
129 50 m 128,-1,1
 145 50 145 50 148.5 53.5 c 128,-1,2
 152 57 152 57 152 73 c 0,3,4
 152 90 152 90 159 96 c 2,5,-1
 167 103 l 1,6,-1
 167 497 l 1,7,-1
 159 506 l 2,8,9
 152 515 152 515 152 522 c 0,10,11
 152 536 152 536 137 536 c 0,12,13
 129 536 129 536 101 564 c 2,14,-1
 73 592 l 1,15,-1
 73 618 l 2,16,17
 73 640 73 640 76 646 c 128,-1,18
 79 652 79 652 89 652 c 0,19,20
 98 652 98 652 104 659 c 0,21,22
 108 665 108 665 115.5 666 c 128,-1,23
 123 667 123 667 161 667 c 2,24,-1
 177 667 l 2,25,26
 188 667 188 667 194 666.5 c 128,-1,27
 200 666 200 666 205 666 c 128,-1,28
 210 666 210 666 212.5 664.5 c 128,-1,29
 215 663 215 663 216.5 662 c 128,-1,30
 218 661 218 661 221 657.5 c 128,-1,31
 224 654 224 654 226 652 c 2,32,-1
 371 652 l 1,33,-1
 391 632 l 2,34,35
 410 613 410 613 410 601 c 0,36,37
 410 590 410 590 389 571 c 0,38,39
 367 551 367 551 361 551 c 0,40,41
 352 551 352 551 349 544 c 128,-1,42
 346 537 346 537 346 513 c 0,43,44
 346 481 346 481 339 475 c 2,45,-1
 331 468 l 1,46,-1
 331 199 l 1,47,-1
 324 190 l 2,48,49
 316 180 316 180 316 142 c 0,50,51
 316 103 316 103 324 95 c 0,52,53
 331 88 331 88 331 73 c 0,54,55
 331 61 331 61 334 55.5 c 128,-1,56
 337 50 337 50 355 33 c 2,57,-1
 380 10 l 1,58,-1
 380 -8 l 2,59,60
 380 -22 380 -22 377 -27 c 128,-1,61
 374 -32 374 -32 362 -34 c 0,62,63
 352 -36 352 -36 345 -43 c 0,64,65
 339 -48 339 -48 332.5 -49.5 c 128,-1,66
 326 -51 326 -51 297 -51 c 0,67,68
 267 -51 267 -51 260.5 -52 c 128,-1,69
 254 -53 254 -53 250 -58 c 2,70,-1
 243 -66 l 1,71,-1
 186 -66 l 2,72,73
 143 -66 143 -66 134.5 -65 c 128,-1,74
 126 -64 126 -64 121 -58 c 0,75,76
 114 -51 114 -51 98 -51 c 0,77,78
 83 -51 83 -51 69 -38 c 0,79,80
 60 -29 60 -29 58 -24.5 c 128,-1,81
 56 -20 56 -20 56 -8 c 0,82,83
 56 9 56 9 68 22 c 0,84,85
 81 35 81 35 88 35 c 128,-1,86
 95 35 95 35 104 42 c 0,87,0
 113 50 113 50 129 50 c 128,-1,1
EndSplineSet
EndChar

StartChar: J
Encoding: 74 74 23
Width: 658
GlyphClass: 2
Flags: W
LayerCount: 2
Fore
SplineSet
164 -40 m 128,-1,1
 172 -40 172 -40 186 -50 c 128,-1,2
 200 -60 200 -60 208 -60 c 0,3,4
 220 -60 220 -60 226 -68 c 0,5,6
 230 -76 230 -76 260 -77 c 2,7,-1
 269 -77 l 2,8,9
 309 -77 309 -77 309 -65 c 0,10,11
 309 -60 309 -60 323 -57 c 0,12,13
 337 -53 337 -53 353.5 -37 c 128,-1,14
 370 -21 370 -21 380 -2 c 0,15,16
 389 16 389 16 392 42 c 128,-1,17
 395 68 395 68 402 74 c 0,18,19
 410 80 410 80 410 106 c 0,20,21
 410 133 410 133 395 160 c 0,22,23
 389 172 389 172 389 210 c 128,-1,24
 389 248 389 248 398 262 c 0,25,26
 406 275 406 275 406 303 c 128,-1,27
 406 331 406 331 398 347 c 0,28,29
 387 367 387 367 383 437 c 0,30,31
 382 446 382 446 382 464 c 0,32,33
 382 535 382 535 393 553 c 0,34,35
 399 562 399 562 399 586 c 0,36,37
 399 613 399 613 392 627 c 0,38,39
 381 651 381 651 356 656 c 0,40,41
 325 662 325 662 316 686 c 0,42,43
 313 695 313 695 313 706 c 0,44,45
 313 729 313 729 322 739 c 0,46,47
 332 750 332 750 405 756 c 0,48,49
 428 758 428 758 479 758 c 0,50,51
 566 758 566 758 587 750 c 0,52,53
 603 745 603 745 603 716 c 128,-1,54
 603 687 603 687 565 648 c 2,55,-1
 542 624 l 1,56,-1
 545 498 l 2,57,58
 548 376 548 376 553 343.5 c 128,-1,59
 558 311 558 311 578 272 c 0,60,61
 593 242 593 242 593 233 c 0,62,63
 593 219 593 219 552 130 c 0,64,65
 523 67 523 67 509 17 c 0,66,67
 503 -3 503 -3 486 -26 c 0,68,69
 468 -52 468 -52 437.5 -83.5 c 128,-1,70
 407 -115 407 -115 394 -121 c 0,71,72
 380 -128 380 -128 362 -144 c 0,73,74
 333 -172 333 -172 272 -187 c 0,75,76
 235 -195 235 -195 186 -195 c 128,-1,77
 137 -195 137 -195 122 -190 c 128,-1,78
 107 -185 107 -185 84 -162 c 0,79,80
 56 -134 56 -134 56 -103 c 0,81,82
 56 -65 56 -65 100 -33 c 0,83,84
 119 -19 119 -19 133 -19 c 0,85,86
 139 -19 139 -19 139 -23 c 0,87,88
 139 -29 139 -29 147.5 -34.5 c 128,-1,0
 156 -40 156 -40 164 -40 c 128,-1,1
EndSplineSet
EndChar

StartChar: K
Encoding: 75 75 24
Width: 805
GlyphClass: 2
Flags: W
LayerCount: 2
Fore
SplineSet
185 780 m 2,0,-1
 203 783 l 2,1,2
 212 781 212 781 222 779 c 0,3,4
 271 768 271 768 289 727 c 0,5,6
 298 706 298 706 298 643 c 0,7,8
 298 558 298 558 286 535 c 0,9,10
 278 518 278 518 277 493 c 2,11,-1
 275 464 l 1,12,-1
 296 484 l 2,13,14
 310 497 310 497 339 533 c 0,15,16
 383 588 383 588 406 593 c 0,17,18
 419 597 419 597 456 635 c 0,19,20
 487 666 487 666 532.5 702.5 c 128,-1,21
 578 739 578 739 603 752 c 0,22,23
 623 763 623 763 636 763 c 0,24,25
 658 763 658 763 691 724 c 0,26,27
 723 687 723 687 723 658 c 0,28,29
 723 624 723 624 680 560 c 0,30,31
 621 470 621 470 559 449 c 0,32,33
 519 435 519 435 492 411 c 0,34,35
 472 394 472 394 467 394 c 2,36,-1
 465 394 l 2,37,38
 463 395 463 395 462 395 c 0,39,40
 450 397 450 397 437 385 c 0,41,42
 432 381 432 381 421.5 368.5 c 128,-1,43
 411 356 411 356 401.5 348.5 c 128,-1,44
 392 341 392 341 384 341 c 2,45,-1
 381 341 l 2,46,47
 369 342 369 342 363 336 c 2,48,-1
 355 328 l 1,49,-1
 368 321 l 2,50,51
 382 314 382 314 395 299 c 0,52,53
 423 265 423 265 490 227 c 0,54,55
 514 213 514 213 535 196.5 c 128,-1,56
 556 180 556 180 556 174 c 0,57,58
 556 170 556 170 569.5 157 c 128,-1,59
 583 144 583 144 597 136 c 0,60,61
 634 113 634 113 703 42 c 0,62,63
 749 -7 749 -7 749 -26 c 0,64,65
 749 -34 749 -34 745 -42 c 0,66,67
 739 -53 739 -53 714.5 -75.5 c 128,-1,68
 690 -98 690 -98 678 -104 c 0,69,70
 664 -111 664 -111 646 -111 c 0,71,72
 614 -111 614 -111 553 -82 c 0,73,74
 456 -36 456 -36 426 22 c 0,75,76
 407 59 407 59 380 77 c 0,77,78
 367 86 367 86 363 108 c 0,79,80
 362 116 362 116 332 136 c 0,81,82
 300 157 300 157 300 168 c 0,83,84
 300 169 300 169 300.5 171 c 128,-1,85
 301 173 301 173 301 174 c 0,86,87
 301 179 301 179 291 189 c 128,-1,88
 281 199 281 199 276 199 c 0,89,90
 272 199 272 199 272 118 c 2,91,-1
 272 36 l 1,92,-1
 297 15 l 2,93,94
 337 -21 337 -21 337 -51 c 0,95,96
 337 -85 337 -85 288 -92 c 0,97,98
 271 -94 271 -94 245 -105 c 0,99,100
 217 -116 217 -116 175 -117 c 2,101,-1
 151 -117 l 2,102,103
 100 -117 100 -117 79 -99 c 0,104,105
 54 -78 54 -78 54 -46 c 0,106,107
 54 -9 54 -9 90 8 c 0,108,109
 112 19 112 19 115 24 c 0,110,111
 120 29 120 29 123 76 c 0,112,113
 126 128 126 128 138 148 c 0,114,115
 150 169 150 169 150 336 c 0,116,117
 150 346 150 346 149.5 368 c 128,-1,118
 149 390 149 390 149 402 c 0,119,120
 147 561 147 561 132 581 c 0,121,122
 125 590 125 590 123 606 c 0,123,124
 121 618 121 618 113 632 c 128,-1,125
 105 646 105 646 101 646 c 128,-1,126
 97 646 97 646 91 661.5 c 128,-1,127
 85 677 85 677 85 688 c 0,128,129
 85 721 85 721 113.5 747 c 128,-1,130
 142 773 142 773 185 780 c 2,0,-1
EndSplineSet
EndChar

StartChar: L
Encoding: 76 76 25
Width: 781
GlyphClass: 2
Flags: W
LayerCount: 2
Fore
SplineSet
565 71 m 0,0,1
 570 71 570 71 581 79 c 128,-1,2
 592 87 592 87 597 87 c 0,3,4
 603 87 603 87 636 120 c 2,5,-1
 667 152 l 1,6,-1
 683 152 l 2,7,8
 698 152 698 152 712 140 c 2,9,-1
 725 128 l 1,10,-1
 725 84 l 2,11,12
 725 52 725 52 724 45.5 c 128,-1,13
 723 39 723 39 717 34 c 0,14,15
 709 28 709 28 709 18 c 0,16,17
 709 9 709 9 681.5 -18 c 128,-1,18
 654 -45 654 -45 643 -46 c 0,19,20
 633 -48 633 -48 629 -54 c 0,21,22
 627 -58 627 -58 596.5 -59 c 128,-1,23
 566 -60 566 -60 403 -60 c 2,24,-1
 180 -60 l 1,25,-1
 171 -68 l 2,26,27
 163 -76 163 -76 144 -76 c 0,28,29
 126 -76 126 -76 121 -70 c 0,30,31
 116 -63 116 -63 105 -61 c 0,32,33
 92 -57 92 -57 75 -40 c 0,34,35
 56 -21 56 -21 56 -11 c 0,36,37
 56 -2 56 -2 77 19 c 0,38,39
 92 33 92 33 97.5 36 c 128,-1,40
 103 39 103 39 114 39 c 0,41,42
 126 39 126 39 131 42.5 c 128,-1,43
 136 46 136 46 156 66 c 2,44,-1
 183 92 l 1,45,-1
 183 330 l 1,46,-1
 175 337 l 2,47,48
 169 342 169 342 168 347.5 c 128,-1,49
 167 353 167 353 167 377 c 128,-1,50
 167 401 167 401 168 407 c 128,-1,51
 169 413 169 413 175 418 c 128,-1,52
 181 423 181 423 182 430 c 128,-1,53
 183 437 183 437 183 472 c 2,54,-1
 183 519 l 1,55,-1
 156 545 l 2,56,57
 130 572 130 572 123 572 c 0,58,59
 119 572 119 572 106.5 580.5 c 128,-1,60
 94 589 94 589 89 596 c 0,61,62
 86 602 86 602 86 615 c 0,63,64
 86 631 86 631 99 644 c 2,65,-1
 112 656 l 1,66,-1
 184 656 l 2,67,68
 238 657 238 657 247.5 658 c 128,-1,69
 257 659 257 659 261 664 c 128,-1,70
 265 669 265 669 276.5 670.5 c 128,-1,71
 288 672 288 672 342 672 c 0,72,73
 416 672 416 672 421 666 c 0,74,75
 425 660 425 660 436 658 c 0,76,77
 448 656 448 656 458 645 c 128,-1,78
 468 634 468 634 468 623 c 0,79,80
 468 611 468 611 448 592 c 0,81,82
 428 572 428 572 421 572 c 0,83,84
 415 572 415 572 401 558 c 0,85,86
 390 547 390 547 375 540.5 c 128,-1,87
 360 534 360 534 347 521 c 2,88,-1
 329 503 l 1,89,90
 328 435 328 435 328 299 c 128,-1,91
 328 163 328 163 327 95 c 1,92,93
 333 89 333 89 345.5 75.5 c 128,-1,94
 358 62 358 62 365 55 c 1,95,-1
 540 55 l 1,96,-1
 549 63 l 2,97,98
 559 71 559 71 565 71 c 0,0,1
EndSplineSet
EndChar

StartChar: M
Encoding: 77 77 26
Width: 903
GlyphClass: 2
Flags: W
LayerCount: 2
Fore
SplineSet
140 401 m 2,0,1
 141 401 141 401 144 403 c 128,-1,2
 147 405 147 405 147.5 405.5 c 128,-1,3
 148 406 148 406 150 407.5 c 128,-1,4
 152 409 152 409 152.5 410 c 128,-1,5
 153 411 153 411 154 413 c 128,-1,6
 155 415 155 415 155 417 c 128,-1,7
 155 419 155 419 155.5 422.5 c 128,-1,8
 156 426 156 426 156 430 c 0,9,10
 156 449 156 449 164 455 c 0,11,12
 170 459 170 459 171 465.5 c 128,-1,13
 172 472 172 472 172 510 c 0,14,15
 172 550 172 550 169.5 559.5 c 128,-1,16
 167 569 167 569 156 569 c 0,17,18
 147 569 147 569 127 588 c 0,19,20
 112 602 112 602 109 607.5 c 128,-1,21
 106 613 106 613 105 625 c 0,22,23
 104 643 104 643 110 649 c 0,24,25
 117 656 117 656 124 656 c 0,26,27
 132 656 132 656 140 664 c 0,28,29
 147 670 147 670 153.5 671 c 128,-1,30
 160 672 160 672 189 672 c 0,31,32
 219 672 219 672 225.5 670.5 c 128,-1,33
 232 669 232 669 241 662 c 0,34,35
 253 652 253 652 269 652 c 0,36,37
 291 652 291 652 291 635 c 0,38,39
 291 631 291 631 299 619.5 c 128,-1,40
 307 608 307 608 307 603 c 0,41,42
 307 595 307 595 315 587 c 0,43,44
 323 578 323 578 323 561 c 0,45,46
 323 543 323 543 331 536 c 0,47,48
 339 528 339 528 339 520 c 128,-1,49
 339 512 339 512 347 504 c 0,50,51
 355 497 355 497 355 479 c 0,52,53
 355 462 355 462 364 454 c 0,54,55
 372 447 372 447 372 429 c 128,-1,56
 372 411 372 411 380 404 c 0,57,58
 388 396 388 396 388 381 c 0,59,60
 388 364 388 364 396 355 c 0,61,62
 404 347 404 347 404 339 c 128,-1,63
 404 331 404 331 412 323 c 0,64,65
 420 314 420 314 420 298 c 0,66,67
 420 283 420 283 428 274 c 0,68,69
 436 266 436 266 436 258 c 0,70,71
 436 252 436 252 448 238 c 0,72,73
 456 229 456 229 460.5 227.5 c 128,-1,74
 465 226 465 226 481 225 c 0,75,76
 484 225 484 225 488.5 224.5 c 128,-1,77
 493 224 493 224 495 224 c 0,78,79
 507 224 507 224 512 228 c 0,80,81
 520 234 520 234 520 259 c 128,-1,82
 520 284 520 284 528 292 c 128,-1,83
 536 300 536 300 536 308 c 0,84,85
 536 314 536 314 544 324 c 128,-1,86
 552 334 552 334 552 340 c 0,87,88
 552 348 552 348 560 356 c 0,89,90
 568 363 568 363 568 381 c 0,91,92
 568 398 568 398 576 405 c 0,93,94
 584 413 584 413 584 421 c 0,95,96
 584 430 584 430 600 446 c 128,-1,97
 616 462 616 462 616 472 c 0,98,99
 616 481 616 481 624 487 c 2,100,-1
 632 494 l 1,101,-1
 632 612 l 1,102,-1
 672 652 l 1,103,-1
 696 652 l 2,104,105
 719 652 719 652 728 660 c 128,-1,106
 737 668 737 668 772 669 c 2,107,-1
 806 670 l 1,108,109
 814 661 814 661 832 645 c 1,110,-1
 832 594 l 1,111,112
 820 583 820 583 798 561 c 1,113,114
 798 526 798 526 797 454 c 128,-1,115
 796 382 796 382 796 347 c 1,116,-1
 788 340 l 2,117,118
 781 333 781 333 781 300 c 0,119,120
 781 290 781 290 781.5 283.5 c 128,-1,121
 782 277 782 277 782 273 c 128,-1,122
 782 269 782 269 784 266 c 128,-1,123
 786 263 786 263 786 262 c 128,-1,124
 786 261 786 261 790.5 257 c 128,-1,125
 795 253 795 253 796 252 c 0,126,127
 796 219 796 219 797 153 c 128,-1,128
 798 87 798 87 798 54 c 1,129,-1
 815 37 l 2,130,131
 832 20 832 20 832 12 c 0,132,133
 832 3 832 3 840 -3 c 0,134,135
 848 -10 848 -10 848 -28 c 0,136,137
 848 -41 848 -41 845 -46.5 c 128,-1,138
 842 -52 842 -52 827 -67 c 0,139,140
 811 -82 811 -82 806 -85 c 128,-1,141
 801 -88 801 -88 790 -88 c 0,142,143
 773 -88 773 -88 765 -81 c 0,144,145
 758 -74 758 -74 746 -69 c 128,-1,146
 734 -64 734 -64 728 -60 c 0,147,148
 721 -55 721 -55 712.5 -54 c 128,-1,149
 704 -53 704 -53 663 -53 c 2,150,-1
 606 -53 l 1,151,-1
 595 -42 l 2,152,153
 584 -31 584 -31 584 -12 c 0,154,155
 584 1 584 1 586 6 c 128,-1,156
 588 11 588 11 597 19 c 0,157,158
 611 31 611 31 626 31 c 0,159,160
 642 31 642 31 653 42 c 0,161,162
 659 48 659 48 661 51 c 128,-1,163
 663 54 663 54 664 59 c 128,-1,164
 665 64 665 64 665 77 c 0,165,166
 665 102 665 102 674 110 c 2,167,-1
 682 118 l 1,168,-1
 684 230 l 1,169,-1
 684 282 l 2,170,171
 684 343 684 343 681 349 c 0,172,173
 678 356 678 356 659 356 c 0,174,175
 643 356 643 356 637.5 353 c 128,-1,176
 632 350 632 350 632 340 c 128,-1,177
 632 330 632 330 624 324 c 0,178,179
 616 316 616 316 616 300 c 128,-1,180
 616 284 616 284 608 276 c 0,181,182
 600 269 600 269 600 251 c 0,183,184
 600 234 600 234 592 227 c 0,185,186
 584 221 584 221 584 210 c 0,187,188
 584 204 584 204 576 194 c 128,-1,189
 568 184 568 184 568 178 c 128,-1,190
 568 172 568 172 560 161.5 c 128,-1,191
 552 151 552 151 552 145 c 128,-1,192
 552 139 552 139 544 128.5 c 128,-1,193
 536 118 536 118 536 112 c 128,-1,194
 536 106 536 106 528 95 c 128,-1,195
 520 84 520 84 520 78 c 0,196,197
 520 70 520 70 512 62 c 0,198,199
 504 55 504 55 504 38 c 0,200,201
 504 20 504 20 496 13 c 0,202,203
 488 7 488 7 488 -1 c 0,204,205
 488 -14 488 -14 482 -17.5 c 128,-1,206
 476 -21 476 -21 454 -21 c 2,207,-1
 427 -21 l 1,208,-1
 415 -9 l 2,209,210
 404 2 404 2 404 19 c 0,211,212
 404 34 404 34 396 43 c 0,213,214
 388 51 388 51 388 61 c 0,215,216
 388 69 388 69 372 85 c 0,217,218
 371 86 371 86 370 87 c 0,219,220
 360 97 360 97 357.5 101.5 c 128,-1,221
 355 106 355 106 355 117 c 0,222,223
 355 135 355 135 347 142 c 0,224,225
 341 147 341 147 337 160.5 c 128,-1,226
 333 174 333 174 328 178 c 0,227,228
 321 183 321 183 320 209 c 0,229,230
 319 236 319 236 312 244 c 0,231,232
 304 253 304 253 304 268 c 128,-1,233
 304 283 304 283 296 292 c 0,234,235
 288 300 288 300 288 309 c 0,236,237
 288 317 288 317 276 328.5 c 128,-1,238
 264 340 264 340 256 340 c 0,239,240
 245 340 245 340 242.5 331.5 c 128,-1,241
 240 323 240 323 240 283 c 0,242,243
 240 246 240 246 239 239 c 128,-1,244
 238 232 238 232 232 227 c 2,245,-1
 223 219 l 1,246,-1
 223 40 l 1,247,-1
 235 28 l 2,248,249
 243 19 243 19 247.5 17 c 128,-1,250
 252 15 252 15 264 15 c 0,251,252
 281 15 281 15 294 2 c 128,-1,253
 307 -11 307 -11 307 -20 c 0,254,255
 307 -30 307 -30 295 -42 c 2,256,-1
 283 -55 l 1,257,-1
 224 -56 l 2,258,259
 180 -57 180 -57 171 -58 c 128,-1,260
 162 -59 162 -59 157 -65 c 0,261,262
 150 -72 150 -72 141 -72 c 128,-1,263
 132 -72 132 -72 126 -80 c 0,264,265
 119 -88 119 -88 100 -88 c 0,266,267
 80 -88 80 -88 68 -76 c 2,268,-1
 56 -65 l 1,269,-1
 56 -37 l 2,270,271
 56 -9 56 -9 64 -1 c 0,272,273
 72 5 72 5 72 14 c 0,274,275
 72 21 72 21 98 47 c 2,276,-1
 124 73 l 1,277,-1
 124 252 l 1,278,-1
 132 259 l 1,279,-1
 140 267 l 1,280,-1
 140 401 l 2,0,1
EndSplineSet
EndChar

StartChar: N
Encoding: 78 78 27
Width: 857
GlyphClass: 2
Flags: W
LayerCount: 2
Fore
SplineSet
102 31 m 0,0,1
 108 31 108 31 118 39 c 128,-1,2
 128 47 128 47 133 47 c 0,3,4
 143 47 143 47 154 58 c 0,5,6
 165 68 165 68 165 85 c 2,7,-1
 165 94 l 2,8,9
 165 117 165 117 174 125 c 0,10,11
 182 132 182 132 182 156 c 0,12,13
 182 181 182 181 174 190 c 2,14,-1
 165 199 l 1,15,-1
 165 483 l 1,16,-1
 130 518 l 2,17,18
 95 553 95 553 85 553 c 0,19,20
 77 553 77 553 66 564 c 0,21,22
 58 572 58 572 57 577.5 c 128,-1,23
 56 583 56 583 56 608 c 0,24,25
 56 642 56 642 60 646 c 0,26,27
 63 649 63 649 135 649 c 2,28,-1
 207 649 l 1,29,-1
 282 573 l 2,30,31
 416 439 416 439 487 367 c 0,32,33
 574 280 574 280 596.5 259 c 128,-1,34
 619 238 619 238 626 238 c 2,35,-1
 627 238 l 2,36,37
 636 239 636 239 638.5 249.5 c 128,-1,38
 641 260 641 260 641 304 c 2,39,-1
 641 347 l 2,40,41
 640 434 640 434 634 441 c 0,42,43
 627 448 627 448 625 490 c 2,44,-1
 623 531 l 1,45,-1
 606 547 l 2,46,47
 583 569 583 569 562 569 c 0,48,49
 548 569 548 569 546 575 c 0,50,51
 543 581 543 581 516 582 c 0,52,53
 497 583 497 583 491.5 585 c 128,-1,54
 486 587 486 587 478 595 c 0,55,56
 467 606 467 606 466 622 c 2,57,-1
 466 631 l 2,58,59
 466 640 466 640 478 652 c 2,60,-1
 491 666 l 1,61,-1
 777 666 l 1,62,-1
 788 654 l 2,63,64
 800 641 800 641 800 623 c 0,65,66
 800 610 800 610 797.5 605.5 c 128,-1,67
 795 601 795 601 779 586 c 0,68,69
 759 566 759 566 751 566 c 128,-1,70
 743 566 743 566 732 555 c 2,71,-1
 721 545 l 1,72,73
 720 484 720 484 720 364 c 128,-1,74
 720 244 720 244 719 183 c 1,75,-1
 727 175 l 2,76,77
 736 167 736 167 736 122 c 2,78,-1
 736 82 l 2,79,80
 736 39 736 39 745 32 c 0,81,82
 752 27 752 27 752 8 c 0,83,84
 752 -4 752 -4 749.5 -10 c 128,-1,85
 747 -16 747 -16 743 -22.5 c 128,-1,86
 739 -29 739 -29 737 -36 c 2,87,-1
 734 -48 l 1,88,89
 724 -48 724 -48 705.5 -49 c 128,-1,90
 687 -50 687 -50 678 -50 c 1,91,-1
 667 -37 l 2,92,93
 655 -25 655 -25 655 -17 c 128,-1,94
 655 -9 655 -9 529.5 117 c 128,-1,95
 404 243 404 243 404 253 c 0,96,97
 404 262 404 262 381 284 c 0,98,99
 357 308 357 308 356 316 c 0,100,101
 353 327 353 327 319 361 c 0,102,103
 295 385 295 385 288 390 c 128,-1,104
 281 395 281 395 271 395 c 2,105,-1
 269 395 l 2,106,107
 252 395 252 395 249 388.5 c 128,-1,108
 246 382 246 382 246 346 c 2,109,-1
 246 333 l 2,110,111
 246 291 246 291 247 282.5 c 128,-1,112
 248 274 248 274 254 269 c 2,113,-1
 262 262 l 1,114,-1
 262 118 l 1,115,-1
 270 111 l 2,116,117
 278 103 278 103 278 88 c 0,118,119
 278 71 278 71 290 59 c 128,-1,120
 302 47 302 47 318 47 c 0,121,122
 335 47 335 47 342 39 c 128,-1,123
 349 31 349 31 365 31 c 0,124,125
 383 31 383 31 393.5 20 c 128,-1,126
 404 9 404 9 404 -9 c 2,127,-1
 404 -17 l 2,128,129
 404 -28 404 -28 394 -38 c 2,130,-1
 383 -49 l 1,131,-1
 94 -49 l 1,132,-1
 83 -38 l 2,133,134
 72 -27 72 -27 72 -9 c 128,-1,135
 72 9 72 9 83 20 c 128,-1,136
 94 31 94 31 102 31 c 0,0,1
EndSplineSet
EndChar

StartChar: O
Encoding: 79 79 28
Width: 751
GlyphClass: 2
Flags: W
LayerCount: 2
Fore
SplineSet
254 389 m 0,0,1
 254 373 254 373 251.5 369 c 128,-1,2
 249 365 249 365 238 359 c 1,3,-1
 238 212 l 1,4,-1
 228 201 l 2,5,6
 221 193 221 193 220 186.5 c 128,-1,7
 219 180 219 180 219 154 c 2,8,-1
 219 119 l 1,9,-1
 231 106 l 2,10,11
 241 94 241 94 256 91 c 0,12,13
 269 89 269 89 281 73 c 1,14,-1
 392 73 l 1,15,16
 425 107 425 107 493 173 c 1,17,-1
 493 192 l 2,18,19
 493 211 493 211 500 218 c 0,20,21
 506 222 506 222 510.5 236.5 c 128,-1,22
 515 251 515 251 520 256 c 0,23,24
 528 262 528 262 528 272 c 0,25,26
 528 281 528 281 538 291 c 2,27,-1
 547 302 l 1,28,-1
 547 465 l 1,29,-1
 538 473 l 2,30,31
 528 483 528 483 528 491 c 0,32,33
 528 501 528 501 497 532 c 0,34,35
 474 554 474 554 467.5 558 c 128,-1,36
 461 562 461 562 449 563 c 0,37,38
 429 564 429 564 407 564 c 0,39,40
 401 564 401 564 398 564 c 128,-1,41
 395 564 395 564 391.5 561.5 c 128,-1,42
 388 559 388 559 387 558.5 c 128,-1,43
 386 558 386 558 380.5 552 c 128,-1,44
 375 546 375 546 372 543 c 0,45,46
 356 527 356 527 347 527 c 0,47,48
 336 527 336 527 314.5 505.5 c 128,-1,49
 293 484 293 484 293 473 c 0,50,51
 293 465 293 465 283 455 c 0,52,53
 274 447 274 447 274 436 c 0,54,55
 274 426 274 426 264 417 c 128,-1,56
 254 408 254 408 254 389 c 0,0,1
641 162 m 0,57,58
 641 157 641 157 631 144 c 128,-1,59
 621 131 621 131 621 124 c 0,60,61
 621 114 621 114 590.5 83.5 c 128,-1,62
 560 53 560 53 548 51 c 128,-1,63
 536 49 536 49 493 4.5 c 128,-1,64
 450 -40 450 -40 440 -40 c 128,-1,65
 430 -40 430 -40 421 -49 c 2,66,-1
 411 -59 l 1,67,-1
 263 -59 l 1,68,-1
 255 -49 l 2,69,70
 247 -40 247 -40 227 -40 c 2,71,-1
 208 -40 l 1,72,-1
 171 -3 l 2,73,74
 135 34 135 34 125 34 c 128,-1,75
 115 34 115 34 102.5 47 c 128,-1,76
 90 60 90 60 90 70 c 0,77,78
 90 79 90 79 80 89 c 0,79,80
 73 96 73 96 72 101 c 128,-1,81
 71 106 71 106 71 128 c 0,82,83
 71 156 71 156 63 162 c 0,84,85
 57 166 57 166 55.5 171 c 128,-1,86
 54 176 54 176 54 203 c 2,87,-1
 54 251 l 1,88,-1
 55 321 l 1,89,-1
 63 328 l 2,90,91
 71 335 71 335 71 364 c 0,92,93
 71 385 71 385 72 390 c 128,-1,94
 73 395 73 395 80 401 c 0,95,96
 90 410 90 410 90 429 c 128,-1,97
 90 448 90 448 98 456 c 0,98,99
 105 463 105 463 107 474 c 0,100,101
 109 486 109 486 149 526 c 128,-1,102
 189 566 189 566 199 566 c 0,103,104
 208 566 208 566 245 603 c 128,-1,105
 282 640 282 640 291 640 c 128,-1,106
 300 640 300 640 317 657 c 0,107,108
 332 673 332 673 345 676 c 0,109,110
 357 678 357 678 364 686 c 0,111,112
 368 692 368 692 374 693 c 128,-1,113
 380 694 380 694 409 694 c 2,114,-1
 425 694 l 2,115,116
 449 694 449 694 459 685 c 0,117,118
 470 675 470 675 488 675 c 128,-1,119
 506 675 506 675 513 667 c 0,120,121
 521 659 521 659 529 659 c 0,122,123
 539 659 539 659 556 642 c 0,124,125
 575 625 575 625 587 622 c 0,126,127
 599 620 599 620 604 612 c 128,-1,128
 609 604 609 604 620 604 c 128,-1,129
 631 604 631 604 653 582 c 0,130,131
 671 564 671 564 673.5 559.5 c 128,-1,132
 676 555 676 555 676 542 c 0,133,134
 676 524 676 524 686 513 c 2,135,-1
 695 502 l 1,136,-1
 695 354 l 1,137,-1
 686 344 l 1,138,-1
 676 334 l 1,139,-1
 676 279 l 2,140,141
 676 238 676 238 675 230 c 128,-1,142
 674 222 674 222 668 217 c 0,143,144
 660 211 660 211 660 201 c 0,145,146
 660 196 660 196 650.5 182 c 128,-1,147
 641 168 641 168 641 162 c 0,57,58
EndSplineSet
EndChar

StartChar: P
Encoding: 80 80 29
Width: 647
GlyphClass: 2
Flags: W
LayerCount: 2
Fore
SplineSet
335 29 m 0,0,1
 341 29 341 29 351 21.5 c 128,-1,2
 361 14 361 14 366 14 c 0,3,4
 375 14 375 14 387 2 c 128,-1,5
 399 -10 399 -10 399 -21 c 0,6,7
 399 -33 399 -33 387 -45 c 2,8,-1
 374 -56 l 1,9,-1
 227 -56 l 2,10,11
 79 -56 79 -56 76 -53 c 128,-1,12
 73 -50 73 -50 73 -22 c 2,13,-1
 73 4 l 1,14,-1
 85 17 l 2,15,16
 96 29 96 29 105 29 c 0,17,18
 113 29 113 29 125 39 c 2,19,-1
 136 49 l 1,20,-1
 138 141 l 1,21,-1
 141 234 l 1,22,-1
 148 238 l 1,23,-1
 155 243 l 1,24,-1
 155 535 l 1,25,26
 140 548 140 548 138 560 c 128,-1,27
 136 572 136 572 127 573 c 0,28,29
 117 575 117 575 107 575 c 128,-1,30
 97 575 97 575 77 594 c 0,31,32
 57 614 57 614 57 624 c 0,33,34
 57 633 57 633 77 653 c 2,35,-1
 96 673 l 1,36,-1
 375 673 l 2,37,38
 376 672 376 672 378 669 c 128,-1,39
 380 666 380 666 381 665.5 c 128,-1,40
 382 665 382 665 383.5 663 c 128,-1,41
 385 661 385 661 386.5 660.5 c 128,-1,42
 388 660 388 660 390.5 659 c 128,-1,43
 393 658 393 658 396 658 c 128,-1,44
 399 658 399 658 403 658 c 128,-1,45
 407 658 407 658 413 658 c 0,46,47
 437 658 437 658 447 648 c 0,48,49
 456 639 456 639 466 639 c 0,50,51
 472 639 472 639 481.5 631.5 c 128,-1,52
 491 624 491 624 496 624 c 0,53,54
 505 624 505 624 548 581 c 2,55,-1
 591 537 l 1,56,-1
 591 387 l 2,57,58
 590 386 590 386 587 383.5 c 128,-1,59
 584 381 584 381 583 380 c 128,-1,60
 582 379 582 379 580 376.5 c 128,-1,61
 578 374 578 374 577.5 372 c 128,-1,62
 577 370 577 370 576.5 366 c 128,-1,63
 576 362 576 362 576 357 c 0,64,65
 576 340 576 340 569 334 c 0,66,67
 561 328 561 328 561 318 c 128,-1,68
 561 308 561 308 540.5 287.5 c 128,-1,69
 520 267 520 267 510 267 c 0,70,71
 501 267 501 267 488 252 c 1,72,-1
 415 252 l 2,73,74
 352 252 352 252 342 255 c 128,-1,75
 332 258 332 258 332 277 c 0,76,77
 332 291 332 291 344 303 c 0,78,79
 357 316 357 316 365 317 c 0,80,81
 371 318 371 318 381 326 c 128,-1,82
 391 334 391 334 398 334 c 0,83,84
 407 334 407 334 418.5 345 c 128,-1,85
 430 356 430 356 430 365 c 0,86,87
 430 376 430 376 445 387 c 1,88,-1
 445 504 l 1,89,-1
 416 532 l 2,90,91
 388 560 388 560 379 560 c 128,-1,92
 370 560 370 560 364 568 c 0,93,94
 358 575 358 575 335 575 c 0,95,96
 331 575 331 575 326 575.5 c 128,-1,97
 321 576 321 576 319 576 c 0,98,99
 308 576 308 576 305 559 c 128,-1,100
 302 542 302 542 302 473 c 2,101,-1
 302 348 l 1,102,-1
 302 127 l 2,103,104
 301 126 301 126 298 125 c 128,-1,105
 295 124 295 124 294.5 123.5 c 128,-1,106
 294 123 294 123 292 121.5 c 128,-1,107
 290 120 290 120 289.5 119.5 c 128,-1,108
 289 119 289 119 288 117 c 128,-1,109
 287 115 287 115 287 113 c 128,-1,110
 287 111 287 111 286.5 108 c 128,-1,111
 286 105 286 105 286 101.5 c 128,-1,112
 286 98 286 98 286 93 c 2,113,-1
 286 68 l 1,114,-1
 306 48 l 2,115,116
 326 29 326 29 335 29 c 0,0,1
EndSplineSet
EndChar

StartChar: Q
Encoding: 81 81 30
Width: 1058
GlyphClass: 2
Flags: W
LayerCount: 2
Fore
SplineSet
431 157 m 0,0,1
 431 167 431 167 438.5 185 c 128,-1,2
 446 203 446 203 446 214 c 0,3,4
 446 229 446 229 451 234 c 0,5,6
 457 238 457 238 457 304 c 0,7,8
 457 368 457 368 451 373 c 0,9,10
 446 377 446 377 446 403 c 0,11,12
 446 427 446 427 439 438 c 0,13,14
 431 450 431 450 431 464 c 0,15,16
 431 479 431 479 411 506 c 128,-1,17
 391 533 391 533 385 533 c 0,18,19
 380 533 380 533 368 547 c 128,-1,20
 356 561 356 561 355 562 c 0,21,22
 349 565 349 565 314 565 c 0,23,24
 286 565 286 565 280 564 c 128,-1,25
 274 563 274 563 268 556 c 0,26,27
 259 547 259 547 253 547 c 0,28,29
 249 547 249 547 243 540 c 128,-1,30
 237 533 237 533 232 533 c 128,-1,31
 227 533 227 533 212 514 c 128,-1,32
 197 495 197 495 197 488 c 0,33,34
 197 485 197 485 189.5 469.5 c 128,-1,35
 182 454 182 454 182 449 c 0,36,37
 182 440 182 440 177 437 c 0,38,39
 172 432 172 432 172 416 c 128,-1,40
 172 400 172 400 166 392 c 0,41,42
 161 385 161 385 161 362 c 128,-1,43
 161 339 161 339 154 328 c 0,44,45
 147 316 147 316 147 257 c 128,-1,46
 147 198 147 198 154 186 c 0,47,48
 161 176 161 176 161 168 c 0,49,50
 161 162 161 162 178 139 c 0,51,52
 181 135 181 135 214 90 c 0,53,54
 234 62 234 62 244 61 c 0,55,56
 253 59 253 59 255 52 c 128,-1,57
 257 45 257 45 307 45 c 0,58,59
 356 45 356 45 361 52 c 0,60,61
 364 58 364 58 375 60 c 0,62,63
 382 61 382 61 392 76 c 0,64,65
 394 78 394 78 402.5 89 c 128,-1,66
 411 100 411 100 416 109 c 128,-1,67
 421 118 421 118 421 125 c 0,68,69
 421 135 421 135 426 138 c 128,-1,70
 431 141 431 141 431 157 c 0,0,1
198 632 m 128,-1,72
 201 632 201 632 206.5 639.5 c 128,-1,73
 212 647 212 647 216 647 c 0,74,75
 222 647 222 647 231 656 c 0,76,77
 238 664 238 664 268 664 c 128,-1,78
 298 664 298 664 303 672 c 0,79,80
 308 679 308 679 326 679 c 128,-1,81
 344 679 344 679 351 672 c 0,82,83
 359 664 359 664 368 664 c 0,84,85
 380 664 380 664 387 656 c 0,86,87
 396 647 396 647 407 647 c 0,88,89
 420 647 420 647 424 640 c 0,90,91
 429 632 429 632 440 632 c 0,92,93
 452 632 452 632 459 624 c 0,94,95
 466 615 466 615 474 615 c 0,96,97
 481 615 481 615 481 612 c 0,98,99
 481 608 481 608 501 583 c 0,100,101
 520 559 520 559 520 550 c 0,102,103
 520 543 520 543 538 520 c 0,104,105
 556 496 556 496 556 480 c 128,-1,106
 556 464 556 464 561 457 c 0,107,108
 567 450 567 450 567 417 c 0,109,110
 567 386 567 386 573 379 c 128,-1,111
 579 372 579 372 579 330 c 128,-1,112
 579 288 579 288 573 280 c 128,-1,113
 567 272 567 272 567 239 c 128,-1,114
 567 206 567 206 561 202 c 0,115,116
 556 199 556 199 556 188 c 0,117,118
 556 179 556 179 538 154 c 0,119,120
 520 131 520 131 520 125 c 0,121,122
 520 120 520 120 511.5 104 c 128,-1,123
 503 88 503 88 500 88 c 128,-1,124
 497 88 497 88 488 73 c 0,125,126
 479 59 479 59 471 57 c 0,127,128
 460 55 460 55 457 48 c 0,129,130
 454 42 454 42 446 42 c 0,131,132
 439 42 439 42 432 31 c 0,133,134
 424 20 424 20 424 -5 c 0,135,136
 424 -22 424 -22 425.5 -26 c 128,-1,137
 427 -30 427 -30 434 -33 c 0,138,139
 445 -37 445 -37 448 -44 c 0,140,141
 453 -51 453 -51 460 -51 c 0,142,143
 466 -51 466 -51 472 -59 c 0,144,145
 488 -83 488 -83 504 -83 c 0,146,147
 516 -83 516 -83 520 -90 c 128,-1,148
 524 -97 524 -97 531 -97 c 0,149,150
 536 -97 536 -97 541.5 -104 c 128,-1,151
 547 -111 547 -111 551 -111 c 128,-1,152
 555 -111 555 -111 566 -120 c 128,-1,153
 577 -129 577 -129 588 -129 c 128,-1,154
 599 -129 599 -129 602 -136 c 0,155,156
 606 -143 606 -143 624 -143 c 128,-1,157
 642 -143 642 -143 651 -152 c 128,-1,158
 660 -161 660 -161 665 -161 c 0,159,160
 668 -161 668 -161 675 -168 c 0,161,162
 683 -176 683 -176 723 -176 c 0,163,164
 753 -176 753 -176 759.5 -177 c 128,-1,165
 766 -178 766 -178 770 -183 c 0,166,167
 775 -190 775 -190 798 -190 c 2,168,-1
 818 -190 l 2,169,170
 860 -189 860 -189 865 -182 c 0,171,172
 870 -176 870 -176 882 -176 c 0,173,174
 893 -176 893 -176 898 -169 c 128,-1,175
 903 -162 903 -162 934 -161 c 128,-1,176
 965 -160 965 -160 971 -151 c 0,177,178
 977 -143 977 -143 989 -143 c 2,179,-1
 1001 -143 l 1,180,-1
 1001 -215 l 1,181,-1
 988 -215 l 2,182,183
 976 -215 976 -215 972 -222 c 128,-1,184
 968 -229 968 -229 949 -229 c 128,-1,185
 930 -229 930 -229 926 -236 c 128,-1,186
 922 -243 922 -243 916 -243 c 0,187,188
 912 -243 912 -243 902.5 -252 c 128,-1,189
 893 -261 893 -261 890 -261 c 0,190,191
 885 -261 885 -261 878 -268 c 128,-1,192
 871 -275 871 -275 855 -275 c 128,-1,193
 839 -275 839 -275 830 -284 c 2,194,-1
 822 -293 l 1,195,-1
 656 -293 l 1,196,-1
 648 -284 l 2,197,198
 640 -275 640 -275 611 -275 c 0,199,200
 580 -275 580 -275 577 -268 c 128,-1,201
 574 -261 574 -261 567 -261 c 128,-1,202
 560 -261 560 -261 553 -252 c 0,203,204
 544 -243 544 -243 533 -243 c 0,205,206
 521 -243 521 -243 517 -236 c 0,207,208
 514 -229 514 -229 507 -229 c 0,209,210
 503 -229 503 -229 493 -220 c 128,-1,211
 483 -211 483 -211 478 -211 c 0,212,213
 474 -211 474 -211 467.5 -204 c 128,-1,214
 461 -197 461 -197 456 -197 c 0,215,216
 450 -197 450 -197 446 -190 c 0,217,218
 442 -182 442 -182 433 -180 c 0,219,220
 423 -178 423 -178 420 -172 c 0,221,222
 416 -165 416 -165 412 -165 c 0,223,224
 409 -165 409 -165 396 -156 c 128,-1,225
 383 -147 383 -147 381 -147 c 0,226,227
 378 -147 378 -147 366 -133 c 128,-1,228
 354 -119 354 -119 351 -119 c 0,229,230
 345 -119 345 -119 338 -110 c 0,231,232
 330 -101 330 -101 319 -101 c 0,233,234
 306 -101 306 -101 297 -87 c 0,235,236
 287 -71 287 -71 278 -70 c 0,237,238
 268 -68 268 -68 266 -62 c 0,239,240
 263 -52 263 -52 253 -44.5 c 128,-1,241
 243 -37 243 -37 234 -37 c 0,242,243
 224 -37 224 -37 217.5 -29.5 c 128,-1,244
 211 -22 211 -22 202 -22 c 0,245,246
 189 -22 189 -22 183 -15 c 0,247,248
 176 -8 176 -8 169 -6 c 0,249,250
 164 -4 164 -4 141.5 24 c 128,-1,251
 119 52 119 52 104 74 c 0,252,253
 86 99 86 99 86 106 c 0,254,255
 86 112 86 112 73.5 131 c 128,-1,256
 61 150 61 150 61 156 c 0,257,258
 61 166 61 166 58 168 c 0,259,260
 54 172 54 172 54 312 c 128,-1,261
 54 452 54 452 58 456 c 0,262,263
 61 458 61 458 61 468 c 0,264,265
 61 474 61 474 73.5 494 c 128,-1,266
 86 514 86 514 86 519 c 0,267,268
 86 527 86 527 94 538.5 c 128,-1,269
 102 550 102 550 109 551 c 0,270,271
 113 552 113 552 138.5 582.5 c 128,-1,272
 164 613 164 613 167 614 c 0,273,274
 169 615 169 615 182 623.5 c 128,-1,71
 195 632 195 632 198 632 c 128,-1,72
EndSplineSet
EndChar

StartChar: R
Encoding: 82 82 31
Width: 841
GlyphClass: 2
Flags: W
LayerCount: 2
Fore
SplineSet
409 515 m 2,0,-1
 390 534 l 1,1,-1
 323 534 l 1,2,-1
 312 522 l 1,3,-1
 300 511 l 1,4,-1
 300 420 l 2,5,6
 300 330 300 330 303 328 c 0,7,8
 307 326 307 326 340 326 c 128,-1,9
 373 326 373 326 382 334 c 0,10,11
 392 342 392 342 398 342 c 0,12,13
 406 342 406 342 417.5 353.5 c 128,-1,14
 429 365 429 365 430 375 c 0,15,16
 432 386 432 386 439 391 c 0,17,18
 445 396 445 396 445 422 c 0,19,20
 445 449 445 449 437 456 c 128,-1,21
 429 463 429 463 429 480 c 0,22,23
 429 492 429 492 426.5 496 c 128,-1,24
 424 500 424 500 409 515 c 2,0,-1
590 -31 m 0,25,26
 584 -31 584 -31 574 -23 c 128,-1,27
 564 -15 564 -15 559 -15 c 0,28,29
 551 -15 551 -15 538.5 -2.5 c 128,-1,30
 526 10 526 10 526 18 c 0,31,32
 526 25 526 25 494 58 c 0,33,34
 464 90 464 90 461 101 c 0,35,36
 460 110 460 110 453 116 c 128,-1,37
 446 122 446 122 445 131 c 0,38,39
 442 143 442 143 428 157 c 0,40,41
 417 168 417 168 415 172.5 c 128,-1,42
 413 177 413 177 413 189 c 0,43,44
 413 207 413 207 406 214 c 0,45,46
 398 222 398 222 398 229 c 0,47,48
 398 241 398 241 391 243.5 c 128,-1,49
 384 246 384 246 349 246 c 0,50,51
 306 246 306 246 303 241 c 0,52,53
 300 238 300 238 300 189 c 0,54,55
 300 141 300 141 308 132 c 0,56,57
 316 124 316 124 316 102 c 0,58,59
 316 79 316 79 323 71 c 0,60,61
 328 65 328 65 333 50 c 2,62,-1
 336 38 l 1,63,-1
 355 37 l 2,64,65
 369 35 369 35 374 32.5 c 128,-1,66
 379 30 379 30 393 16 c 0,67,68
 413 -3 413 -3 413 -13 c 128,-1,69
 413 -23 413 -23 393 -43 c 2,70,-1
 373 -63 l 1,71,-1
 236 -65 l 1,72,-1
 98 -68 l 1,73,-1
 77 -47 l 2,74,75
 56 -26 56 -26 56 -16 c 128,-1,76
 56 -6 56 -6 76 14 c 128,-1,77
 96 34 96 34 104 34 c 0,78,79
 113 34 113 34 130 51 c 0,80,81
 148 67 148 67 151 72 c 128,-1,82
 154 77 154 77 154 90 c 0,83,84
 154 104 154 104 162 113 c 2,85,-1
 170 121 l 1,86,-1
 170 493 l 1,87,-1
 151 511 l 2,88,89
 131 529 131 529 124 538 c 0,90,91
 117 546 117 546 106 546 c 0,92,93
 94 546 94 546 90.5 554.5 c 128,-1,94
 87 563 87 563 87 590 c 2,95,-1
 87 621 l 1,96,-1
 116 650 l 1,97,-1
 437 650 l 1,98,-1
 446 642 l 2,99,100
 453 635 453 635 468 635 c 0,101,102
 481 635 481 635 494 625 c 0,103,104
 505 616 505 616 513 616 c 128,-1,105
 521 616 521 616 548 589 c 0,106,107
 568 569 568 569 571.5 563.5 c 128,-1,108
 575 558 575 558 575 546 c 0,109,110
 575 531 575 531 584 521 c 0,111,112
 591 513 591 513 591 495 c 2,113,-1
 591 470 l 2,114,115
 590 440 590 440 589 433.5 c 128,-1,116
 588 427 588 427 583 421 c 0,117,118
 575 412 575 412 575 397 c 128,-1,119
 575 382 575 382 567 375 c 0,120,121
 560 369 560 369 560 360 c 0,122,123
 560 352 560 352 543 334 c 2,124,-1
 526 317 l 1,125,-1
 526 254 l 1,126,-1
 543 237 l 2,127,128
 560 219 560 219 560 211 c 128,-1,129
 560 203 560 203 575 189 c 0,130,131
 589 178 589 178 592 165 c 0,132,133
 593 155 593 155 603.5 144.5 c 128,-1,134
 614 134 614 134 622 134 c 0,135,136
 637 134 637 134 641 117 c 0,137,138
 644 106 644 106 670 80.5 c 128,-1,139
 696 55 696 55 704 55 c 128,-1,140
 712 55 712 55 721 46 c 128,-1,141
 730 37 730 37 747 37 c 128,-1,142
 764 37 764 37 775 26 c 2,143,-1
 787 15 l 1,144,-1
 787 -13 l 2,145,146
 787 -36 787 -36 783.5 -42.5 c 128,-1,147
 780 -49 780 -49 768 -49 c 0,148,149
 760 -49 760 -49 753 -56 c 0,150,151
 746 -64 746 -64 722 -64 c 0,152,153
 697 -64 697 -64 688 -56 c 0,154,155
 680 -49 680 -49 646 -47 c 128,-1,156
 612 -45 612 -45 605 -38 c 128,-1,157
 598 -31 598 -31 590 -31 c 0,25,26
EndSplineSet
EndChar

StartChar: S
Encoding: 83 83 32
Width: 584
GlyphClass: 2
Flags: W
LayerCount: 2
Fore
SplineSet
242 644 m 0,0,1
 253 644 253 644 258 646 c 128,-1,2
 263 648 263 648 264 649.5 c 128,-1,3
 265 651 265 651 269 659 c 1,4,-1
 390 659 l 1,5,-1
 397 651 l 2,6,7
 403 644 403 644 429 644 c 2,8,-1
 453 644 l 1,9,10
 491 606 491 606 510 586 c 1,11,-1
 510 544 l 2,12,13
 510 502 510 502 506 498 c 128,-1,14
 502 494 502 494 484 494 c 2,15,-1
 466 494 l 1,16,-1
 402 558 l 1,17,-1
 277 558 l 1,18,-1
 265 546 l 1,19,-1
 254 533 l 1,20,-1
 254 496 l 2,21,22
 254 458 254 458 261 449 c 0,23,24
 269 439 269 439 269 434 c 0,25,26
 269 428 269 428 275 421.5 c 128,-1,27
 281 415 281 415 287 415 c 0,28,29
 292 415 292 415 303 407.5 c 128,-1,30
 314 400 314 400 320 400 c 0,31,32
 328 400 328 400 342 385 c 0,33,34
 354 371 354 371 366 368 c 0,35,36
 377 366 377 366 443 298 c 0,37,38
 510 229 510 229 510 225 c 0,39,40
 510 217 510 217 519 206 c 0,41,42
 526 197 526 197 527 191.5 c 128,-1,43
 528 186 528 186 528 162 c 0,44,45
 528 129 528 129 521 123 c 0,46,47
 513 116 513 116 513 82 c 0,48,49
 513 49 513 49 505 42 c 0,50,51
 498 36 498 36 498 27 c 0,52,53
 498 17 498 17 469.5 -11.5 c 128,-1,54
 441 -40 441 -40 431 -40 c 0,55,56
 422 -40 422 -40 416 -47 c 0,57,58
 411 -52 411 -52 404 -53.5 c 128,-1,59
 397 -55 397 -55 368 -55 c 128,-1,60
 339 -55 339 -55 332.5 -56 c 128,-1,61
 326 -57 326 -57 320 -63 c 0,62,63
 315 -68 315 -68 305.5 -69 c 128,-1,64
 296 -70 296 -70 247 -72 c 2,65,-1
 181 -74 l 1,66,-1
 172 -64 l 2,67,68
 162 -55 162 -55 145 -55 c 2,69,-1
 129 -55 l 1,70,-1
 55 19 l 1,71,72
 56 38 56 38 56 76 c 128,-1,73
 56 114 56 114 57 133 c 1,74,-1
 65 143 l 2,75,76
 74 152 74 152 74 160 c 0,77,78
 74 169 74 169 80 171.5 c 128,-1,79
 86 174 86 174 107 174 c 2,80,-1
 133 174 l 1,81,-1
 145 162 l 2,82,83
 156 151 156 151 156 135 c 0,84,85
 156 123 156 123 164 112.5 c 128,-1,86
 172 102 172 102 173 94 c 0,87,88
 176 82 176 82 201 57 c 2,89,-1
 228 31 l 1,90,-1
 342 31 l 1,91,92
 356 44 356 44 382 70 c 1,93,-1
 382 116 l 2,94,95
 382 160 382 160 374 170 c 0,96,97
 367 179 367 179 365 188 c 0,98,99
 364 197 364 197 352.5 208.5 c 128,-1,100
 341 220 341 220 334 220 c 0,101,102
 328 220 328 220 319 227 c 0,103,104
 313 232 313 232 301 236 c 128,-1,105
 289 240 289 240 283 246 c 0,106,107
 276 253 276 253 266 253 c 0,108,109
 261 253 261 253 251.5 260.5 c 128,-1,110
 242 268 242 268 236 268 c 128,-1,111
 230 268 230 268 220 276 c 128,-1,112
 210 284 210 284 204 284 c 0,113,114
 195 284 195 284 174 305 c 128,-1,115
 153 326 153 326 153 335 c 128,-1,116
 153 344 153 344 145 350 c 0,117,118
 138 356 138 356 138 374 c 0,119,120
 138 389 138 389 130 397 c 0,121,122
 125 402 125 402 124 410.5 c 128,-1,123
 123 419 123 419 122 462 c 2,124,-1
 121 520 l 1,125,-1
 129 531 l 2,126,127
 138 540 138 540 138 548 c 0,128,129
 138 553 138 553 145.5 562.5 c 128,-1,130
 153 572 153 572 153 578 c 0,131,132
 153 588 153 588 174 608 c 128,-1,133
 195 628 195 628 205 628 c 0,134,135
 214 628 214 628 219 636 c 128,-1,136
 224 644 224 644 242 644 c 0,0,1
EndSplineSet
EndChar

StartChar: T
Encoding: 84 84 33
Width: 847
GlyphClass: 2
Flags: W
LayerCount: 2
Fore
SplineSet
164 24 m 0,0,1
 170 24 170 24 179 32 c 128,-1,2
 188 40 188 40 192 40 c 0,3,4
 209 40 209 40 212 58 c 0,5,6
 214 71 214 71 221 75 c 128,-1,7
 228 79 228 79 228 88 c 0,8,9
 228 98 228 98 238 108 c 0,10,11
 247 118 247 118 247 134 c 0,12,13
 247 151 247 151 256 161 c 128,-1,14
 265 171 265 171 265 197 c 0,15,16
 265 222 265 222 273 228 c 128,-1,17
 281 234 281 234 282 254 c 0,18,19
 285 275 285 275 291 281 c 0,20,21
 299 287 299 287 299 297 c 0,22,23
 299 306 299 306 308 314 c 128,-1,24
 317 322 317 322 317 340 c 0,25,26
 317 359 317 359 326 367 c 2,27,-1
 335 375 l 1,28,-1
 335 424 l 2,29,30
 335 474 335 474 332 479 c 0,31,32
 328 485 328 485 262 485 c 0,33,34
 194 485 194 485 188 482 c 0,35,36
 183 480 183 480 183 470 c 0,37,38
 183 464 183 464 173 450 c 0,39,40
 164 439 164 439 164 414 c 0,41,42
 164 388 164 388 161 385 c 0,43,44
 157 381 157 381 118 381 c 0,45,46
 80 381 80 381 76 387 c 0,47,48
 73 392 73 392 73 401 c 0,49,50
 73 407 73 407 64 416 c 0,51,52
 56 424 56 424 56 444 c 0,53,54
 56 463 56 463 65 471 c 0,55,56
 73 479 73 479 73 488 c 128,-1,57
 73 497 73 497 121 545 c 2,58,-1
 169 592 l 1,59,-1
 203 592 l 2,60,61
 228 592 228 592 234 593 c 128,-1,62
 240 594 240 594 247 601 c 2,63,-1
 257 610 l 1,64,-1
 417 610 l 1,65,-1
 425 601 l 2,66,67
 431 594 431 594 436 593 c 128,-1,68
 441 592 441 592 465 592 c 0,69,70
 488 592 488 592 494 593 c 128,-1,71
 500 594 500 594 507 601 c 2,72,-1
 518 610 l 1,73,-1
 672 610 l 1,74,-1
 697 636 l 2,75,76
 715 655 715 655 720 658.5 c 128,-1,77
 725 662 725 662 734 662 c 0,78,79
 748 662 748 662 760 650 c 0,80,81
 773 637 773 637 774 625 c 0,82,83
 776 613 776 613 782 609 c 0,84,85
 790 603 790 603 790 574 c 2,86,-1
 790 544 l 1,87,88
 760 514 760 514 745 500 c 1,89,-1
 517 500 l 1,90,-1
 497 481 l 2,91,92
 478 461 478 461 476 450 c 0,93,94
 475 441 475 441 467.5 433.5 c 128,-1,95
 460 426 460 426 460 412 c 0,96,97
 460 394 460 394 451 384 c 0,98,99
 442 375 442 375 442 357 c 0,100,101
 442 338 442 338 433 330 c 0,102,103
 426 324 426 324 425 319 c 128,-1,104
 424 314 424 314 424 294 c 128,-1,105
 424 274 424 274 422.5 269 c 128,-1,106
 421 264 421 264 416 261 c 128,-1,107
 411 258 411 258 407 243.5 c 128,-1,108
 403 229 403 229 398 225 c 0,109,110
 390 219 390 219 390 201 c 128,-1,111
 390 183 390 183 381 174 c 2,112,-1
 372 164 l 1,113,-1
 372 49 l 1,114,-1
 390 31 l 2,115,116
 408 14 408 14 408 2 c 0,117,118
 408 -8 408 -8 395 -21 c 2,119,-1
 377 -39 l 2,120,121
 369 -47 369 -47 369 -47 c 2,122,123
 365 -52 365 -52 258 -52 c 128,-1,124
 151 -52 151 -52 147 -48 c 128,-1,125
 143 -44 143 -44 143 -15 c 0,126,127
 143 15 143 15 150 20 c 0,128,129
 155 24 155 24 164 24 c 0,0,1
EndSplineSet
EndChar

StartChar: U
Encoding: 85 85 34
Width: 764
GlyphClass: 2
Flags: W
LayerCount: 2
Fore
SplineSet
126 735 m 0,0,1
 144 738 144 738 162 738 c 0,2,3
 208 736 208 736 219 714 c 0,4,5
 231 688 231 688 233.5 422 c 128,-1,6
 236 156 236 156 247 129 c 0,7,8
 256 107 256 107 277 94 c 128,-1,9
 298 81 298 81 324 81 c 0,10,11
 348 81 348 81 372 93 c 0,12,13
 404 110 404 110 414 138 c 0,14,15
 424 167 424 167 424 357 c 128,-1,16
 424 547 424 547 414 567 c 0,17,18
 410 576 410 576 397 584 c 0,19,20
 380 594 380 594 376 604.5 c 128,-1,21
 372 615 372 615 372 656 c 0,22,23
 372 692 372 692 373 699 c 128,-1,24
 374 706 374 706 380 713 c 0,25,26
 402 735 402 735 488 737 c 0,27,28
 551 737 551 737 572 719 c 0,29,30
 582 710 582 710 587 682 c 0,31,32
 596 632 596 632 602 323 c 2,33,-1
 605 124 l 1,34,-1
 636 91 l 2,35,36
 688 36 688 36 695 28 c 2,37,-1
 708 12 l 1,38,-1
 679 -24 l 2,39,40
 647 -64 647 -64 627 -80 c 128,-1,41
 607 -96 607 -96 585 -99 c 0,42,43
 573 -100 573 -100 557 -116 c 128,-1,44
 541 -132 541 -132 527 -132 c 0,45,46
 495 -132 495 -132 462 -102 c 0,47,48
 423 -68 423 -68 387 -65 c 2,49,-1
 376 -65 l 2,50,51
 350 -65 350 -65 344 -79 c 0,52,53
 338 -94 338 -94 258 -97 c 2,54,-1
 231 -97 l 2,55,56
 170 -97 170 -97 149 -83 c 0,57,58
 139 -76 139 -76 109 -39 c 2,59,-1
 80 -2 l 1,60,-1
 80 202 l 2,61,62
 80 590 80 590 61 635 c 0,63,64
 56 648 56 648 56 659 c 0,65,66
 56 685 56 685 75 706.5 c 128,-1,67
 94 728 94 728 126 735 c 0,0,1
EndSplineSet
EndChar

StartChar: V
Encoding: 86 86 35
Width: 798
GlyphClass: 2
Flags: W
LayerCount: 2
Fore
SplineSet
184 401 m 0,0,1
 184 405 184 405 175.5 418 c 128,-1,2
 167 431 167 431 167 436 c 0,3,4
 167 444 167 444 159 449 c 0,5,6
 152 454 152 454 152 471 c 0,7,8
 152 489 152 489 144 497 c 0,9,10
 135 506 135 506 135 513 c 0,11,12
 135 521 135 521 116.5 539.5 c 128,-1,13
 98 558 98 558 88 559 c 0,14,15
 79 560 79 560 67 572 c 2,16,-1
 56 583 l 1,17,-1
 56 634 l 1,18,-1
 67 646 l 1,19,-1
 79 657 l 1,20,-1
 192 658 l 1,21,-1
 305 658 l 1,22,-1
 316 646 l 2,23,24
 330 630 330 630 330 614 c 0,25,26
 330 610 330 610 328 602 c 0,27,28
 326 593 326 593 314 591 c 128,-1,29
 302 589 302 589 295 582 c 0,30,31
 287 574 287 574 279 574 c 0,32,33
 269 574 269 574 266.5 568 c 128,-1,34
 264 562 264 562 264 537 c 0,35,36
 264 514 264 514 265 509 c 128,-1,37
 266 504 266 504 273 498 c 0,38,39
 281 490 281 490 281 481 c 0,40,41
 281 474 281 474 288.5 467 c 128,-1,42
 296 460 296 460 296 453 c 0,43,44
 296 443 296 443 304 434 c 0,45,46
 313 424 313 424 313 410 c 0,47,48
 313 400 313 400 315 395.5 c 128,-1,49
 317 391 317 391 329 379 c 0,50,51
 345 363 345 363 345 354 c 128,-1,52
 345 345 345 345 352 341 c 0,53,54
 357 337 357 337 358 332 c 128,-1,55
 359 327 359 327 359 303 c 128,-1,56
 359 279 359 279 360 274 c 128,-1,57
 361 269 361 269 368 262 c 0,58,59
 376 252 376 252 376 245 c 0,60,61
 376 236 376 236 383 230 c 0,62,63
 391 224 391 224 391 216 c 0,64,65
 391 207 391 207 395.5 204 c 128,-1,66
 400 201 400 201 414 201 c 0,67,68
 427 201 427 201 431.5 204 c 128,-1,69
 436 207 436 207 436 217 c 0,70,71
 436 226 436 226 444 231 c 0,72,73
 451 236 451 236 451 252 c 0,74,75
 451 269 451 269 459 278 c 0,76,77
 468 288 468 288 468 302 c 0,78,79
 468 318 468 318 475 324 c 128,-1,80
 482 330 482 330 482 346 c 0,81,82
 482 356 482 356 491 372 c 128,-1,83
 500 388 500 388 500 398 c 0,84,85
 500 413 500 413 507 419 c 0,86,87
 514 426 514 426 514 434 c 0,88,89
 514 443 514 443 521 450 c 0,90,91
 526 455 526 455 529.5 467.5 c 128,-1,92
 533 480 533 480 539 484 c 0,93,94
 544 487 544 487 545 493 c 128,-1,95
 546 499 546 499 546 528 c 2,96,-1
 546 568 l 1,97,-1
 533 580 l 2,98,99
 519 592 519 592 512 592 c 0,100,101
 504 592 504 592 494 603 c 0,102,103
 482 615 482 615 482 624 c 128,-1,104
 482 633 482 633 495 646 c 2,105,-1
 507 658 l 1,106,-1
 704 658 l 1,107,108
 712 643 712 643 722 643 c 0,109,110
 733 643 733 643 737 637.5 c 128,-1,111
 741 632 741 632 741 617 c 0,112,113
 741 600 741 600 729 587 c 0,114,115
 716 574 716 574 707 574 c 0,116,117
 699 574 699 574 693 567 c 0,118,119
 689 560 689 560 676 558 c 0,120,121
 665 556 665 556 655 546.5 c 128,-1,122
 645 537 645 537 644 527 c 0,123,124
 642 517 642 517 636 512 c 0,125,126
 629 508 629 508 629 498 c 0,127,128
 629 489 629 489 620 480 c 0,129,130
 612 471 612 471 612 454 c 128,-1,131
 612 437 612 437 604 432 c 0,132,133
 597 427 597 427 597 411 c 0,134,135
 597 394 597 394 589 385 c 0,136,137
 580 375 580 375 580 361 c 0,138,139
 580 345 580 345 573 339 c 0,140,141
 566 332 566 332 566 324 c 0,142,143
 566 318 566 318 557 307 c 128,-1,144
 548 296 548 296 548 290 c 0,145,146
 548 283 548 283 541 276 c 0,147,148
 534 270 534 270 534 253 c 0,149,150
 534 237 534 237 526 228 c 0,151,152
 517 218 517 218 517 203 c 0,153,154
 517 192 517 192 514.5 188 c 128,-1,155
 512 184 512 184 502 173 c 0,156,157
 491 162 491 162 489 157.5 c 128,-1,158
 487 153 487 153 486 141 c 0,159,160
 485 123 485 123 478 117 c 128,-1,161
 471 111 471 111 471 102 c 0,162,163
 471 92 471 92 464 88 c 0,164,165
 457 83 457 83 456 65 c 128,-1,166
 455 47 455 47 447 38 c 0,167,168
 439 30 439 30 439 14 c 128,-1,169
 439 -2 439 -2 432 -9 c 128,-1,170
 425 -16 425 -16 425 -23 c 256,171,172
 425 -30 425 -30 413 -44 c 0,173,174
 401 -57 401 -57 391 -57 c 2,175,-1
 388 -57 l 2,176,177
 381 -57 381 -57 376.5 -54 c 128,-1,178
 372 -51 372 -51 357 -34 c 0,179,180
 339 -15 339 -15 339 -7 c 0,181,182
 339 -2 339 -2 331.5 7 c 128,-1,183
 324 16 324 16 324 22 c 0,184,185
 324 31 324 31 317 38 c 0,186,187
 308 47 308 47 308 71 c 128,-1,188
 308 95 308 95 300 102 c 0,189,190
 293 109 293 109 293 119 c 0,191,192
 293 126 293 126 286 133 c 128,-1,193
 279 140 279 140 279 146 c 0,194,195
 279 154 279 154 270 165 c 0,196,197
 261 175 261 175 261 190 c 0,198,199
 261 202 261 202 259 206 c 128,-1,200
 257 210 257 210 246 221 c 0,201,202
 230 237 230 237 230 245 c 0,203,204
 230 252 230 252 223 259 c 128,-1,205
 216 266 216 266 215 283 c 128,-1,206
 214 300 214 300 206 308 c 128,-1,207
 198 316 198 316 198 348 c 0,208,209
 198 381 198 381 191 387 c 0,210,211
 184 394 184 394 184 401 c 0,0,1
EndSplineSet
EndChar

StartChar: W
Encoding: 87 87 36
Width: 1010
GlyphClass: 2
Flags: W
LayerCount: 2
Fore
SplineSet
429 745 m 0,0,1
 443 747 443 747 488 747 c 2,2,-1
 521 747 l 2,3,4
 593 747 593 747 608 741 c 0,5,6
 628 732 628 732 628 704 c 0,7,8
 628 681 628 681 614 670 c 0,9,10
 602 660 602 660 591 649 c 2,11,-1
 579 639 l 1,12,-1
 579 603 l 2,13,14
 579 580 579 580 581 570 c 128,-1,15
 583 560 583 560 588 550 c 128,-1,16
 593 540 593 540 596 527 c 0,17,18
 599 516 599 516 605 501 c 128,-1,19
 611 486 611 486 613 470 c 0,20,21
 616 447 616 447 627 431 c 0,22,23
 650 393 650 393 656 339 c 0,24,25
 660 300 660 300 673.5 261.5 c 128,-1,26
 687 223 687 223 699 213 c 0,27,28
 706 208 706 208 711 208 c 0,29,30
 722 208 722 208 725 227 c 0,31,32
 726 238 726 238 732.5 249.5 c 128,-1,33
 739 261 739 261 740 275 c 128,-1,34
 741 289 741 289 747 301.5 c 128,-1,35
 753 314 753 314 754 331 c 0,36,37
 757 357 757 357 763 361 c 0,38,39
 768 368 768 368 768 381 c 0,40,41
 768 389 768 389 775 410 c 0,42,43
 782 432 782 432 785 447 c 0,44,45
 787 459 787 459 801 496 c 0,46,47
 824 558 824 558 824 599 c 0,48,49
 824 630 824 630 819.5 644 c 128,-1,50
 815 658 815 658 800 671 c 0,51,52
 782 687 782 687 778 694 c 0,53,54
 772 703 772 703 772 714 c 0,55,56
 772 734 772 734 790 742 c 0,57,58
 804 748 804 748 892 748 c 0,59,60
 921 748 921 748 931 747 c 2,61,-1
 956 745 l 1,62,-1
 956 698 l 2,63,64
 956 658 956 658 953.5 645.5 c 128,-1,65
 951 633 951 633 942 632 c 0,66,67
 930 630 930 630 911 592.5 c 128,-1,68
 892 555 892 555 888 522 c 0,69,70
 884 497 884 497 880 492 c 0,71,72
 875 485 875 485 873 466 c 128,-1,73
 871 447 871 447 864 433 c 0,74,75
 857 421 857 421 857 411 c 0,76,77
 857 397 857 397 832 329 c 0,78,79
 820 298 820 298 816 274 c 0,80,81
 814 259 814 259 807.5 245.5 c 128,-1,82
 801 232 801 232 799 217 c 128,-1,83
 797 202 797 202 785 179 c 128,-1,84
 773 156 773 156 771 143 c 128,-1,85
 769 130 769 130 757.5 96.5 c 128,-1,86
 746 63 746 63 744 49 c 0,87,88
 740 26 740 26 736 23 c 0,89,90
 731 19 731 19 729 -2 c 0,91,92
 727 -24 727 -24 720 -33 c 0,93,94
 714 -43 714 -43 714 -50 c 0,95,96
 714 -59 714 -59 706 -72 c 128,-1,97
 698 -85 698 -85 691 -88 c 0,98,99
 689 -89 689 -89 685 -89 c 0,100,101
 670 -89 670 -89 653 -52 c 0,102,103
 643 -31 643 -31 630.5 5 c 128,-1,104
 618 41 618 41 618 50 c 0,105,106
 618 70 618 70 592 143 c 0,107,108
 578 180 578 180 574 201 c 0,109,110
 570 221 570 221 561 234 c 128,-1,111
 552 247 552 247 542.5 272 c 128,-1,112
 533 297 533 297 531 314 c 128,-1,113
 529 331 529 331 523 337 c 0,114,115
 517 345 517 345 516 384 c 0,116,117
 514 426 514 426 502 451 c 0,118,119
 492 475 492 475 488 475 c 0,120,121
 486 475 486 475 484 455 c 0,122,123
 482 437 482 437 478 430 c 0,124,125
 474 425 474 425 469 401 c 0,126,127
 460 363 460 363 447 330 c 0,128,129
 429 278 429 278 428 268 c 0,130,131
 426 256 426 256 419.5 236.5 c 128,-1,132
 413 217 413 217 411 205 c 0,133,134
 408 186 408 186 397 170 c 0,135,136
 389 158 389 158 385.5 148.5 c 128,-1,137
 382 139 382 139 378.5 123.5 c 128,-1,138
 375 108 375 108 370 93 c 0,139,140
 358 52 358 52 355 37 c 0,141,142
 351 17 351 17 347 13 c 0,143,144
 342 8 342 8 342 -3 c 0,145,146
 342 -33 342 -33 330 -45 c 0,147,148
 325 -50 325 -50 325 -59 c 0,149,150
 325 -67 325 -67 316.5 -82 c 128,-1,151
 308 -97 308 -97 302 -99 c 0,152,153
 294 -102 294 -102 281 -87 c 0,154,155
 269 -73 269 -73 249 -22 c 128,-1,156
 229 29 229 29 229 45 c 0,157,158
 229 62 229 62 200 143 c 0,159,160
 195 155 195 155 188 184.5 c 128,-1,161
 181 214 181 214 171 229 c 0,162,163
 151 258 151 258 143 303 c 0,164,165
 141 315 141 315 135 331 c 128,-1,166
 129 347 129 347 127 377 c 0,167,168
 125 419 125 419 115 437 c 0,169,170
 94 478 94 478 84 525 c 0,171,172
 78 554 78 554 67 574 c 2,173,-1
 55 599 l 1,174,-1
 55 738 l 1,175,-1
 95 740 l 2,176,177
 105 741 105 741 127 741 c 0,178,179
 206 741 206 741 224 730 c 0,180,181
 239 720 239 720 239 694 c 0,182,183
 239 678 239 678 234 670 c 128,-1,184
 229 662 229 662 213 651 c 0,185,186
 193 637 193 637 190 626 c 0,187,188
 188 616 188 616 188 606 c 0,189,190
 188 565 188 565 196 551 c 0,191,192
 200 546 200 546 207 520.5 c 128,-1,193
 214 495 214 495 217 490 c 0,194,195
 221 484 221 484 225 460 c 0,196,197
 228 440 228 440 237 425 c 0,198,199
 251 405 251 405 257 385 c 128,-1,200
 263 365 263 365 272 308 c 0,201,202
 283 237 283 237 307 209 c 0,203,204
 318 198 318 198 325 200 c 0,205,206
 335 203 335 203 337 217 c 0,207,208
 338 227 338 227 344 239 c 128,-1,209
 350 251 350 251 351 265 c 0,210,211
 352 280 352 280 358.5 293 c 128,-1,212
 365 306 365 306 366 322 c 0,213,214
 368 347 368 347 373 352 c 0,215,216
 377 356 377 356 380.5 378.5 c 128,-1,217
 384 401 384 401 387 405 c 0,218,219
 393 413 393 413 393 421 c 128,-1,220
 393 429 393 429 413 489 c 0,221,222
 435 555 435 555 436 576 c 0,223,224
 437 583 437 583 437 594 c 0,225,226
 437 621 437 621 419 631 c 0,227,228
 398 643 398 643 387 679 c 0,229,230
 383 697 383 697 383 702 c 0,231,232
 383 735 383 735 429 745 c 0,0,1
EndSplineSet
EndChar

StartChar: X
Encoding: 88 88 37
Width: 771
GlyphClass: 2
Flags: W
LayerCount: 2
Fore
SplineSet
127 582 m 0,0,1
 120 582 120 582 115 587 c 128,-1,2
 110 592 110 592 102 592 c 0,3,4
 85 592 85 592 70.5 606 c 128,-1,5
 56 620 56 620 56 637 c 128,-1,6
 56 654 56 654 76 665 c 128,-1,7
 96 676 96 676 148 688 c 0,8,9
 231 708 231 708 266 708 c 0,10,11
 289 708 289 708 297 703 c 128,-1,12
 305 698 305 698 305 684 c 0,13,14
 305 669 305 669 285 649 c 0,15,16
 263 625 263 625 262 619 c 0,17,18
 262 618 262 618 261.5 615.5 c 128,-1,19
 261 613 261 613 261 611 c 0,20,21
 261 576 261 576 276 546 c 0,22,23
 279 540 279 540 305.5 502 c 128,-1,24
 332 464 332 464 337 451 c 0,25,26
 347 431 347 431 351 430 c 0,27,28
 356 429 356 429 361 412 c 0,29,30
 369 386 369 386 382 386 c 0,31,32
 384 386 384 386 389 389 c 0,33,34
 395 393 395 393 403 413.5 c 128,-1,35
 411 434 411 434 416 438 c 0,36,37
 425 445 425 445 425 451 c 0,38,39
 425 456 425 456 435.5 475.5 c 128,-1,40
 446 495 446 495 455 506 c 0,41,42
 465 518 465 518 467 531 c 128,-1,43
 469 544 469 544 477 549 c 0,44,45
 488 557 488 557 493 591 c 0,46,47
 494 598 494 598 494 609 c 0,48,49
 494 632 494 632 469 656 c 0,50,51
 454 670 454 670 451 675.5 c 128,-1,52
 448 681 448 681 448 692 c 0,53,54
 448 707 448 707 456 711 c 0,55,56
 460 713 460 713 481 713 c 0,57,58
 532 713 532 713 585 703 c 0,59,60
 647 692 647 692 670.5 680.5 c 128,-1,61
 694 669 694 669 694 650 c 0,62,63
 694 632 694 632 680 618.5 c 128,-1,64
 666 605 666 605 648 605 c 0,65,66
 642 605 642 605 637.5 600 c 128,-1,67
 633 595 633 595 626 595 c 0,68,69
 614 595 614 595 592 572 c 0,70,71
 571 551 571 551 558 520 c 0,72,73
 547 490 547 490 540 485 c 0,74,75
 533 478 533 478 530 465 c 0,76,77
 527 454 527 454 517.5 441 c 128,-1,78
 508 428 508 428 505 419 c 0,79,80
 501 409 501 409 474 366 c 0,81,82
 438 313 438 313 438 296 c 0,83,84
 438 289 438 289 470 246 c 0,85,86
 504 201 504 201 507 191 c 0,87,88
 510 182 510 182 519 172 c 128,-1,89
 528 162 528 162 532 152 c 0,90,91
 537 134 537 134 544 129 c 0,92,93
 550 124 550 124 562 101 c 0,94,95
 573 77 573 77 598.5 51 c 128,-1,96
 624 25 624 25 636 25 c 0,97,98
 647 25 647 25 655 12 c 0,99,100
 664 -2 664 -2 668 -2 c 0,101,102
 677 -2 677 -2 694 -32 c 128,-1,103
 711 -62 711 -62 714 -82 c 0,104,105
 715 -92 715 -92 714.5 -93.5 c 128,-1,106
 714 -95 714 -95 706 -93 c 0,107,108
 690 -89 690 -89 665 -89 c 0,109,110
 634 -89 634 -89 568 -96 c 0,111,112
 506 -103 506 -103 490 -103 c 0,113,114
 479 -103 479 -103 472 -98 c 0,115,116
 463 -91 463 -91 463 -82 c 128,-1,117
 463 -73 463 -73 471 -58 c 128,-1,118
 479 -43 479 -43 488 -37 c 0,119,120
 505 -26 505 -26 505 -1 c 2,121,-1
 505 8 l 1,122,123
 499 58 499 58 486 62 c 0,124,125
 481 64 481 64 476.5 71 c 128,-1,126
 472 78 472 78 472 85 c 0,127,128
 472 90 472 90 461 103 c 0,129,130
 452 112 452 112 438.5 134 c 128,-1,131
 425 156 425 156 425 160 c 0,132,133
 425 162 425 162 413 176 c 0,134,135
 401 192 401 192 401 196 c 0,136,137
 401 203 401 203 394.5 210 c 128,-1,138
 388 217 388 217 385 215 c 0,139,140
 381 213 381 213 379 198 c 0,141,142
 377 184 377 184 367 172 c 0,143,144
 356 161 356 161 356 156 c 0,145,146
 356 142 356 142 322 91 c 0,147,148
 297 54 297 54 291 18 c 0,149,150
 289 0 289 0 289 -4 c 0,151,152
 289 -28 289 -28 313 -48 c 0,153,154
 339 -71 339 -71 339 -87 c 0,155,156
 339 -88 339 -88 338.5 -89.5 c 128,-1,157
 338 -91 338 -91 338 -92 c 0,158,159
 334 -105 334 -105 315 -105 c 0,160,161
 304 -105 304 -105 278 -102 c 0,162,163
 236 -98 236 -98 232 -98 c 0,164,165
 230 -98 230 -98 186 -102 c 0,166,167
 141 -108 141 -108 122 -108 c 0,168,169
 102 -108 102 -108 96 -102 c 128,-1,170
 90 -96 90 -96 90 -91 c 0,171,172
 90 -87 90 -87 95 -65 c 0,173,174
 109 -12 109 -12 127 -7 c 0,175,176
 132 -6 132 -6 142.5 1 c 128,-1,177
 153 8 153 8 160 8 c 0,178,179
 172 8 172 8 197.5 41.5 c 128,-1,180
 223 75 223 75 230 99 c 0,181,182
 234 113 234 113 240 118 c 0,183,184
 243 121 243 121 251 142 c 128,-1,185
 259 163 259 163 264 166 c 0,186,187
 271 171 271 171 273 181 c 0,188,189
 281 217 281 217 298 235 c 0,190,191
 331 271 331 271 331 291 c 0,192,193
 331 301 331 301 313.5 328 c 128,-1,194
 296 355 296 355 290 357 c 0,195,196
 283 359 283 359 273 375 c 128,-1,197
 263 391 263 391 259 405 c 0,198,199
 253 424 253 424 245 431 c 0,200,201
 239 436 239 436 233 453 c 128,-1,202
 227 470 227 470 221 474 c 0,203,204
 214 481 214 481 208 497 c 0,205,206
 204 511 204 511 185.5 535.5 c 128,-1,207
 167 560 167 560 152 571 c 0,208,209
 136 582 136 582 127 582 c 0,0,1
EndSplineSet
EndChar

StartChar: Y
Encoding: 89 89 38
Width: 808
GlyphClass: 2
Flags: W
LayerCount: 2
Fore
SplineSet
242 -40 m 0,0,1
 246 -40 246 -40 256 -33 c 128,-1,2
 266 -26 266 -26 269 -26 c 0,3,4
 276 -26 276 -26 283 -20 c 128,-1,5
 290 -14 290 -14 290 -8 c 0,6,7
 290 0 290 0 296 8 c 0,8,9
 302 17 302 17 303 135 c 0,10,11
 303 151 303 151 303.5 175.5 c 128,-1,12
 304 200 304 200 304 209 c 0,13,14
 304 291 304 291 294 291 c 0,15,16
 264 291 264 291 196 367 c 0,17,18
 153 416 153 416 145 461 c 0,19,20
 139 500 139 500 124 521 c 0,21,22
 116 533 116 533 118 546 c 0,23,24
 118 547 118 547 118.5 549.5 c 128,-1,25
 119 552 119 552 119 553 c 0,26,27
 119 561 119 561 103 582 c 0,28,29
 86 603 86 603 86 610 c 0,30,31
 86 611 86 611 86.5 613 c 128,-1,32
 87 615 87 615 87 617 c 128,-1,33
 87 619 87 619 87.5 621.5 c 128,-1,34
 88 624 88 624 88 625 c 0,35,36
 88 633 88 633 76 649 c 0,37,38
 55 677 55 677 55 701 c 2,39,-1
 55 709 l 2,40,41
 57 728 57 728 72.5 740 c 128,-1,42
 88 752 88 752 109 752 c 0,43,44
 116 752 116 752 120 751 c 0,45,46
 181 742 181 742 199 696 c 0,47,48
 217 654 217 654 256 608 c 0,49,50
 288 569 288 569 292 547 c 0,51,52
 294 533 294 533 309 515 c 0,53,54
 323 498 323 498 334 478 c 0,55,56
 343 462 343 462 346 462 c 0,57,58
 350 462 350 462 378 484 c 128,-1,59
 406 506 406 506 420 520 c 0,60,61
 437 537 437 537 457 565 c 0,62,63
 476 593 476 593 487 598 c 0,64,65
 509 610 509 610 534 646 c 0,66,67
 544 660 544 660 587.5 702 c 128,-1,68
 631 744 631 744 647 755 c 0,69,70
 661 765 661 765 675 765 c 0,71,72
 694 765 694 765 727 732 c 0,73,74
 754 704 754 704 754 678 c 0,75,76
 754 655 754 655 734 613 c 0,77,78
 709 560 709 560 686.5 534 c 128,-1,79
 664 508 664 508 628 489 c 0,80,81
 601 474 601 474 585 457 c 0,82,83
 571 439 571 439 562 439 c 2,84,-1
 560 439 l 1,85,-1
 556 439 l 2,86,87
 549 439 549 439 544.5 434.5 c 128,-1,88
 540 430 540 430 529 414 c 0,89,90
 508 384 508 384 497 384 c 0,91,92
 496 384 496 384 496 384 c 1,93,-1
 494 385 l 1,94,-1
 492 385 l 2,95,96
 483 385 483 385 464 358 c 0,97,98
 457 347 457 347 444 338 c 0,99,100
 434 331 434 331 434 314 c 0,101,102
 434 300 434 300 429 290 c 0,103,104
 427 286 427 286 423.5 189 c 128,-1,105
 420 92 420 92 414 72 c 0,106,107
 410 56 410 56 410 45 c 0,108,109
 410 24 410 24 418 10 c 0,110,111
 423 2 423 2 423 -7 c 0,112,113
 423 -15 423 -15 439 -33 c 0,114,115
 457 -55 457 -55 457 -68 c 0,116,117
 457 -91 457 -91 401 -96 c 0,118,119
 380 -97 380 -97 366 -103 c 0,120,121
 356 -108 356 -108 318 -108 c 128,-1,122
 280 -108 280 -108 267 -103 c 0,123,124
 265 -103 265 -103 258 -101 c 128,-1,125
 251 -99 251 -99 248 -98 c 128,-1,126
 245 -97 245 -97 239.5 -94.5 c 128,-1,127
 234 -92 234 -92 231.5 -90 c 128,-1,128
 229 -88 229 -88 225.5 -84.5 c 128,-1,129
 222 -81 222 -81 220.5 -76.5 c 128,-1,130
 219 -72 219 -72 219 -67 c 0,131,132
 219 -60 219 -60 227.5 -50 c 128,-1,133
 236 -40 236 -40 242 -40 c 0,0,1
EndSplineSet
EndChar

StartChar: Z
Encoding: 90 90 39
Width: 767
GlyphClass: 2
Flags: W
LayerCount: 2
Fore
SplineSet
537 367 m 0,0,1
 536 370 536 370 531 364 c 0,2,3
 530 361 530 361 533 363 c 0,4,5
 537 365 537 365 537 367 c 0,0,1
605 780 m 0,6,7
 616 788 616 788 629 788 c 0,8,9
 652 788 652 788 670 760 c 0,10,11
 694 723 694 723 694 668 c 0,12,13
 694 612 694 612 670 587 c 0,14,15
 660 577 660 577 640 539 c 0,16,17
 608 476 608 476 597 473 c 0,18,19
 590 470 590 470 566 428 c 128,-1,20
 542 386 542 386 542 376 c 0,21,22
 542 374 542 374 543 374 c 0,23,24
 549 374 549 374 556.5 382.5 c 128,-1,25
 564 391 564 391 564 395 c 0,26,27
 564 400 564 400 573.5 408.5 c 128,-1,28
 583 417 583 417 589 417 c 2,29,-1
 591 417 l 1,30,31
 615 408 615 408 628 352 c 0,32,33
 633 329 633 329 633 298 c 0,34,35
 633 230 633 230 609 206 c 0,36,37
 601 198 601 198 595 197 c 128,-1,38
 589 196 589 196 561 196 c 0,39,40
 523 196 523 196 515 203 c 0,41,42
 510 208 510 208 492.5 213 c 128,-1,43
 475 218 475 218 462 218 c 0,44,45
 459 218 459 218 419 139.5 c 128,-1,46
 379 61 379 61 379 55 c 0,47,48
 379 53 379 53 397 53 c 0,49,50
 471 53 471 53 537 64 c 0,51,52
 561 68 561 68 571 78 c 0,53,54
 583 88 583 88 587 88 c 0,55,56
 599 88 599 88 620 116 c 0,57,58
 629 129 629 129 644 129 c 0,59,60
 685 129 685 129 705 62 c 0,61,62
 713 33 713 33 713 9 c 0,63,64
 713 -28 713 -28 699 -55.5 c 128,-1,65
 685 -83 685 -83 661 -90 c 0,66,67
 639 -97 639 -97 601 -97 c 0,68,69
 548 -97 548 -97 536 -85 c 0,70,71
 528 -78 528 -78 448 -77 c 2,72,-1
 406 -77 l 2,73,74
 351 -77 351 -77 277 -79 c 2,75,-1
 187 -83 l 1,76,-1
 172 -93 l 2,77,78
 153 -106 153 -106 136 -106 c 0,79,80
 107 -106 107 -106 86 -62 c 0,81,82
 78 -45 78 -45 74 -2 c 0,83,84
 72 26 72 26 72 31 c 0,85,86
 72 50 72 50 77 68 c 0,87,88
 78 72 78 72 92 81 c 128,-1,89
 106 90 106 90 107 95 c 0,90,91
 108 101 108 101 113 101 c 0,92,93
 117 101 117 101 134 92 c 0,94,95
 165 74 165 74 212 74 c 0,96,97
 228 74 228 74 233.5 76 c 128,-1,98
 239 78 239 78 249 87 c 0,99,100
 275 110 275 110 306 168 c 0,101,102
 318 191 318 191 329 209 c 2,103,-1
 335 218 l 1,104,-1
 307 218 l 2,105,106
 286 218 286 218 281 216.5 c 128,-1,107
 276 215 276 215 266 206 c 0,108,109
 252 194 252 194 242 194 c 0,110,111
 220 194 220 194 207 239 c 0,112,113
 200 264 200 264 200 318 c 2,114,-1
 199 372 l 1,115,-1
 211 382 l 2,116,117
 222 391 222 391 222 395 c 0,118,119
 222 409 222 409 238 395 c 0,120,121
 259 376 259 376 293 373 c 0,122,123
 317 370 317 370 324 363 c 0,124,125
 339 348 339 348 389 348 c 2,126,-1
 417 348 l 1,127,-1
 447 407 l 2,128,129
 521 555 521 555 521 571 c 0,130,131
 521 584 521 584 427 584 c 0,132,133
 380 584 380 584 301 581 c 2,134,-1
 170 577 l 1,135,-1
 152 565 l 2,136,137
 136 554 136 554 124 554 c 2,138,-1
 116 554 l 2,139,140
 100 555 100 555 91 563 c 128,-1,141
 82 571 82 571 71 592 c 0,142,143
 54 626 54 626 54 687 c 0,144,145
 54 710 54 710 58 722 c 0,146,147
 62 735 62 735 73 740 c 0,148,149
 85 743 85 743 89 753 c 0,150,151
 94 767 94 767 108 756 c 0,152,153
 133 739 133 739 186 735 c 128,-1,154
 239 731 239 731 243 721 c 0,155,156
 246 712 246 712 342 712 c 0,157,158
 451 712 451 712 517 723 c 0,159,160
 537 726 537 726 543 729.5 c 128,-1,161
 549 733 549 733 563 748 c 0,162,163
 580 769 580 769 586 769 c 0,164,165
 588 769 588 769 605 780 c 0,6,7
EndSplineSet
EndChar

StartChar: asciicircum
Encoding: 94 94 40
Width: 490
GlyphClass: 2
Flags: W
LayerCount: 2
Fore
SplineSet
195 518 m 0,0,1
 199 519 199 519 252 519 c 0,2,3
 286 519 286 519 294 517.5 c 128,-1,4
 302 516 302 516 307 511 c 0,5,6
 313 505 313 505 313 493 c 0,7,8
 313 483 313 483 332 465 c 0,9,10
 351 446 351 446 351 438 c 0,11,12
 351 434 351 434 344 429 c 0,13,14
 337 426 337 426 337 421 c 128,-1,15
 337 416 337 416 354 401 c 0,16,17
 372 385 372 385 373 372 c 0,18,19
 374 363 374 363 383.5 352.5 c 128,-1,20
 393 342 393 342 394 332 c 0,21,22
 395 320 395 320 416 299 c 0,23,24
 430 285 430 285 433 279.5 c 128,-1,25
 436 274 436 274 436 264 c 0,26,27
 436 250 436 250 423 238 c 0,28,29
 416 232 416 232 398 214 c 0,30,31
 385 200 385 200 370 200 c 0,32,33
 354 200 354 200 341 214 c 0,34,35
 323 232 323 232 316 238 c 0,36,37
 303 248 303 248 303 258 c 0,38,39
 303 273 303 273 296 276.5 c 128,-1,40
 289 280 289 280 256 280 c 2,41,-1
 216 280 l 1,42,-1
 202 265 l 2,43,44
 187 250 187 250 187 241 c 0,45,46
 187 222 187 222 167 222 c 0,47,48
 158 222 158 222 146 212 c 0,49,50
 135 201 135 201 119 201 c 128,-1,51
 103 201 103 201 98 209 c 0,52,53
 90 220 90 220 73 232 c 0,54,55
 54 247 54 247 54 256 c 0,56,57
 54 261 54 261 60 267 c 0,58,59
 65 273 65 273 60 283 c 128,-1,60
 55 293 55 293 55 297 c 0,61,62
 55 302 55 302 64 310 c 0,63,64
 73 317 73 317 74 331 c 0,65,66
 76 345 76 345 83 350 c 0,67,68
 91 356 91 356 100 367 c 2,69,-1
 110 378 l 1,70,-1
 103 387 l 2,71,72
 97 396 97 396 97 399 c 0,73,74
 97 403 97 403 106 415 c 0,75,76
 116 427 116 427 116 436 c 0,77,78
 116 447 116 447 151 482 c 0,79,80
 185 516 185 516 195 518 c 0,0,1
EndSplineSet
EndChar

StartChar: grave
Encoding: 96 96 41
Width: 364
GlyphClass: 2
Flags: W
LayerCount: 2
Fore
SplineSet
95 543 m 0,0,1
 95 549 95 549 84.5 563.5 c 128,-1,2
 74 578 74 578 74 585 c 0,3,4
 74 595 74 595 64 605 c 0,5,6
 57 612 57 612 55.5 618 c 128,-1,7
 54 624 54 624 54 651 c 2,8,-1
 54 686 l 1,9,10
 66 697 66 697 88 719 c 1,11,-1
 132 719 l 2,12,13
 150 719 150 719 157.5 719 c 128,-1,14
 165 719 165 719 171.5 717.5 c 128,-1,15
 178 716 178 716 179 715 c 128,-1,16
 180 714 180 714 184.5 709 c 128,-1,17
 189 704 189 704 192 701 c 2,18,-1
 202 691 l 2,19,20
 204 689 204 689 208 685.5 c 128,-1,21
 212 682 212 682 213 681 c 0,22,23
 215 679 215 679 218 676 c 128,-1,24
 221 673 221 673 222 672 c 128,-1,25
 223 671 223 671 225.5 668 c 128,-1,26
 228 665 228 665 228.5 662 c 128,-1,27
 229 659 229 659 229.5 654 c 128,-1,28
 230 649 230 649 230 643 c 0,29,30
 230 622 230 622 240 613 c 0,31,32
 251 603 251 603 251 592 c 0,33,34
 251 579 251 579 256 576 c 0,35,36
 271 564 271 564 271 552 c 128,-1,37
 271 540 271 540 291 521 c 2,38,-1
 312 501 l 1,39,-1
 312 472 l 1,40,-1
 312 450 l 2,41,42
 312 426 312 426 306 421 c 0,43,44
 301 417 301 417 255 417 c 2,45,-1
 211 417 l 1,46,-1
 195 432 l 2,47,48
 178 449 178 449 177 460 c 0,49,50
 175 473 175 473 162.5 485 c 128,-1,51
 150 497 150 497 137 499 c 128,-1,52
 124 501 124 501 109.5 516.5 c 128,-1,53
 95 532 95 532 95 543 c 0,0,1
EndSplineSet
EndChar

StartChar: a
Encoding: 97 97 42
Width: 521
GlyphClass: 2
Flags: W
LayerCount: 2
Fore
SplineSet
207 83 m 0,0,1
 207 79 207 79 208 76.5 c 128,-1,2
 209 74 209 74 212 73 c 128,-1,3
 215 72 215 72 217.5 72 c 128,-1,4
 220 72 220 72 226 71.5 c 128,-1,5
 232 71 232 71 237 71 c 2,6,-1
 261 71 l 1,7,-1
 273 83 l 2,8,9
 284 95 284 95 284 109 c 0,10,11
 284 122 284 122 280 126 c 128,-1,12
 276 130 276 130 263 132 c 0,13,14
 261 132 261 132 259 132.5 c 128,-1,15
 257 133 257 133 256 133 c 0,16,17
 249 133 249 133 228 112 c 0,18,19
 207 90 207 90 207 83 c 0,0,1
196 184 m 0,20,21
 207 184 207 184 220 192 c 128,-1,22
 233 200 233 200 245 200 c 0,23,24
 261 200 261 200 273 213 c 2,25,-1
 285 226 l 1,26,-1
 283 264 l 1,27,-1
 282 302 l 1,28,-1
 271 313 l 2,29,30
 263 321 263 321 258 322.5 c 128,-1,31
 253 324 253 324 232 325 c 2,32,-1
 223 325 l 2,33,34
 204 325 204 325 197.5 321.5 c 128,-1,35
 191 318 191 318 191 309 c 0,36,37
 191 301 191 301 176 287 c 2,38,-1
 162 274 l 1,39,-1
 124 274 l 2,40,41
 85 274 85 274 79 279 c 0,42,43
 72 283 72 283 72 293 c 0,44,45
 72 302 72 302 80 310 c 128,-1,46
 88 318 88 318 88 326 c 128,-1,47
 88 334 88 334 96 344 c 0,48,49
 104 353 104 353 104 368 c 0,50,51
 104 382 104 382 116 395 c 0,52,53
 128 409 128 409 139 411 c 0,54,55
 150 412 150 412 171 434 c 0,56,57
 174 437 174 437 180 443 c 128,-1,58
 186 449 186 449 187.5 450.5 c 128,-1,59
 189 452 189 452 192.5 455 c 128,-1,60
 196 458 196 458 198.5 458.5 c 128,-1,61
 201 459 201 459 205 459.5 c 128,-1,62
 209 460 209 460 215 460 c 0,63,64
 218 460 218 460 231.5 459.5 c 128,-1,65
 245 459 245 459 256 459 c 2,66,-1
 309 458 l 1,67,-1
 318 450 l 2,68,69
 327 441 327 441 336 441 c 128,-1,70
 345 441 345 441 380.5 406 c 128,-1,71
 416 371 416 371 418 360 c 0,72,73
 420 348 420 348 426 344 c 0,74,75
 432 339 432 339 432 319 c 128,-1,76
 432 299 432 299 425 293 c 0,77,78
 420 289 420 289 418.5 280.5 c 128,-1,79
 417 272 417 272 416 237 c 0,80,81
 414 185 414 185 407 178 c 0,82,83
 399 170 399 170 399 141 c 2,84,-1
 399 111 l 1,85,-1
 423 87 l 2,86,87
 448 62 448 62 448 57 c 0,88,89
 448 51 448 51 457 38 c 0,90,91
 467 25 467 25 467 10 c 0,92,93
 467 -1 467 -1 464 -6 c 128,-1,94
 461 -11 461 -11 446 -26 c 2,95,-1
 424 -47 l 1,96,-1
 374 -47 l 2,97,98
 336 -47 336 -47 328.5 -46 c 128,-1,99
 321 -45 321 -45 316 -39 c 0,100,101
 308 -31 308 -31 276 -31 c 0,102,103
 245 -31 245 -31 237 -39 c 0,104,105
 232 -45 232 -45 223.5 -46 c 128,-1,106
 215 -47 215 -47 171 -47 c 2,107,-1
 112 -47 l 1,108,109
 103 -37 103 -37 84.5 -18 c 128,-1,110
 66 1 66 1 56 11 c 1,111,-1
 56 35 l 2,112,113
 56 59 56 59 64 68 c 128,-1,114
 72 77 72 77 72 93 c 0,115,116
 72 104 72 104 75 109.5 c 128,-1,117
 78 115 78 115 94 130 c 0,118,119
 118 152 118 152 124 152 c 0,120,121
 129 152 129 152 139.5 160 c 128,-1,122
 150 168 150 168 155 168 c 0,123,124
 162 168 162 168 172 176 c 0,125,126
 181 184 181 184 196 184 c 0,20,21
EndSplineSet
EndChar

StartChar: b
Encoding: 98 98 43
Width: 527
GlyphClass: 2
Flags: W
LayerCount: 2
Fore
SplineSet
314 251 m 2,0,-1
 289 277 l 1,1,-1
 209 277 l 1,2,3
 205 272 205 272 197.5 264 c 128,-1,4
 190 256 190 256 187 251 c 2,5,-1
 188 202 l 1,6,-1
 188 178 l 2,7,8
 188 153 188 153 182 148 c 0,9,10
 175 143 175 143 175 107 c 2,11,-1
 175 72 l 1,12,-1
 191 55 l 2,13,14
 207 39 207 39 222 39 c 128,-1,15
 237 39 237 39 243 32 c 0,16,17
 249 24 249 24 272 24 c 0,18,19
 296 24 296 24 302 32 c 0,20,21
 307 39 307 39 316 39 c 128,-1,22
 325 39 325 39 326 50 c 0,23,24
 327 58 327 58 342 73 c 2,25,-1
 356 86 l 1,26,-1
 356 138 l 2,27,28
 356 191 356 191 348 202 c 0,29,30
 340 212 340 212 340 219 c 0,31,32
 340 223 340 223 314 251 c 2,0,-1
359 -25 m 0,33,34
 354 -25 354 -25 345 -32 c 128,-1,35
 336 -39 336 -39 331 -39 c 0,36,37
 324 -39 324 -39 317 -46 c 0,38,39
 313 -51 313 -51 298.5 -52 c 128,-1,40
 284 -53 284 -53 215 -53 c 0,41,42
 121 -53 121 -53 115 -47 c 0,43,44
 111 -43 111 -43 97 -39 c 0,45,46
 89 -37 89 -37 86.5 -34.5 c 128,-1,47
 84 -32 84 -32 84 -25 c 0,48,49
 84 -14 84 -14 77 -11 c 0,50,51
 70 -6 70 -6 70 26 c 0,52,53
 70 59 70 59 77 66 c 0,54,55
 82 70 82 70 83 85.5 c 128,-1,56
 84 101 84 101 84 179 c 0,57,58
 84 258 84 258 85 273.5 c 128,-1,59
 86 289 86 289 91 293 c 128,-1,60
 96 297 96 297 97 307 c 128,-1,61
 98 317 98 317 98 362 c 0,62,63
 98 425 98 425 91 433 c 128,-1,64
 84 441 84 441 84 461 c 128,-1,65
 84 481 84 481 70 496 c 0,66,67
 56 510 56 510 56 520 c 0,68,69
 56 531 56 531 73 549 c 0,70,71
 86 563 86 563 91 565.5 c 128,-1,72
 96 568 96 568 112 568 c 0,73,74
 133 568 133 568 139 575 c 128,-1,75
 145 582 145 582 152 582 c 0,76,77
 163 582 163 582 182 563 c 2,78,-1
 201 543 l 1,79,-1
 201 508 l 2,80,81
 201 471 201 471 195 464 c 0,82,83
 188 456 188 456 188 417 c 128,-1,84
 188 378 188 378 191 372 c 0,85,86
 194 365 194 365 218 365 c 0,87,88
 245 365 245 365 253 373 c 0,89,90
 259 380 259 380 289 380 c 0,91,92
 320 380 320 380 328 373 c 0,93,94
 339 365 339 365 358 365 c 2,95,-1
 379 365 l 1,96,-1
 403 341 l 2,97,98
 428 316 428 316 428 308 c 0,99,100
 428 302 428 302 435 293.5 c 128,-1,101
 442 285 442 285 442 279 c 128,-1,102
 442 273 442 273 450 265 c 0,103,104
 457 259 457 259 457 246 c 0,105,106
 457 231 457 231 464 224 c 0,107,108
 471 216 471 216 471 177 c 0,109,110
 471 140 471 140 464 133 c 0,111,112
 457 127 457 127 457 97 c 2,113,-1
 457 67 l 1,114,-1
 412 21 l 2,115,116
 367 -25 367 -25 359 -25 c 0,33,34
EndSplineSet
EndChar

StartChar: c
Encoding: 99 99 44
Width: 516
GlyphClass: 2
Flags: W
LayerCount: 2
Fore
SplineSet
428 -8 m 0,0,1
 422 -8 422 -8 414 -16 c 128,-1,2
 406 -24 406 -24 400 -24 c 0,3,4
 391 -24 391 -24 383 -32 c 0,5,6
 377 -40 377 -40 369 -40 c 0,7,8
 359 -40 359 -40 351 -48 c 0,9,10
 344 -54 344 -54 334.5 -55 c 128,-1,11
 325 -56 325 -56 276 -56 c 128,-1,12
 227 -56 227 -56 217.5 -55 c 128,-1,13
 208 -54 208 -54 201 -48 c 0,14,15
 192 -40 192 -40 176 -40 c 0,16,17
 164 -40 164 -40 158 -36 c 128,-1,18
 152 -32 152 -32 132 -12 c 0,19,20
 105 16 105 16 102 26 c 0,21,22
 101 32 101 32 94.5 42 c 128,-1,23
 88 52 88 52 87 59 c 0,24,25
 85 70 85 70 78 75 c 0,26,27
 70 81 70 81 69 107 c 0,28,29
 68 132 68 132 61 139 c 0,30,31
 55 145 55 145 55 206 c 0,32,33
 55 265 55 265 62 273 c 0,34,35
 69 280 69 280 69 296 c 0,36,37
 69 311 69 311 77 319 c 128,-1,38
 85 327 85 327 87 337 c 0,39,40
 88 347 88 347 109 369 c 0,41,42
 173 436 173 436 181 436 c 0,43,44
 190 436 190 436 198 444 c 2,45,-1
 208 452 l 1,46,-1
 405 452 l 1,47,-1
 425 432 l 2,48,49
 445 412 445 412 445 403 c 0,50,51
 445 395 445 395 453 387 c 0,52,53
 463 377 463 377 463 360 c 0,54,55
 463 344 463 344 453 332 c 0,56,57
 445 324 445 324 445 316 c 0,58,59
 445 306 445 306 437.5 303 c 128,-1,60
 430 300 430 300 404 300 c 2,61,-1
 384 300 l 2,62,63
 335 301 335 301 329 308 c 0,64,65
 327 311 327 311 311 324 c 0,66,67
 303 331 303 331 296.5 332 c 128,-1,68
 290 333 290 333 265 333 c 0,69,70
 239 333 239 333 233 331.5 c 128,-1,71
 227 330 227 330 217 323 c 0,72,73
 188 299 188 299 188 284 c 0,74,75
 188 276 188 276 180 268 c 0,76,77
 174 261 174 261 173 254.5 c 128,-1,78
 172 248 172 248 172 221 c 2,79,-1
 172 184 l 1,80,-1
 195 160 l 2,81,82
 219 138 219 138 222 127 c 0,83,84
 225 115 225 115 235 105 c 128,-1,85
 245 95 245 95 253 95 c 0,86,87
 262 95 262 95 270 87 c 0,88,89
 276 81 276 81 282.5 80 c 128,-1,90
 289 79 289 79 315 79 c 2,91,-1
 351 79 l 1,92,93
 356 84 356 84 367.5 94.5 c 128,-1,94
 379 105 379 105 385 111 c 1,95,-1
 411 111 l 2,96,97
 430 111 430 111 435 109.5 c 128,-1,98
 440 108 440 108 449 99 c 2,99,-1
 461 87 l 1,100,-1
 461 15 l 1,101,-1
 449 4 l 2,102,103
 437 -8 437 -8 428 -8 c 0,0,1
EndSplineSet
EndChar

StartChar: d
Encoding: 100 100 45
Width: 552
GlyphClass: 2
Flags: W
LayerCount: 2
Fore
SplineSet
303 294 m 2,0,-1
 292 304 l 1,1,-1
 228 304 l 1,2,-1
 219 293 l 2,3,4
 209 281 209 281 209 275 c 0,5,6
 209 270 209 270 201 260 c 0,7,8
 193 252 193 252 193 237 c 0,9,10
 193 221 193 221 186 214 c 0,11,12
 178 205 178 205 178 170 c 128,-1,13
 178 135 178 135 186 127 c 0,14,15
 193 120 193 120 193 112 c 128,-1,16
 193 104 193 104 201 96 c 128,-1,17
 209 88 209 88 209 84 c 0,18,19
 209 76 209 76 212 72 c 0,20,21
 216 66 216 66 269 66 c 2,22,-1
 322 66 l 1,23,24
 326 70 326 70 333 77.5 c 128,-1,25
 340 85 340 85 343 89 c 2,26,-1
 343 141 l 2,27,28
 343 180 343 180 342 187.5 c 128,-1,29
 341 195 341 195 335 200 c 0,30,31
 328 206 328 206 328 231 c 0,32,33
 328 254 328 254 320 261 c 0,34,35
 312 269 312 269 312 276 c 128,-1,36
 312 283 312 283 303 294 c 2,0,-1
356 620 m 0,37,38
 364 627 364 627 405 627 c 0,39,40
 438 627 438 627 445.5 625 c 128,-1,41
 453 623 453 623 453 613 c 0,42,43
 453 605 453 605 460 596 c 0,44,45
 466 589 466 589 467 580.5 c 128,-1,46
 468 572 468 572 468 527 c 128,-1,47
 468 482 468 482 467 473 c 128,-1,48
 466 464 466 464 460 457 c 2,49,-1
 453 448 l 1,50,-1
 453 162 l 1,51,52
 464 151 464 151 465 145.5 c 128,-1,53
 466 140 466 140 467 94 c 2,54,-1
 468 41 l 1,55,-1
 483 26 l 2,56,57
 494 15 494 15 496 11 c 128,-1,58
 498 7 498 7 498 -4 c 128,-1,59
 498 -15 498 -15 495 -20.5 c 128,-1,60
 492 -26 492 -26 479 -40 c 2,61,-1
 461 -59 l 1,62,-1
 413 -59 l 1,63,-1
 390 -59 l 2,64,65
 365 -59 365 -59 358 -52 c 0,66,67
 350 -44 350 -44 314 -44 c 128,-1,68
 278 -44 278 -44 270 -52 c 0,69,70
 263 -59 263 -59 238 -59 c 2,71,-1
 215 -59 l 1,72,-1
 192 -59 l 2,73,74
 167 -59 167 -59 160 -52 c 0,75,76
 152 -44 152 -44 144 -44 c 0,77,78
 137 -44 137 -44 125.5 -32 c 128,-1,79
 114 -20 114 -20 114 -12 c 0,80,81
 114 -6 114 -6 108 0 c 128,-1,82
 102 6 102 6 100 16 c 0,83,84
 99 25 99 25 77 47 c 2,85,-1
 56 67 l 1,86,-1
 56 132 l 2,87,88
 56 197 56 197 62 202 c 0,89,90
 66 206 66 206 70 217.5 c 128,-1,91
 74 229 74 229 78 233 c 0,92,93
 83 237 83 237 83 261 c 2,94,-1
 83 283 l 1,95,-1
 126 326 l 2,96,97
 168 368 168 368 174 368 c 128,-1,98
 180 368 180 368 190 376 c 0,99,100
 198 383 198 383 230 383 c 2,101,-1
 259 383 l 1,102,-1
 320 383 l 1,103,-1
 331 395 l 1,104,-1
 343 406 l 1,105,-1
 343 443 l 2,106,107
 343 479 343 479 335 487 c 0,108,109
 328 493 328 493 328 517 c 0,110,111
 328 539 328 539 320 546 c 0,112,113
 313 553 313 553 310 569 c 0,114,115
 309 573 309 573 309 579 c 128,-1,116
 309 585 309 585 321 598 c 0,117,118
 333 612 333 612 341 612 c 0,119,120
 346 612 346 612 356 620 c 0,37,38
EndSplineSet
EndChar

StartChar: e
Encoding: 101 101 46
Width: 508
GlyphClass: 2
Flags: W
LayerCount: 2
Fore
SplineSet
213 468 m 0,0,1
 217 470 217 470 289 470 c 2,2,-1
 362 470 l 1,3,-1
 378 454 l 2,4,5
 395 437 395 437 403 436 c 0,6,7
 414 435 414 435 426 423.5 c 128,-1,8
 438 412 438 412 438 403 c 0,9,10
 438 393 438 393 446 386 c 2,11,-1
 454 379 l 1,12,-1
 454 275 l 1,13,-1
 440 263 l 1,14,-1
 427 250 l 1,15,-1
 320 251 l 1,16,-1
 267 251 l 2,17,18
 213 251 213 251 209 248 c 128,-1,19
 205 245 205 245 205 195 c 2,20,-1
 205 147 l 1,21,22
 224 127 224 127 264 87 c 1,23,24
 280 88 280 88 312.5 88 c 128,-1,25
 345 88 345 88 362 89 c 1,26,27
 374 103 374 103 385 105 c 0,28,29
 392 106 392 106 401.5 113.5 c 128,-1,30
 411 121 411 121 417 122 c 0,31,32
 428 123 428 123 440 111 c 2,33,-1
 454 97 l 1,34,-1
 454 44 l 1,35,-1
 396 -14 l 1,36,-1
 378 -15 l 2,37,38
 361 -15 361 -15 355 -22 c 0,39,40
 351 -27 351 -27 338.5 -31 c 128,-1,41
 326 -35 326 -35 321 -40 c 0,42,43
 316 -46 316 -46 310.5 -47 c 128,-1,44
 305 -48 305 -48 279 -48 c 2,45,-1
 245 -48 l 1,46,-1
 238 -40 l 2,47,48
 231 -33 231 -33 219 -31 c 0,49,50
 210 -30 210 -30 201 -21 c 0,51,52
 193 -13 193 -13 177 -13 c 2,53,-1
 161 -13 l 1,54,55
 101 47 101 47 72 77 c 1,56,-1
 71 95 l 2,57,58
 71 99 71 99 70.5 102.5 c 128,-1,59
 70 106 70 106 69 109 c 128,-1,60
 68 112 68 112 67.5 113 c 128,-1,61
 67 114 67 114 65 116.5 c 128,-1,62
 63 119 63 119 62.5 119.5 c 128,-1,63
 62 120 62 120 58.5 122 c 128,-1,64
 55 124 55 124 54 125 c 2,65,-1
 54 279 l 1,66,-1
 63 288 l 2,67,68
 72 297 72 297 72 313 c 128,-1,69
 72 329 72 329 80 337 c 0,70,71
 88 344 88 344 88 353 c 128,-1,72
 88 362 88 362 124 398 c 0,73,74
 159 434 159 434 170 435 c 0,75,76
 178 436 178 436 194 452 c 0,77,78
 207 465 207 465 213 468 c 0,0,1
EndSplineSet
EndChar

StartChar: f
Encoding: 102 102 47
Width: 477
GlyphClass: 2
Flags: W
LayerCount: 2
Fore
SplineSet
103 499 m 0,0,1
 103 501 103 501 110.5 512.5 c 128,-1,2
 118 524 118 524 118 527 c 0,3,4
 118 531 118 531 127.5 541.5 c 128,-1,5
 137 552 137 552 141 552 c 0,6,7
 143 552 143 552 153 562 c 0,8,9
 159 568 159 568 193 600 c 2,10,-1
 223 629 l 1,11,-1
 385 629 l 1,12,13
 409 605 409 605 420 593 c 1,14,-1
 420 517 l 1,15,-1
 410 507 l 2,16,17
 404 501 404 501 392.5 497 c 128,-1,18
 381 493 381 493 376 488 c 0,19,20
 370 482 370 482 353 482 c 128,-1,21
 336 482 336 482 331 488 c 0,22,23
 328 492 328 492 316.5 496.5 c 128,-1,24
 305 501 305 501 302 504 c 0,25,26
 296 510 296 510 254 510 c 2,27,-1
 212 510 l 1,28,29
 190 488 190 488 179 478 c 1,30,-1
 179 392 l 1,31,-1
 189 383 l 1,32,-1
 198 374 l 1,33,34
 213 374 213 374 242.5 373 c 128,-1,35
 272 372 272 372 287 372 c 1,36,-1
 297 361 l 2,37,38
 307 350 307 350 307 335 c 0,39,40
 307 325 307 325 304.5 321 c 128,-1,41
 302 317 302 317 289 303 c 2,42,-1
 271 284 l 1,43,-1
 235 284 l 2,44,45
 198 284 198 284 194 279 c 0,46,47
 191 276 191 276 191 235 c 0,48,49
 191 228 191 228 191.5 204.5 c 128,-1,50
 192 181 192 181 192 164 c 2,51,-1
 193 52 l 1,52,53
 207 38 207 38 222 26 c 1,54,-1
 222 2 l 2,55,56
 222 -15 222 -15 220.5 -19.5 c 128,-1,57
 219 -24 219 -24 211 -32 c 0,58,59
 198 -43 198 -43 192 -44 c 0,60,61
 183 -46 183 -46 177 -52 c 0,62,63
 172 -58 172 -58 147 -58 c 128,-1,64
 122 -58 122 -58 118 -52 c 128,-1,65
 114 -46 114 -46 105 -44 c 0,66,67
 98 -43 98 -43 85 -32 c 0,68,69
 77 -25 77 -25 75.5 -21 c 128,-1,70
 74 -17 74 -17 74 0 c 0,71,72
 74 24 74 24 81 31 c 0,73,74
 86 36 86 36 87 48.5 c 128,-1,75
 88 61 88 61 88 124 c 0,76,77
 88 183 88 183 87 196.5 c 128,-1,78
 86 210 86 210 81 213 c 0,79,80
 75 217 75 217 75 232 c 0,81,82
 75 248 75 248 65 259 c 2,83,-1
 54 270 l 1,84,-1
 54 359 l 1,85,86
 76 381 76 381 87 391 c 1,87,-1
 88 437 l 2,88,89
 89 482 89 482 96 489 c 128,-1,90
 103 496 103 496 103 499 c 0,0,1
EndSplineSet
EndChar

StartChar: g
Encoding: 103 103 48
Width: 557
GlyphClass: 2
Flags: W
LayerCount: 2
Fore
SplineSet
322 -82 m 0,0,1
 316 -75 316 -75 258 -75 c 0,2,3
 214 -75 214 -75 206 -76 c 128,-1,4
 198 -77 198 -77 191 -83 c 0,5,6
 183 -91 183 -91 175 -91 c 128,-1,7
 167 -91 167 -91 157 -103 c 0,8,9
 147 -114 147 -114 147 -133 c 0,10,11
 147 -153 147 -153 157 -164 c 0,12,13
 166 -175 166 -175 176 -175 c 0,14,15
 185 -175 185 -175 193 -183 c 0,16,17
 200 -189 200 -189 208.5 -190 c 128,-1,18
 217 -191 217 -191 258 -191 c 0,19,20
 300 -191 300 -191 308 -190 c 128,-1,21
 316 -189 316 -189 321 -183 c 0,22,23
 329 -175 329 -175 337 -175 c 0,24,25
 347 -175 347 -175 351 -169 c 0,26,27
 354 -164 354 -164 366 -160 c 2,28,-1
 377 -157 l 1,29,-1
 378 -134 l 1,30,-1
 378 -123 l 2,31,32
 378 -110 378 -110 370 -101 c 0,33,34
 361 -92 361 -92 344 -91 c 128,-1,35
 327 -90 327 -90 322 -82 c 0,0,1
282 280 m 0,36,37
 275 288 275 288 270.5 289.5 c 128,-1,38
 266 291 266 291 251 291 c 0,39,40
 231 291 231 291 226 289 c 128,-1,41
 221 287 221 287 221 279 c 128,-1,42
 221 271 221 271 213 263 c 128,-1,43
 205 255 205 255 205 240 c 0,44,45
 205 224 205 224 199 219 c 0,46,47
 192 212 192 212 192 190 c 0,48,49
 192 174 192 174 193.5 169.5 c 128,-1,50
 195 165 195 165 203 157 c 0,51,52
 214 147 214 147 234 147 c 0,53,54
 256 147 256 147 265 157 c 0,55,56
 276 168 276 168 278 177 c 0,57,58
 280 189 280 189 286 193 c 0,59,60
 292 199 292 199 292 233 c 0,61,62
 292 259 292 259 291 265 c 128,-1,63
 290 271 290 271 282 280 c 0,36,37
159 369 m 0,64,65
 164 369 164 369 181 383.5 c 128,-1,66
 198 398 198 398 203 398 c 0,67,68
 211 398 211 398 219 406 c 0,69,70
 229 414 229 414 264 414 c 0,71,72
 290 414 290 414 296.5 413 c 128,-1,73
 303 412 303 412 308 406 c 0,74,75
 316 398 316 398 331 398 c 128,-1,76
 346 398 346 398 360 384 c 2,77,-1
 374 369 l 1,78,-1
 404 369 l 2,79,80
 433 369 433 369 442 361 c 0,81,82
 450 353 450 353 457 353 c 0,83,84
 465 353 465 353 483 335 c 0,85,86
 495 323 495 323 498 317.5 c 128,-1,87
 501 312 501 312 501 301 c 0,88,89
 501 286 501 286 493 277 c 0,90,91
 485 269 485 269 485 261 c 0,92,93
 485 247 485 247 461 247 c 0,94,95
 449 247 449 247 430 228 c 2,96,-1
 411 210 l 1,97,-1
 411 189 l 2,98,99
 411 167 411 167 405 161 c 0,100,101
 398 156 398 156 398 148 c 0,102,103
 398 139 398 139 372 113 c 0,104,105
 352 93 352 93 346.5 89.5 c 128,-1,106
 341 86 341 86 328 86 c 0,107,108
 312 86 312 86 308 79 c 0,109,110
 305 73 305 73 261 73 c 128,-1,111
 217 73 217 73 211 70 c 0,112,113
 205 66 205 66 205 58.5 c 128,-1,114
 205 51 205 51 211 47 c 0,115,116
 217 44 217 44 261 44 c 0,117,118
 304 44 304 44 308 37 c 0,119,120
 311 31 311 31 342 31 c 0,121,122
 372 31 372 31 382 23 c 0,123,124
 391 15 391 15 413 15 c 2,125,-1
 434 15 l 1,126,-1
 453 -4 l 2,127,128
 472 -25 472 -25 472 -32 c 0,129,130
 472 -40 472 -40 479 -45 c 0,131,132
 485 -50 485 -50 485 -90 c 128,-1,133
 485 -130 485 -130 479 -135 c 0,134,135
 472 -140 472 -140 472 -148 c 0,136,137
 472 -152 472 -152 464 -164 c 128,-1,138
 456 -176 456 -176 456 -180 c 0,139,140
 456 -185 456 -185 449.5 -193 c 128,-1,141
 443 -201 443 -201 443 -206 c 0,142,143
 443 -213 443 -213 438 -218 c 128,-1,144
 433 -223 433 -223 426 -223 c 0,145,146
 421 -223 421 -223 413 -229.5 c 128,-1,147
 405 -236 405 -236 400 -236 c 128,-1,148
 395 -236 395 -236 384 -244 c 128,-1,149
 373 -252 373 -252 367 -252 c 0,150,151
 358 -252 358 -252 351 -261 c 0,152,153
 343 -269 343 -269 328 -269 c 0,154,155
 312 -269 312 -269 310 -272 c 0,156,157
 307 -275 307 -275 218 -275 c 0,158,159
 128 -275 128 -275 128 -272 c 0,160,161
 128 -270 128 -270 117 -268 c 0,162,163
 107 -267 107 -267 82 -242 c 2,164,-1
 57 -217 l 1,165,-1
 57 -192 l 2,166,167
 57 -167 57 -167 63 -161 c 0,168,169
 70 -154 70 -154 70 -133 c 0,170,171
 70 -116 70 -116 72 -111.5 c 128,-1,172
 74 -107 74 -107 84 -96 c 2,173,-1
 99 -81 l 1,174,-1
 99 -52 l 2,175,176
 99 -23 99 -23 92 -16 c 128,-1,177
 85 -9 85 -9 85 6 c 0,178,179
 85 22 85 22 92 29 c 0,180,181
 99 34 99 34 99 43 c 0,182,183
 99 48 99 48 107 58 c 128,-1,184
 115 68 115 68 115 73 c 0,185,186
 115 82 115 82 123 90 c 0,187,188
 130 98 130 98 130 111 c 2,189,-1
 130 127 l 1,190,-1
 129 154 l 1,191,192
 124 158 124 158 114.5 167 c 128,-1,193
 105 176 105 176 100 181 c 1,194,-1
 100 210 l 1,195,-1
 100 227 l 2,196,197
 100 241 100 241 107 249 c 0,198,199
 115 259 115 259 115 282 c 128,-1,200
 115 305 115 305 121 309 c 0,201,202
 128 314 128 314 128 321 c 0,203,204
 128 327 128 327 136 337 c 128,-1,205
 144 347 144 347 144 353 c 0,206,207
 144 369 144 369 159 369 c 0,64,65
EndSplineSet
EndChar

StartChar: h
Encoding: 104 104 49
Width: 594
GlyphClass: 2
Flags: W
LayerCount: 2
Fore
SplineSet
263 49 m 0,0,1
 263 45 263 45 270.5 35 c 128,-1,2
 278 25 278 25 278 20 c 0,3,4
 278 12 278 12 285 5 c 128,-1,5
 292 -2 292 -2 292 -9 c 0,6,7
 292 -18 292 -18 274 -37 c 2,8,-1
 257 -55 l 1,9,-1
 234 -55 l 2,10,11
 211 -55 211 -55 205 -62 c 0,12,13
 200 -67 200 -67 194.5 -68.5 c 128,-1,14
 189 -70 189 -70 167 -70 c 128,-1,15
 145 -70 145 -70 139.5 -68.5 c 128,-1,16
 134 -67 134 -67 129 -62 c 0,17,18
 123 -55 123 -55 107 -55 c 0,19,20
 96 -55 96 -55 92 -52.5 c 128,-1,21
 88 -50 88 -50 74 -37 c 128,-1,22
 60 -24 60 -24 58 -19.5 c 128,-1,23
 56 -15 56 -15 56 -3 c 2,24,-1
 56 13 l 1,25,26
 89 43 89 43 115 70 c 1,27,28
 116 99 116 99 116 157.5 c 128,-1,29
 116 216 116 216 117 245 c 1,30,-1
 124 254 l 1,31,-1
 132 263 l 1,32,33
 132 301 132 301 130 376.5 c 128,-1,34
 128 452 128 452 128 490 c 1,35,-1
 121 499 l 2,36,37
 114 507 114 507 114 521 c 0,38,39
 114 534 114 534 106 541 c 0,40,41
 99 548 99 548 99 564 c 0,42,43
 99 576 99 576 101.5 581 c 128,-1,44
 104 586 104 586 117 599 c 128,-1,45
 130 612 130 612 135 614.5 c 128,-1,46
 140 617 140 617 153 618 c 0,47,48
 169 619 169 619 175 627 c 0,49,50
 179 633 179 633 196 633 c 0,51,52
 208 633 208 633 212.5 630.5 c 128,-1,53
 217 628 217 628 230 615 c 0,54,55
 249 597 249 597 249 588 c 0,56,57
 249 580 249 580 256 573 c 0,58,59
 263 567 263 567 263 536 c 0,60,61
 263 504 263 504 256 498 c 0,62,63
 251 493 251 493 250 485.5 c 128,-1,64
 249 478 249 478 249 440 c 0,65,66
 249 390 249 390 253 386 c 0,67,68
 256 383 256 383 290 383 c 128,-1,69
 324 383 324 383 332 390 c 128,-1,70
 340 397 340 397 372 397 c 0,71,72
 403 397 403 397 408 391 c 0,73,74
 411 386 411 386 422 384 c 0,75,76
 431 383 431 383 457 357 c 0,77,78
 482 332 482 332 482 323 c 0,79,80
 482 319 482 319 483.5 316.5 c 128,-1,81
 485 314 485 314 487 312.5 c 128,-1,82
 489 311 489 311 492.5 308.5 c 128,-1,83
 496 306 496 306 497 305 c 2,84,-1
 497 70 l 1,85,86
 511 56 511 56 511 49 c 256,87,88
 511 42 511 42 526 28 c 0,89,90
 536 18 536 18 538 14 c 128,-1,91
 540 10 540 10 540 -3 c 2,92,-1
 540 -21 l 1,93,-1
 522 -38 l 1,94,-1
 505 -56 l 1,95,-1
 429 -55 l 1,96,-1
 354 -55 l 1,97,-1
 336 -37 l 2,98,99
 318 -19 318 -19 318 -11 c 128,-1,100
 318 -3 318 -3 339 18 c 0,101,102
 360 38 360 38 362 49 c 0,103,104
 364 59 364 59 371 64 c 0,105,106
 376 68 376 68 376.5 78.5 c 128,-1,107
 377 89 377 89 378 147 c 2,108,-1
 379 226 l 1,109,-1
 372 235 l 2,110,111
 364 245 364 245 364 250 c 0,112,113
 364 257 364 257 346 275 c 2,114,-1
 329 293 l 1,115,-1
 282 293 l 1,116,-1
 266 276 l 1,117,-1
 249 260 l 1,118,-1
 249 70 l 1,119,120
 263 56 263 56 263 49 c 0,0,1
EndSplineSet
EndChar

StartChar: i
Encoding: 105 105 50
Width: 295
GlyphClass: 2
Flags: W
LayerCount: 2
Fore
SplineSet
75 375 m 0,0,1
 89 389 89 389 106 389 c 0,2,3
 109 389 109 389 120.5 388.5 c 128,-1,4
 132 388 132 388 141 388 c 2,5,-1
 186 387 l 1,6,7
 194 380 194 380 208 364 c 1,8,-1
 207 269 l 2,9,10
 206 199 206 199 205 185 c 128,-1,11
 204 171 204 171 200 166 c 0,12,13
 195 161 195 161 195 148 c 2,14,-1
 195 130 l 2,15,16
 196 100 196 100 202 93 c 0,17,18
 209 87 209 87 210 70 c 0,19,20
 213 51 213 51 226 38 c 2,21,-1
 241 22 l 1,22,-1
 241 0 l 2,23,24
 241 -17 241 -17 239.5 -21.5 c 128,-1,25
 238 -26 238 -26 228 -36 c 2,26,-1
 215 -49 l 1,27,-1
 55 -49 l 1,28,-1
 44 -37 l 2,29,30
 33 -26 33 -26 33 -13 c 0,31,32
 33 -3 33 -3 41 4 c 0,33,34
 49 12 49 12 49 19 c 0,35,36
 49 27 49 27 64 42 c 2,37,-1
 79 57 l 1,38,-1
 79 87 l 2,39,40
 79 116 79 116 87 125 c 2,41,-1
 94 135 l 1,42,-1
 94 282 l 1,43,44
 74 302 74 302 64 311 c 1,45,-1
 64 338 l 2,46,47
 64 358 64 358 65.5 363 c 128,-1,48
 67 368 67 368 75 375 c 0,0,1
90 606 m 1,49,-1
 102 617 l 1,50,-1
 170 617 l 1,51,-1
 180 608 l 2,52,53
 185 603 185 603 200 586 c 0,54,55
 210 574 210 574 210 551 c 0,56,57
 210 534 210 534 208.5 530 c 128,-1,58
 207 526 207 526 197 515 c 2,59,-1
 185 501 l 1,60,-1
 104 501 l 1,61,62
 88 517 88 517 79 525 c 1,63,-1
 79 594 l 1,64,-1
 90 606 l 1,49,-1
EndSplineSet
EndChar

StartChar: j
Encoding: 106 106 51
Width: 530
GlyphClass: 2
Flags: W
LayerCount: 2
Fore
SplineSet
187 -152 m 0,0,1
 187 -141 187 -141 195 -127.5 c 128,-1,2
 203 -114 203 -114 203 -103 c 0,3,4
 203 -88 203 -88 211 -80 c 0,5,6
 218 -73 218 -73 219 -47 c 2,7,-1
 221 -21 l 1,8,-1
 236 -5 l 1,9,-1
 252 10 l 1,10,-1
 250 73 l 1,11,-1
 250 112 l 2,12,13
 250 137 250 137 255 143 c 128,-1,14
 260 149 260 149 267 165.5 c 128,-1,15
 274 182 274 182 274 188 c 128,-1,16
 274 194 274 194 282 204 c 0,17,18
 289 214 289 214 289 223 c 0,19,20
 289 233 289 233 285 257 c 0,21,22
 282 270 282 270 291 277 c 0,23,24
 300 286 300 286 300 293 c 128,-1,25
 300 300 300 300 312 314 c 0,26,27
 321 323 321 323 325.5 325 c 128,-1,28
 330 327 330 327 344 327 c 0,29,30
 359 327 359 327 363.5 325.5 c 128,-1,31
 368 324 368 324 377 315 c 2,32,-1
 390 302 l 1,33,-1
 390 267 l 2,34,35
 390 242 390 242 389 235.5 c 128,-1,36
 388 229 388 229 382 224 c 0,37,38
 374 216 374 216 374 184 c 128,-1,39
 374 152 374 152 366 144 c 0,40,41
 357 135 357 135 357 119 c 128,-1,42
 357 103 357 103 349 95 c 128,-1,43
 341 87 341 87 341 64 c 128,-1,44
 341 41 341 41 333 32 c 128,-1,45
 325 23 325 23 325 -3 c 0,46,47
 325 -27 325 -27 317 -34 c 128,-1,48
 309 -41 309 -41 309 -66 c 0,49,50
 309 -92 309 -92 301 -99 c 128,-1,51
 293 -106 293 -106 293 -123 c 128,-1,52
 293 -140 293 -140 285 -147 c 128,-1,53
 277 -154 277 -154 277 -171 c 0,54,55
 277 -189 277 -189 269 -196 c 0,56,57
 261 -204 261 -204 261 -220 c 0,58,59
 261 -232 261 -232 258.5 -236.5 c 128,-1,60
 256 -241 256 -241 242 -256 c 2,61,-1
 223 -275 l 1,62,-1
 142 -275 l 2,63,64
 62 -275 62 -275 60 -270 c 0,65,66
 58 -264 58 -264 58 -241 c 2,67,-1
 58 -216 l 1,68,-1
 86 -188 l 1,69,-1
 166 -188 l 1,70,-1
 176 -178 l 2,71,72
 187 -167 187 -167 187 -152 c 0,0,1
409 589 m 0,73,74
 412 590 412 590 418 590 c 0,75,76
 422 590 422 590 429 589 c 128,-1,77
 436 588 436 588 441 588 c 0,78,79
 453 588 453 588 463 577 c 128,-1,80
 473 566 473 566 473 554 c 0,81,82
 473 551 473 551 471 545 c 0,83,84
 469 541 469 541 459.5 515 c 128,-1,85
 450 489 450 489 448 485 c 0,86,87
 438 469 438 469 394 469 c 0,88,89
 363 469 363 469 351.5 477 c 128,-1,90
 340 485 340 485 337 508 c 0,91,92
 335 526 335 526 335 531 c 0,93,94
 335 561 335 561 350.5 571.5 c 128,-1,95
 366 582 366 582 409 589 c 0,73,74
EndSplineSet
EndChar

StartChar: k
Encoding: 107 107 52
Width: 614
GlyphClass: 2
Flags: W
LayerCount: 2
Fore
SplineSet
108 755 m 0,0,1
 141 788 141 788 190 788 c 0,2,3
 202 788 202 788 216 785 c 0,4,5
 253 774 253 774 268 738 c 0,6,7
 277 719 277 719 278 668 c 2,8,-1
 278 643 l 2,9,10
 278 565 278 565 267 548 c 0,11,12
 255 528 255 528 255 391 c 2,13,-1
 255 341 l 1,14,-1
 266 348 l 2,15,16
 276 355 276 355 293 379 c 0,17,18
 308 401 308 401 336 429 c 128,-1,19
 364 457 364 457 375 459 c 0,20,21
 378 460 378 460 386 460 c 0,22,23
 403 460 403 460 435 447 c 0,24,25
 476 430 476 430 476 403 c 0,26,27
 476 388 476 388 469 367 c 0,28,29
 454 320 454 320 416 300 c 0,30,31
 396 289 396 289 385 276 c 0,32,33
 376 264 376 264 366 262 c 0,34,35
 358 261 358 261 348 245 c 0,36,37
 338 230 338 230 327 226 c 0,38,39
 320 224 320 224 313.5 216.5 c 128,-1,40
 307 209 307 209 307 204 c 0,41,42
 307 202 307 202 308 201 c 0,43,44
 318 186 318 186 372 165 c 0,45,46
 404 152 404 152 417 138 c 0,47,48
 432 123 432 123 448 116 c 0,49,50
 476 104 476 104 510.5 75.5 c 128,-1,51
 545 47 545 47 553 30 c 0,52,53
 558 18 558 18 558 9 c 0,54,55
 558 -7 558 -7 547 -41 c 0,56,57
 539 -67 539 -67 527 -79 c 0,58,59
 516 -90 516 -90 496 -90 c 0,60,61
 458 -90 458 -90 424.5 -75 c 128,-1,62
 391 -60 391 -60 380 -38 c 0,63,64
 375 -28 375 -28 362.5 -14.5 c 128,-1,65
 350 -1 350 -1 346 -1 c 0,66,67
 341 -1 341 -1 335.5 5.5 c 128,-1,68
 330 12 330 12 329 20 c 0,69,70
 326 29 326 29 306 38 c 0,71,72
 285 48 285 48 283 58 c 0,73,74
 280 69 280 69 269 75 c 2,75,-1
 257 81 l 1,76,-1
 256 70 l 2,77,78
 255 58 255 58 277 38 c 0,79,80
 313 5 313 5 313 -26 c 0,81,82
 313 -36 313 -36 309 -44 c 0,83,84
 303 -60 303 -60 266 -68 c 0,85,86
 240 -74 240 -74 228 -80 c 0,87,88
 206 -92 206 -92 153 -92 c 0,89,90
 107 -92 107 -92 87 -81 c 0,91,92
 54 -60 54 -60 54 -20 c 0,93,94
 54 -18 54 -18 54.5 -15 c 128,-1,95
 55 -12 55 -12 55 -11 c 0,96,97
 60 20 60 20 89 33 c 0,98,99
 96 36 96 36 100 38 c 128,-1,100
 104 40 104 40 107 43.5 c 128,-1,101
 110 47 110 47 111.5 49 c 128,-1,102
 113 51 113 51 114 57.5 c 128,-1,103
 115 64 115 64 115.5 67.5 c 128,-1,104
 116 71 116 71 116.5 82 c 128,-1,105
 117 93 117 93 118 101 c 0,106,107
 120 143 120 143 128 160 c 0,108,109
 142 187 142 187 142 374 c 0,110,111
 142 568 142 568 128 589 c 0,112,113
 122 598 122 598 118 618 c 0,114,115
 115 635 115 635 105 649 c 0,116,117
 91 666 91 666 87.5 674.5 c 128,-1,118
 84 683 84 683 84 697 c 0,119,120
 84 731 84 731 108 755 c 0,0,1
EndSplineSet
EndChar

StartChar: l
Encoding: 108 108 53
Width: 332
GlyphClass: 2
Flags: W
LayerCount: 2
Fore
SplineSet
134 630 m 0,0,1
 140 636 140 636 174 636 c 2,2,-1
 208 636 l 1,3,-1
 246 598 l 1,4,-1
 245 527 l 2,5,6
 244 457 244 457 240 452 c 0,7,8
 239 450 239 450 237 448 c 2,9,-1
 229 441 l 1,10,-1
 229 65 l 1,11,-1
 254 40 l 2,12,13
 272 22 272 22 275 16.5 c 128,-1,14
 278 11 278 11 278 0 c 0,15,16
 278 -14 278 -14 267 -25 c 0,17,18
 257 -35 257 -35 257 -39 c 0,19,20
 257 -42 257 -42 234 -42 c 0,21,22
 210 -42 210 -42 202 -49 c 0,23,24
 192 -57 192 -57 145 -57 c 2,25,-1
 96 -57 l 1,26,-1
 76 -36 l 2,27,28
 56 -16 56 -16 56 -5 c 0,29,30
 56 1 56 1 64 9 c 0,31,32
 72 15 72 15 74 27 c 128,-1,33
 76 39 76 39 87 41 c 0,34,35
 101 45 101 45 109 53 c 2,36,-1
 120 64 l 1,37,-1
 120 100 l 2,38,39
 120 136 120 136 126 147 c 0,40,41
 130 154 130 154 131 176.5 c 128,-1,42
 132 199 132 199 132 314 c 2,43,-1
 132 470 l 1,44,-1
 124 479 l 2,45,46
 117 487 117 487 117 503 c 0,47,48
 117 514 117 514 114.5 518 c 128,-1,49
 112 522 112 522 102 532 c 2,50,-1
 86 546 l 1,51,-1
 86 572 l 2,52,53
 86 592 86 592 87.5 597 c 128,-1,54
 89 602 89 602 97 610 c 0,55,56
 108 621 108 621 118 623 c 0,57,58
 129 625 129 625 134 630 c 0,0,1
EndSplineSet
EndChar

StartChar: m
Encoding: 109 109 54
Width: 887
GlyphClass: 2
Flags: W
LayerCount: 2
Fore
SplineSet
576 410 m 0,0,1
 582 410 582 410 592.5 418.5 c 128,-1,2
 603 427 603 427 609 427 c 0,3,4
 618 427 618 427 626 436 c 2,5,-1
 634 444 l 1,6,7
 651 444 651 444 686 445 c 128,-1,8
 721 446 721 446 739 446 c 1,9,-1
 770 416 l 2,10,11
 801 385 801 385 801 377 c 0,12,13
 801 370 801 370 809 360 c 2,14,-1
 817 350 l 1,15,-1
 817 113 l 1,16,-1
 827 101 l 1,17,-1
 836 89 l 1,18,-1
 836 29 l 2,19,20
 836 -20 836 -20 834 -29.5 c 128,-1,21
 832 -39 832 -39 820 -39 c 0,22,23
 811 -39 811 -39 802 -48 c 2,24,-1
 794 -57 l 1,25,-1
 731 -56 l 2,26,27
 671 -55 671 -55 665 -49 c 0,28,29
 660 -45 660 -45 660 -28 c 2,30,-1
 660 -21 l 2,31,32
 660 -3 660 -3 664.5 6 c 128,-1,33
 669 15 669 15 688 34 c 2,34,-1
 695 41 l 1,35,-1
 695 297 l 1,36,37
 687 304 687 304 671 320 c 1,38,-1
 620 322 l 1,39,-1
 569 323 l 1,40,41
 561 316 561 316 547 302 c 128,-1,42
 533 288 533 288 525 281 c 1,43,-1
 525 58 l 1,44,-1
 576 7 l 1,45,-1
 576 -12 l 2,46,47
 576 -26 576 -26 574.5 -30 c 128,-1,48
 573 -34 573 -34 564 -43 c 2,49,-1
 552 -55 l 1,50,-1
 357 -55 l 1,51,-1
 345 -42 l 2,52,53
 333 -28 333 -28 333 -20 c 0,54,55
 333 -11 333 -11 349 5 c 0,56,57
 352 8 352 8 358.5 14 c 128,-1,58
 365 20 365 20 369.5 25 c 128,-1,59
 374 30 374 30 377 33 c 2,60,-1
 387 45 l 1,61,-1
 387 275 l 1,62,-1
 377 287 l 2,63,64
 368 298 368 298 368 316 c 0,65,66
 368 333 368 333 362 337 c 0,67,68
 356 340 356 340 317 340 c 0,69,70
 288 340 288 340 281.5 338.5 c 128,-1,71
 275 337 275 337 267 330 c 0,72,73
 256 321 256 321 248 321 c 0,74,75
 233 321 233 321 233 305 c 0,76,77
 233 297 233 297 225 289 c 2,78,-1
 217 281 l 1,79,-1
 217 73 l 1,80,-1
 225 65 l 2,81,82
 233 57 233 57 233 50 c 0,83,84
 233 37 233 37 251 33 c 0,85,86
 259 31 259 31 272 20 c 0,87,88
 280 12 280 12 282 7 c 128,-1,89
 284 2 284 2 284 -12 c 128,-1,90
 284 -26 284 -26 282 -30.5 c 128,-1,91
 280 -35 280 -35 270 -45 c 2,92,-1
 256 -58 l 1,93,-1
 206 -57 l 1,94,-1
 156 -57 l 1,95,-1
 147 -65 l 2,96,97
 137 -74 137 -74 119 -74 c 2,98,-1
 100 -74 l 1,99,-1
 79 -52 l 2,100,101
 56 -29 56 -29 56 -18 c 0,102,103
 56 -11 56 -11 64 -3 c 0,104,105
 68 2 68 2 73 24 c 128,-1,106
 78 46 78 46 83 51 c 2,107,-1
 92 59 l 1,108,-1
 92 312 l 1,109,-1
 84 321 l 2,110,111
 76 329 76 329 75 356 c 2,112,-1
 74 384 l 1,113,-1
 136 446 l 1,114,-1
 170 446 l 2,115,116
 193 446 193 446 199.5 444.5 c 128,-1,117
 206 443 206 443 215 436 c 128,-1,118
 224 429 224 429 230 428 c 128,-1,119
 236 427 236 427 259 427 c 128,-1,120
 282 427 282 427 287.5 428 c 128,-1,121
 293 429 293 429 298 435 c 2,122,-1
 305 443 l 1,123,-1
 432 443 l 1,124,125
 466 409 466 409 483 391 c 1,126,-1
 517 392 l 2,127,128
 541 393 541 393 546.5 394 c 128,-1,129
 552 395 552 395 558 402 c 0,130,131
 566 410 566 410 576 410 c 0,0,1
EndSplineSet
EndChar

StartChar: n
Encoding: 110 110 55
Width: 588
GlyphClass: 2
Flags: W
LayerCount: 2
Fore
SplineSet
360 31 m 0,0,1
 360 40 360 40 376 51 c 1,2,-1
 376 272 l 1,3,-1
 368 280 l 2,4,5
 360 286 360 286 360 295 c 0,6,7
 360 303 360 303 339 325 c 2,8,-1
 319 346 l 1,9,-1
 293 346 l 2,10,11
 268 346 268 346 260 338 c 0,12,13
 254 330 254 330 244 330 c 0,14,15
 236 330 236 330 224 318 c 2,16,-1
 212 306 l 1,17,-1
 212 151 l 1,18,-1
 213 69 l 1,19,-1
 221 61 l 2,20,21
 228 55 228 55 228 44 c 0,22,23
 228 37 228 37 232.5 33.5 c 128,-1,24
 237 30 237 30 251 27 c 0,25,26
 257 25 257 25 259 21.5 c 128,-1,27
 261 18 261 18 262 0 c 0,28,29
 263 -7 263 -7 263 -18 c 0,30,31
 263 -33 263 -33 248 -48 c 2,32,-1
 237 -60 l 1,33,-1
 98 -60 l 1,34,-1
 55 -17 l 1,35,-1
 55 2 l 2,36,37
 55 22 55 22 63 28 c 128,-1,38
 71 34 71 34 71 42 c 0,39,40
 71 48 71 48 81 62 c 2,41,-1
 90 74 l 1,42,-1
 90 133 l 2,43,44
 90 177 90 177 91 185.5 c 128,-1,45
 92 194 92 194 98 199 c 128,-1,46
 104 204 104 204 105 211.5 c 128,-1,47
 106 219 106 219 106 257 c 128,-1,48
 106 295 106 295 105 302 c 128,-1,49
 104 309 104 309 98 313 c 0,50,51
 90 319 90 319 90 327 c 0,52,53
 90 336 90 336 81 347 c 0,54,55
 74 354 74 354 72.5 359.5 c 128,-1,56
 71 365 71 365 71 383 c 2,57,-1
 71 410 l 1,58,-1
 93 431 l 2,59,60
 114 452 114 452 121 452 c 0,61,62
 126 452 126 452 137 460 c 128,-1,63
 148 468 148 468 151 469 c 0,64,65
 156 471 156 471 165 471 c 0,66,67
 184 471 184 471 198 457 c 0,68,69
 211 443 211 443 212 433 c 2,70,-1
 214 422 l 1,71,-1
 233 421 l 2,72,73
 251 420 251 420 259 428 c 128,-1,74
 267 436 267 436 276 436 c 0,75,76
 282 436 282 436 292 444 c 128,-1,77
 302 452 302 452 308 452 c 0,78,79
 316 452 316 452 324 460 c 128,-1,80
 332 468 332 468 361 469 c 2,81,-1
 374 469 l 2,82,83
 388 469 388 469 396 461 c 0,84,85
 405 452 405 452 414 452 c 0,86,87
 420 452 420 452 430.5 444 c 128,-1,88
 441 436 441 436 447 436 c 0,89,90
 466 436 466 436 466 417 c 0,91,92
 466 411 466 411 474 400.5 c 128,-1,93
 482 390 482 390 482 383 c 0,94,95
 482 372 482 372 498 362 c 1,96,-1
 498 72 l 1,97,-1
 507 63 l 2,98,99
 516 53 516 53 517 36 c 0,100,101
 518 16 518 16 526 10 c 0,102,103
 534 2 534 2 534 -4 c 0,104,105
 534 -16 534 -16 511 -39 c 2,106,-1
 488 -61 l 1,107,-1
 370 -61 l 1,108,-1
 355 -47 l 2,109,110
 341 -32 341 -32 341 -15 c 0,111,112
 341 3 341 3 350 12 c 0,113,114
 360 24 360 24 360 31 c 0,0,1
EndSplineSet
EndChar

StartChar: o
Encoding: 111 111 56
Width: 633
GlyphClass: 2
Flags: W
LayerCount: 2
Fore
SplineSet
356 338 m 0,0,1
 351 344 351 344 343 345 c 128,-1,2
 335 346 335 346 298 346 c 2,3,-1
 248 346 l 1,4,-1
 236 333 l 2,5,6
 224 321 224 321 224 311 c 0,7,8
 224 302 224 302 216 296 c 0,9,10
 208 289 208 289 208 272 c 0,11,12
 208 254 208 254 200 247 c 0,13,14
 194 242 194 242 193 236 c 128,-1,15
 192 230 192 230 192 205 c 0,16,17
 192 181 192 181 193 175 c 128,-1,18
 194 169 194 169 200 164 c 0,19,20
 208 157 208 157 208 140 c 0,21,22
 208 122 208 122 216 115 c 128,-1,23
 224 108 224 108 224 90 c 0,24,25
 224 78 224 78 226 74 c 128,-1,26
 228 70 228 70 237 61 c 0,27,28
 250 48 250 48 259 48 c 128,-1,29
 268 48 268 48 274 40 c 0,30,31
 278 34 278 34 283.5 33 c 128,-1,32
 289 32 289 32 316 32 c 128,-1,33
 343 32 343 32 348 33 c 128,-1,34
 353 34 353 34 357 40 c 0,35,36
 363 48 363 48 381 48 c 0,37,38
 397 48 397 48 402 52 c 128,-1,39
 407 56 407 56 407 68 c 0,40,41
 407 74 407 74 415 82 c 0,42,43
 423 88 423 88 423 99 c 0,44,45
 423 109 423 109 431 115 c 0,46,47
 437 120 437 120 438 128.5 c 128,-1,48
 439 137 439 137 439 181 c 128,-1,49
 439 225 439 225 438 233.5 c 128,-1,50
 437 242 437 242 431 247 c 0,51,52
 423 255 423 255 423 271 c 0,53,54
 423 283 423 283 420 288.5 c 128,-1,55
 417 294 417 294 402 309 c 0,56,57
 381 330 381 330 372 330 c 0,58,59
 362 330 362 330 356 338 c 0,0,1
288 460 m 128,-1,61
 296 468 296 468 324 468 c 0,62,63
 344 468 344 468 349 467 c 128,-1,64
 354 466 354 466 358 460 c 0,65,66
 363 452 363 452 382 452 c 0,67,68
 400 452 400 452 408 444 c 0,69,70
 413 439 413 439 426 434.5 c 128,-1,71
 439 430 439 430 444 425 c 0,72,73
 450 417 450 417 460 417 c 0,74,75
 469 417 469 417 505.5 380 c 128,-1,76
 542 343 542 343 544 332 c 0,77,78
 545 326 545 326 553 315.5 c 128,-1,79
 561 305 561 305 561 298 c 0,80,81
 561 288 561 288 569 282 c 2,82,-1
 577 275 l 1,83,-1
 577 119 l 1,84,-1
 569 112 l 2,85,86
 561 104 561 104 561 96 c 128,-1,87
 561 88 561 88 553 80 c 0,88,89
 546 73 546 73 544 62 c 0,90,91
 543 52 543 52 497 6 c 2,92,-1
 452 -39 l 1,93,-1
 437 -39 l 2,94,95
 420 -39 420 -39 409 -48 c 2,96,-1
 396 -58 l 1,97,-1
 199 -58 l 1,98,-1
 189 -50 l 2,99,100
 179 -42 179 -42 173 -42 c 128,-1,101
 167 -42 167 -42 147 -24 c 0,102,103
 128 -7 128 -7 121 -7 c 0,104,105
 106 -7 106 -7 103 11 c 0,106,107
 101 23 101 23 94 30 c 0,108,109
 86 38 86 38 86 47 c 0,110,111
 86 55 86 55 70 70 c 2,112,-1
 54 85 l 1,113,-1
 54 291 l 1,114,-1
 70 307 l 2,115,116
 86 323 86 323 86 332 c 128,-1,117
 86 341 86 341 115.5 371 c 128,-1,118
 145 401 145 401 154 401 c 0,119,120
 162 401 162 401 180 418 c 0,121,122
 193 431 193 431 197.5 433.5 c 128,-1,123
 202 436 202 436 214 436 c 0,124,125
 232 436 232 436 241 444 c 128,-1,126
 250 452 250 452 266 452 c 0,127,60
 280 452 280 452 288 460 c 128,-1,61
EndSplineSet
EndChar

StartChar: p
Encoding: 112 112 57
Width: 526
GlyphClass: 2
Flags: W
LayerCount: 2
Fore
SplineSet
348 250 m 0,0,1
 348 257 348 257 341 263.5 c 128,-1,2
 334 270 334 270 334 276 c 0,3,4
 334 286 334 286 308 312 c 2,5,-1
 282 338 l 1,6,-1
 250 338 l 2,7,8
 206 338 206 338 206 325 c 0,9,10
 206 318 206 318 198 308 c 0,11,12
 189 295 189 295 189 272 c 0,13,14
 189 250 189 250 198 237 c 0,15,16
 204 229 204 229 205 221.5 c 128,-1,17
 206 214 206 214 206 183 c 0,18,19
 206 140 206 140 213 134 c 0,20,21
 220 129 220 129 220 120 c 0,22,23
 220 105 220 105 235 105 c 0,24,25
 243 105 243 105 248 98 c 0,26,27
 255 91 255 91 277 91 c 0,28,29
 300 91 300 91 304 98 c 128,-1,30
 308 105 308 105 317 105 c 128,-1,31
 326 105 326 105 337 116 c 128,-1,32
 348 127 348 127 348 136 c 0,33,34
 348 146 348 146 355 149 c 0,35,36
 361 152 361 152 361 191 c 128,-1,37
 361 230 361 230 355 235 c 0,38,39
 348 240 348 240 348 250 c 0,0,1
283 14 m 0,40,41
 270 14 270 14 263.5 7 c 128,-1,42
 257 0 257 0 245 0 c 0,43,44
 230 0 230 0 218 -10 c 2,45,-1
 206 -21 l 1,46,-1
 206 -122 l 1,47,-1
 228 -144 l 2,48,49
 244 -160 244 -160 247 -165.5 c 128,-1,50
 250 -171 250 -171 250 -182 c 0,51,52
 250 -198 250 -198 239 -210 c 2,53,-1
 228 -221 l 1,54,55
 208 -222 208 -222 168.5 -222 c 128,-1,56
 129 -222 129 -222 109 -223 c 1,57,-1
 100 -215 l 2,58,59
 91 -206 91 -206 83 -206 c 0,60,61
 76 -206 76 -206 65 -195 c 128,-1,62
 54 -184 54 -184 54 -175 c 0,63,64
 54 -165 54 -165 69 -150 c 128,-1,65
 84 -135 84 -135 84 -127 c 0,66,67
 84 -118 84 -118 91 -113 c 0,68,69
 96 -109 96 -109 97 -82 c 128,-1,70
 98 -55 98 -55 98 90 c 128,-1,71
 98 235 98 235 97 261.5 c 128,-1,72
 96 288 96 288 91 292 c 0,73,74
 84 297 84 297 84 306 c 128,-1,75
 84 315 84 315 69 330 c 0,76,77
 58 342 58 342 56 347 c 128,-1,78
 54 352 54 352 54 369 c 128,-1,79
 54 386 54 386 55.5 391 c 128,-1,80
 57 396 57 396 66 404 c 0,81,82
 80 416 80 416 86 416 c 0,83,84
 95 416 95 416 100 422 c 0,85,86
 105 429 105 429 113 429 c 128,-1,87
 121 429 121 429 125 435 c 0,88,89
 133 446 133 446 158 446 c 0,90,91
 180 446 180 446 190 437 c 0,92,93
 200 429 200 429 220 429 c 0,94,95
 239 429 239 429 245 436 c 128,-1,96
 251 443 251 443 299 443 c 0,97,98
 346 443 346 443 352 436 c 0,99,100
 357 429 357 429 366 429 c 0,101,102
 371 429 371 429 379.5 422.5 c 128,-1,103
 388 416 388 416 394 416 c 0,104,105
 401 416 401 416 420 397.5 c 128,-1,106
 439 379 439 379 439 372 c 0,107,108
 439 368 439 368 447.5 355.5 c 128,-1,109
 456 343 456 343 456 339 c 0,110,111
 456 331 456 331 463 326 c 0,112,113
 470 319 470 319 470 243 c 0,114,115
 470 189 470 189 469 177 c 128,-1,116
 468 165 468 165 463 162 c 0,117,118
 456 158 456 158 456 142 c 0,119,120
 456 130 456 130 449.5 121.5 c 128,-1,121
 443 113 443 113 407 77 c 2,122,-1
 357 27 l 1,123,-1
 334 27 l 2,124,125
 313 27 313 27 306 20 c 0,126,127
 301 14 301 14 283 14 c 0,40,41
EndSplineSet
EndChar

StartChar: q
Encoding: 113 113 58
Width: 547
GlyphClass: 2
Flags: W
LayerCount: 2
Fore
SplineSet
312 342 m 0,0,1
 305 349 305 349 299 350 c 128,-1,2
 293 351 293 351 265 351 c 2,3,-1
 228 351 l 1,4,-1
 210 334 l 2,5,6
 193 317 193 317 193 309 c 128,-1,7
 193 301 193 301 186 296 c 0,8,9
 179 289 179 289 179 237 c 128,-1,10
 179 185 179 185 186 178 c 0,11,12
 193 173 193 173 193 164 c 0,13,14
 193 158 193 158 210.5 140 c 128,-1,15
 228 122 228 122 234 122 c 0,16,17
 241 122 241 122 250 113 c 0,18,19
 260 105 260 105 269 105 c 128,-1,20
 278 105 278 105 281 98 c 128,-1,21
 284 91 284 91 308 91 c 128,-1,22
 332 91 332 91 342 101 c 2,23,-1
 352 111 l 1,24,-1
 352 192 l 2,25,26
 352 272 352 272 345 279 c 0,27,28
 338 284 338 284 338 293 c 128,-1,29
 338 302 338 302 330 310 c 0,30,31
 321 319 321 319 321 325 c 0,32,33
 321 333 321 333 312 342 c 0,0,1
145 416 m 0,34,35
 150 416 150 416 160 424.5 c 128,-1,36
 170 433 170 433 176 433 c 0,37,38
 186 433 186 433 189 439 c 0,39,40
 192 446 192 446 232 446 c 0,41,42
 270 446 270 446 276 452 c 0,43,44
 283 459 283 459 287.5 460.5 c 128,-1,45
 292 462 292 462 308 462 c 2,46,-1
 313 462 l 2,47,48
 334 461 334 461 342 453 c 0,49,50
 349 446 349 446 361 446 c 0,51,52
 374 446 374 446 386 447 c 2,53,-1
 423 449 l 1,54,55
 447 423 447 423 460 411 c 1,56,-1
 460 -110 l 1,57,-1
 475 -124 l 2,58,59
 486 -135 486 -135 488 -140 c 128,-1,60
 490 -145 490 -145 490 -162 c 0,61,62
 490 -178 490 -178 488 -183.5 c 128,-1,63
 486 -189 486 -189 478 -197 c 2,64,-1
 466 -209 l 1,65,-1
 345 -209 l 1,66,-1
 326 -191 l 2,67,68
 307 -172 307 -172 307 -162 c 128,-1,69
 307 -152 307 -152 330 -129 c 2,70,-1
 352 -107 l 1,71,72
 352 -85 352 -85 351 -41 c 128,-1,73
 350 3 350 3 350 25 c 1,74,-1
 333 26 l 2,75,76
 315 27 315 27 309 20 c 0,77,78
 305 16 305 16 295 15 c 128,-1,79
 285 14 285 14 236 14 c 2,80,-1
 168 14 l 1,81,-1
 152 29 l 2,82,83
 135 44 135 44 128 44 c 128,-1,84
 121 44 121 44 103 63.5 c 128,-1,85
 85 83 85 83 85 90 c 0,86,87
 85 95 85 95 78 103.5 c 128,-1,88
 71 112 71 112 71 117 c 0,89,90
 71 126 71 126 63 134 c 2,91,-1
 54 143 l 1,92,-1
 55 224 l 2,93,94
 56 282 56 282 57.5 295.5 c 128,-1,95
 59 309 59 309 64 314 c 0,96,97
 71 321 71 321 71 335 c 0,98,99
 71 346 71 346 76 353 c 128,-1,100
 81 360 81 360 104 383 c 0,101,102
 137 416 137 416 145 416 c 0,34,35
EndSplineSet
EndChar

StartChar: r
Encoding: 114 114 59
Width: 449
GlyphClass: 2
Flags: W
LayerCount: 2
Fore
SplineSet
287 260 m 2,0,-1
 265 260 l 2,1,2
 250 260 250 260 246 256 c 128,-1,3
 242 252 242 252 242 237 c 0,4,5
 242 223 242 223 234 215 c 128,-1,6
 226 207 226 207 226 179 c 0,7,8
 226 152 226 152 234 143 c 0,9,10
 240 137 240 137 241 130.5 c 128,-1,11
 242 124 242 124 242 97 c 2,12,-1
 242 59 l 1,13,-1
 265 37 l 2,14,15
 287 16 287 16 287 6 c 0,16,17
 287 -5 287 -5 261 -31 c 0,18,19
 234 -58 234 -58 226 -58 c 128,-1,20
 218 -58 218 -58 210 -66 c 128,-1,21
 202 -74 202 -74 179 -74 c 2,22,-1
 156 -74 l 1,23,-1
 141 -60 l 2,24,25
 126 -45 126 -45 116 -43 c 0,26,27
 106 -42 106 -42 81 -15 c 0,28,29
 56 11 56 11 56 22 c 0,30,31
 56 32 56 32 71 45 c 0,32,33
 85 59 85 59 85 66 c 128,-1,34
 85 73 85 73 93 81 c 2,35,-1
 101 89 l 1,36,-1
 101 186 l 2,37,38
 101 258 101 258 100 272 c 128,-1,39
 99 286 99 286 95 290 c 0,40,41
 88 296 88 296 88 329 c 128,-1,42
 88 362 88 362 95 368 c 0,43,44
 101 372 101 372 101 382 c 0,45,46
 101 390 101 390 112.5 402 c 128,-1,47
 124 414 124 414 132 414 c 0,48,49
 139 414 139 414 155 430 c 2,50,-1
 172 446 l 1,51,-1
 194 446 l 2,52,53
 217 446 217 446 224 438 c 0,54,55
 232 430 232 430 262 430 c 0,56,57
 294 430 294 430 298 437 c 0,58,59
 303 444 303 444 322 444 c 0,60,61
 342 444 342 444 347 437 c 0,62,63
 351 430 351 430 361 430 c 0,64,65
 377 430 377 430 377 414 c 0,66,67
 377 404 377 404 385 398 c 0,68,69
 391 393 391 393 392 386 c 128,-1,70
 393 379 393 379 393 344 c 2,71,-1
 393 298 l 1,72,-1
 381 285 l 2,73,74
 368 272 368 272 352 272 c 128,-1,75
 336 272 336 272 331 266 c 128,-1,76
 326 260 326 260 287 260 c 2,0,-1
EndSplineSet
EndChar

StartChar: s
Encoding: 115 115 60
Width: 434
GlyphClass: 2
Flags: W
LayerCount: 2
Fore
SplineSet
90 360 m 0,0,1
 90 366 90 366 98.5 377 c 128,-1,2
 107 388 107 388 107 393 c 0,3,4
 107 407 107 407 127 411 c 0,5,6
 136 412 136 412 142.5 419 c 128,-1,7
 149 426 149 426 157 427 c 0,8,9
 170 428 170 428 184 444 c 2,10,-1
 198 460 l 1,11,-1
 252 460 l 1,12,-1
 278 460 l 2,13,14
 306 460 306 460 311 453 c 0,15,16
 316 444 316 444 328 443 c 128,-1,17
 340 442 340 442 360 420 c 2,18,-1
 380 400 l 1,19,-1
 380 313 l 1,20,-1
 367 300 l 2,21,22
 353 286 353 286 336 286 c 2,23,-1
 319 286 l 1,24,-1
 292 312 l 2,25,26
 265 338 265 338 252 338 c 0,27,28
 237 338 237 338 233.5 333 c 128,-1,29
 230 328 230 328 230 307 c 0,30,31
 230 288 230 288 232.5 284 c 128,-1,32
 235 280 235 280 249 275 c 0,33,34
 262 270 262 270 319 211 c 2,35,-1
 380 150 l 1,36,-1
 380 47 l 1,37,38
 349 15 349 15 285 -49 c 1,39,-1
 269 -49 l 2,40,41
 253 -49 253 -49 244 -57 c 0,42,43
 237 -63 237 -63 230 -64 c 128,-1,44
 223 -65 223 -65 193 -65 c 0,45,46
 153 -65 153 -65 143 -57 c 0,47,48
 134 -49 134 -49 116 -48 c 0,49,50
 104 -47 104 -47 98.5 -44 c 128,-1,51
 93 -41 93 -41 78 -26 c 128,-1,52
 63 -11 63 -11 59 -2.5 c 128,-1,53
 55 6 55 6 55 24 c 0,54,55
 55 27 55 27 55.5 35.5 c 128,-1,56
 56 44 56 44 56 50 c 2,57,-1
 57 83 l 1,58,-1
 69 96 l 2,59,60
 78 105 78 105 83 107 c 128,-1,61
 88 109 88 109 102 109 c 2,62,-1
 122 109 l 1,63,-1
 145 85 l 2,64,65
 176 54 176 54 184.5 48 c 128,-1,66
 193 42 193 42 209 42 c 0,67,68
 230 42 230 42 235 48 c 128,-1,69
 240 54 240 54 241 79 c 2,70,-1
 241 95 l 2,71,72
 241 110 241 110 232 121 c 0,73,74
 222 134 222 134 210 137 c 0,75,76
 199 138 199 138 183 155 c 0,77,78
 168 170 168 170 158 170 c 0,79,80
 152 170 152 170 141.5 178.5 c 128,-1,81
 131 187 131 187 126 187 c 0,82,83
 116 187 116 187 104 199 c 0,84,85
 90 213 90 213 90 229 c 0,86,87
 90 247 90 247 82 254 c 0,88,89
 76 259 76 259 75 265.5 c 128,-1,90
 74 272 74 272 74 299 c 128,-1,91
 74 326 74 326 75 332 c 128,-1,92
 76 338 76 338 82 343 c 0,93,94
 90 351 90 351 90 360 c 0,0,1
EndSplineSet
EndChar

StartChar: t
Encoding: 116 116 61
Width: 432
GlyphClass: 2
Flags: W
LayerCount: 2
Fore
SplineSet
106 -1 m 128,-1,1
 106 9 106 9 89 20 c 1,2,-1
 89 84 l 2,3,4
 89 132 89 132 90 141 c 128,-1,5
 91 150 91 150 97 157 c 0,6,7
 103 163 103 163 104.5 170.5 c 128,-1,8
 106 178 106 178 106 209 c 128,-1,9
 106 240 106 240 104.5 247.5 c 128,-1,10
 103 255 103 255 97 260 c 0,11,12
 89 268 89 268 89 295 c 128,-1,13
 89 322 89 322 81 328 c 128,-1,14
 73 334 73 334 73 342 c 0,15,16
 73 353 73 353 64 362 c 0,17,18
 54 374 54 374 54 392 c 0,19,20
 54 411 54 411 62 419 c 0,21,22
 69 426 69 426 71 436 c 0,23,24
 73 447 73 447 103.5 478 c 128,-1,25
 134 509 134 509 144 509 c 0,26,27
 152 509 152 509 160 517 c 0,28,29
 167 525 167 525 189 525 c 2,30,-1
 209 525 l 1,31,-1
 231 503 l 2,32,33
 253 481 253 481 254 470 c 2,34,-1
 255 459 l 1,35,-1
 302 458 l 1,36,-1
 349 456 l 1,37,-1
 363 443 l 1,38,-1
 376 429 l 1,39,-1
 376 391 l 2,40,41
 376 360 376 360 373 352.5 c 128,-1,42
 370 345 370 345 358 345 c 0,43,44
 348 345 348 345 341 336 c 0,45,46
 336 329 336 329 329 328 c 128,-1,47
 322 327 322 327 287 326 c 2,48,-1
 240 325 l 1,49,-1
 218 303 l 1,50,-1
 218 114 l 1,51,-1
 236 96 l 2,52,53
 253 81 253 81 254 68 c 0,54,55
 255 60 255 60 257 58.5 c 128,-1,56
 259 57 259 57 269 55 c 0,57,58
 281 54 281 54 287 46 c 0,59,60
 291 41 291 41 314 38 c 0,61,62
 336 36 336 36 338 34 c 128,-1,63
 340 32 340 32 340 -3 c 2,64,-1
 339 -36 l 1,65,-1
 325 -39 l 2,66,67
 310 -42 310 -42 304 -49 c 2,68,-1
 298 -58 l 1,69,-1
 152 -58 l 1,70,-1
 129 -34 l 2,71,0
 106 -11 106 -11 106 -1 c 128,-1,1
EndSplineSet
EndChar

StartChar: u
Encoding: 117 117 62
Width: 592
GlyphClass: 2
Flags: W
LayerCount: 2
Fore
SplineSet
285 399 m 2,0,-1
 285 407 l 2,1,2
 285 426 285 426 288.5 430.5 c 128,-1,3
 292 435 292 435 310 435 c 0,4,5
 325 435 325 435 336 443 c 0,6,7
 346 452 346 452 386 452 c 2,8,-1
 426 452 l 1,9,-1
 439 439 l 2,10,11
 451 427 451 427 453 417 c 0,12,13
 455 405 455 405 462 400 c 0,14,15
 469 394 469 394 469 358 c 128,-1,16
 469 322 469 322 461 316 c 0,17,18
 454 311 454 311 453 269 c 2,19,-1
 453 250 l 2,20,21
 453 228 453 228 460 221 c 0,22,23
 465 216 465 216 466 205.5 c 128,-1,24
 467 195 467 195 468 148 c 2,25,-1
 470 84 l 1,26,-1
 480 71 l 2,27,28
 490 58 490 58 499 58 c 0,29,30
 509 58 509 58 522 45 c 0,31,32
 536 31 536 31 536 23 c 0,33,34
 536 13 536 13 506 -17 c 0,35,36
 484 -39 484 -39 478 -43 c 128,-1,37
 472 -47 472 -47 460 -47 c 0,38,39
 444 -47 444 -47 437 -54 c 0,40,41
 429 -62 429 -62 403 -63 c 2,42,-1
 377 -64 l 1,43,44
 371 -59 371 -59 359 -47.5 c 128,-1,45
 347 -36 347 -36 341 -30 c 1,46,-1
 311 -30 l 2,47,48
 281 -30 281 -30 273 -38 c 0,49,50
 267 -44 267 -44 256.5 -45.5 c 128,-1,51
 246 -47 246 -47 198 -47 c 2,52,-1
 133 -47 l 1,53,54
 103 -19 103 -19 75 11 c 1,55,-1
 74 113 l 2,56,57
 74 209 74 209 72 295 c 0,58,59
 71 350 71 350 69 362.5 c 128,-1,60
 67 375 67 375 62 381 c 0,61,62
 54 389 54 389 54 397 c 0,63,64
 54 409 54 409 75 430 c 2,65,-1
 96 452 l 1,66,-1
 166 452 l 1,67,68
 170 447 170 447 178 439 c 128,-1,69
 186 431 186 431 190 426 c 1,70,-1
 190 97 l 1,71,72
 211 79 211 79 229 58 c 1,73,-1
 255 58 l 2,74,75
 282 58 282 58 285 65 c 0,76,77
 289 70 289 70 302.5 75.5 c 128,-1,78
 316 81 316 81 321 85 c 2,79,-1
 332 95 l 1,80,-1
 332 219 l 1,81,-1
 331 345 l 1,82,-1
 319 347 l 2,83,84
 308 349 308 349 296 361 c 0,85,86
 288 369 288 369 286.5 374 c 128,-1,87
 285 379 285 379 285 399 c 2,0,-1
EndSplineSet
EndChar

StartChar: v
Encoding: 118 118 63
Width: 576
GlyphClass: 2
Flags: W
LayerCount: 2
Fore
SplineSet
423 236 m 128,-1,1
 423 231 423 231 415.5 220 c 128,-1,2
 408 209 408 209 408 205 c 0,3,4
 408 199 408 199 400 189 c 0,5,6
 393 181 393 181 393 157 c 0,7,8
 393 134 393 134 385 125 c 0,9,10
 377 115 377 115 377 109 c 0,11,12
 377 102 377 102 361 86 c 2,13,-1
 344 69 l 1,14,-1
 344 43 l 2,15,16
 344 19 344 19 336 13 c 0,17,18
 329 7 329 7 329 -1 c 0,19,20
 329 -10 329 -10 308 -31 c 0,21,22
 293 -46 293 -46 288 -49 c 128,-1,23
 283 -52 283 -52 270 -52 c 2,24,-1
 253 -52 l 1,25,-1
 197 4 l 1,26,-1
 197 45 l 2,27,28
 197 75 197 75 196 81 c 128,-1,29
 195 87 195 87 189 92 c 0,30,31
 181 100 181 100 180 117 c 0,32,33
 179 135 179 135 171 144 c 0,34,35
 164 152 164 152 164 167 c 0,36,37
 164 180 164 180 156 189 c 0,38,39
 149 197 149 197 149 214 c 0,40,41
 149 225 149 225 146.5 229 c 128,-1,42
 144 233 144 233 133 244 c 0,43,44
 118 258 118 258 118 266 c 128,-1,45
 118 274 118 274 110 282 c 0,46,47
 103 289 103 289 101 300 c 128,-1,48
 99 311 99 311 84 325 c 0,49,50
 73 335 73 335 71 339 c 128,-1,51
 69 343 69 343 69 355 c 0,52,53
 69 373 69 373 62 379 c 0,54,55
 54 386 54 386 54 405 c 0,56,57
 54 419 54 419 56 423 c 128,-1,58
 58 427 58 427 67 436 c 2,59,-1
 79 448 l 1,60,-1
 222 448 l 1,61,-1
 230 440 l 2,62,63
 236 434 236 434 249.5 430 c 128,-1,64
 263 426 263 426 270 419 c 0,65,66
 278 412 278 412 279.5 407.5 c 128,-1,67
 281 403 281 403 281 388 c 2,68,-1
 281 369 l 1,69,70
 275 365 275 365 264.5 355.5 c 128,-1,71
 254 346 254 346 249 341 c 1,72,-1
 249 285 l 2,73,74
 249 243 249 243 250 235.5 c 128,-1,75
 251 228 251 228 257 223 c 0,76,77
 265 217 265 217 265 208 c 0,78,79
 265 198 265 198 272 192 c 0,80,81
 280 184 280 184 280 179 c 0,82,83
 280 161 280 161 302 161 c 0,84,85
 319 161 319 161 329 172 c 128,-1,86
 339 183 339 183 340 200 c 0,87,88
 341 218 341 218 348 226 c 0,89,90
 356 235 356 235 356 250 c 0,91,92
 356 263 356 263 364 271 c 0,93,94
 371 278 371 278 371 310 c 0,95,96
 371 340 371 340 365 344 c 0,97,98
 360 347 360 347 353 347 c 0,99,100
 347 347 347 347 334 360 c 0,101,102
 322 372 322 372 322 389 c 0,103,104
 322 404 322 404 334 417 c 0,105,106
 345 429 345 429 356 431 c 128,-1,107
 367 433 367 433 372 440 c 0,108,109
 378 447 378 447 435 448 c 2,110,-1
 492 448 l 1,111,-1
 506 436 l 2,112,113
 516 427 516 427 517.5 422.5 c 128,-1,114
 519 418 519 418 519 404 c 2,115,-1
 519 385 l 1,116,-1
 503 370 l 2,117,118
 487 355 487 355 487 347 c 0,119,120
 487 341 487 341 471.5 322.5 c 128,-1,121
 456 304 456 304 455 299 c 0,122,123
 454 293 454 293 446 283 c 128,-1,124
 438 273 438 273 438 266 c 0,125,126
 438 260 438 260 430.5 250.5 c 128,-1,0
 423 241 423 241 423 236 c 128,-1,1
EndSplineSet
EndChar

StartChar: w
Encoding: 119 119 64
Width: 955
GlyphClass: 2
Flags: W
LayerCount: 2
Fore
SplineSet
203 81 m 0,0,1
 203 90 203 90 194.5 103.5 c 128,-1,2
 186 117 186 117 186 125 c 0,3,4
 186 157 186 157 174 161 c 0,5,6
 169 163 169 163 167 176 c 0,7,8
 163 202 163 202 150 217 c 0,9,10
 142 226 142 226 121 266 c 0,11,12
 103 298 103 298 90 315 c 2,13,-1
 76 332 l 1,14,15
 74 367 74 367 62 382 c 0,16,17
 56 390 56 390 57 411 c 0,18,19
 59 428 59 428 65 436 c 128,-1,20
 71 444 71 444 87 447 c 0,21,22
 95 449 95 449 135 449 c 0,23,24
 224 449 224 449 249 442 c 0,25,26
 306 428 306 428 306 385 c 0,27,28
 306 366 306 366 288 348 c 0,29,30
 273 333 273 333 273 287 c 0,31,32
 273 220 273 220 299 166 c 0,33,34
 319 127 319 127 341 127 c 0,35,36
 348 127 348 127 355 130 c 0,37,38
 377 140 377 140 380 167 c 0,39,40
 381 177 381 177 389.5 195 c 128,-1,41
 398 213 398 213 399 224 c 0,42,43
 401 237 401 237 407.5 249 c 128,-1,44
 414 261 414 261 415 273 c 0,45,46
 416 277 416 277 416 284 c 0,47,48
 416 302 416 302 399 318 c 0,49,50
 392 323 392 323 388 337 c 0,51,52
 386 344 386 344 373 362 c 0,53,54
 364 372 364 372 364 382 c 0,55,56
 364 390 364 390 365 396 c 0,57,58
 369 438 369 438 387 445 c 0,59,60
 395 448 395 448 462 450 c 2,61,-1
 501 450 l 2,62,63
 533 450 533 450 556 444 c 0,64,65
 617 428 617 428 617 385 c 0,66,67
 617 375 617 375 611 361.5 c 128,-1,68
 605 348 605 348 601 348 c 0,69,70
 598 348 598 348 591 330 c 0,71,72
 585 312 585 312 585 286 c 0,73,74
 585 219 585 219 611 167 c 0,75,76
 620 149 620 149 632 137 c 128,-1,77
 644 125 644 125 653 125 c 0,78,79
 668 125 668 125 680.5 140 c 128,-1,80
 693 155 693 155 693 173 c 0,81,82
 693 182 693 182 700 191 c 0,83,84
 704 195 704 195 709.5 220 c 128,-1,85
 715 245 715 245 719 249 c 0,86,87
 729 261 729 261 729 301 c 2,88,-1
 729 310 l 1,89,90
 725 336 725 336 703 348 c 0,91,92
 676 363 676 363 676 390 c 0,93,94
 676 420 676 420 707 430 c 0,95,96
 725 436 725 436 731 442 c 0,97,98
 739 449 739 449 797 449 c 0,99,100
 848 449 848 449 864 445 c 128,-1,101
 880 441 880 441 890 427 c 0,102,103
 899 415 899 415 899 404 c 0,104,105
 899 388 899 388 875 361 c 0,106,107
 864 348 864 348 864 343 c 128,-1,108
 864 338 864 338 845 317 c 128,-1,109
 826 296 826 296 826 288 c 0,110,111
 826 278 826 278 818 272 c 0,112,113
 812 267 812 267 807 252.5 c 128,-1,114
 802 238 802 238 797 233 c 0,115,116
 789 225 789 225 789 215 c 0,117,118
 789 207 789 207 780 196 c 128,-1,119
 771 185 771 185 770 177 c 0,120,121
 768 164 768 164 761 159 c 0,122,123
 754 153 754 153 751 129 c 0,124,125
 744 79 744 79 712 40 c 0,126,127
 699 24 699 24 698 13 c 0,128,129
 687 -54 687 -54 656 -88 c 0,130,131
 649 -96 649 -96 636 -103.5 c 128,-1,132
 623 -111 623 -111 616 -111 c 0,133,134
 604 -111 604 -111 580.5 -93.5 c 128,-1,135
 557 -76 557 -76 546 -58 c 0,136,137
 537 -44 537 -44 535 -9 c 0,138,139
 531 47 531 47 525 47 c 0,140,141
 522 47 522 47 518.5 59 c 128,-1,142
 515 71 515 71 515 81 c 0,143,144
 515 94 515 94 507 102 c 0,145,146
 500 109 500 109 497 132 c 0,147,148
 494 154 494 154 487 160 c 0,149,150
 479 166 479 166 478 181 c 0,151,152
 476 197 476 197 473 199 c 0,153,154
 472 199 472 199 472 199.5 c 128,-1,155
 472 200 472 200 471 200 c 0,156,157
 466 200 466 200 459 181 c 128,-1,158
 452 162 452 162 449 159 c 0,159,160
 442 155 442 155 439 132 c 0,161,162
 434 88 434 88 410 54 c 0,163,164
 408 52 408 52 404 46.5 c 128,-1,165
 400 41 400 41 399 39.5 c 128,-1,166
 398 38 398 38 395 34 c 128,-1,167
 392 30 392 30 391.5 28 c 128,-1,168
 391 26 391 26 389.5 21.5 c 128,-1,169
 388 17 388 17 387 12.5 c 128,-1,170
 386 8 386 8 385 1 c 0,171,172
 380 -42 380 -42 352 -77 c 0,173,174
 341 -91 341 -91 327 -101 c 128,-1,175
 313 -111 313 -111 304 -111 c 0,176,177
 286 -111 286 -111 257 -84 c 0,178,179
 238 -67 238 -67 231.5 -53 c 128,-1,180
 225 -39 225 -39 223 -9 c 0,181,182
 219 47 219 47 213 47 c 0,183,184
 210 47 210 47 206.5 59 c 128,-1,185
 203 71 203 71 203 81 c 0,0,1
EndSplineSet
EndChar

StartChar: x
Encoding: 120 120 65
Width: 563
GlyphClass: 2
Flags: W
LayerCount: 2
Fore
SplineSet
90 410 m 1,0,1
 106 428 106 428 115 436 c 1,2,-1
 223 436 l 1,3,4
 237 423 237 423 265 395 c 1,5,-1
 267 357 l 1,6,-1
 268 319 l 1,7,-1
 311 319 l 1,8,9
 312 334 312 334 312 364.5 c 128,-1,10
 312 395 312 395 313 410 c 1,11,12
 329 428 329 428 338 436 c 1,13,-1
 447 436 l 1,14,-1
 459 425 l 2,15,16
 471 413 471 413 471 403 c 0,17,18
 471 394 471 394 480 385 c 0,19,20
 489 378 489 378 489 375 c 128,-1,21
 489 372 489 372 466 351 c 0,22,23
 413 300 413 300 399 284.5 c 128,-1,24
 385 269 385 269 385 263 c 0,25,26
 385 254 385 254 376 245 c 2,27,-1
 367 235 l 1,28,-1
 368 194 l 2,29,30
 369 164 369 164 370 157.5 c 128,-1,31
 371 151 371 151 377 145 c 0,32,33
 385 137 385 137 385 129 c 0,34,35
 385 120 385 120 419 87 c 0,36,37
 454 52 454 52 455 43 c 0,38,39
 458 32 458 32 483 7 c 2,40,-1
 508 -18 l 1,41,-1
 507 -36 l 2,42,43
 506 -55 506 -55 493 -68 c 2,44,-1
 479 -81 l 1,45,-1
 437 -81 l 2,46,47
 395 -81 395 -81 388 -87 c 0,48,49
 380 -93 380 -93 376 -93 c 0,50,51
 368 -93 368 -93 355 -79 c 0,52,53
 340 -64 340 -64 333 -64 c 128,-1,54
 326 -64 326 -64 319 -59 c 128,-1,55
 312 -54 312 -54 312 -18 c 0,56,57
 312 8 312 8 311 13.5 c 128,-1,58
 310 19 310 19 305 23 c 0,59,60
 297 28 297 28 297 45 c 0,61,62
 297 61 297 61 293.5 67 c 128,-1,63
 290 73 290 73 281 73 c 128,-1,64
 272 73 272 73 260 61 c 2,65,-1
 248 48 l 1,66,-1
 248 -4 l 2,67,68
 248 -57 248 -57 245 -60 c 0,69,70
 241 -64 241 -64 170 -64 c 2,71,-1
 100 -64 l 1,72,-1
 90 -55 l 2,73,74
 81 -46 81 -46 72 -46 c 0,75,76
 62 -46 62 -46 59 -40.5 c 128,-1,77
 56 -35 56 -35 56 -18 c 0,78,79
 56 -3 56 -3 57.5 1 c 128,-1,80
 59 5 59 5 69 15 c 0,81,82
 83 28 83 28 92 28 c 128,-1,83
 101 28 101 28 107 35 c 128,-1,84
 113 42 113 42 126 45 c 0,85,86
 136 46 136 46 138 48 c 128,-1,87
 140 50 140 50 141 58 c 0,88,89
 142 68 142 68 177 104 c 2,90,-1
 212 140 l 1,91,-1
 212 161 l 2,92,93
 212 182 212 182 202 193 c 0,94,95
 193 204 193 204 193 212 c 0,96,97
 193 219 193 219 185 229 c 128,-1,98
 177 239 177 239 176 245 c 128,-1,99
 175 251 175 251 167.5 261.5 c 128,-1,100
 160 272 160 272 160 279 c 0,101,102
 160 287 160 287 125 322 c 2,103,-1
 90 357 l 1,104,-1
 90 410 l 1,0,1
EndSplineSet
EndChar

StartChar: y
Encoding: 121 121 66
Width: 594
GlyphClass: 2
Flags: W
LayerCount: 2
Fore
SplineSet
303 -105 m 0,0,1
 303 -112 303 -112 293 -124 c 128,-1,2
 283 -136 283 -136 283 -143 c 0,3,4
 283 -154 283 -154 269 -168 c 128,-1,5
 255 -182 255 -182 242 -184 c 0,6,7
 229 -187 229 -187 208 -209 c 0,8,9
 196 -222 196 -222 165 -253 c 2,10,-1
 144 -275 l 1,11,-1
 61 -275 l 1,12,13
 57 -261 57 -261 57 -251 c 0,14,15
 57 -249 57 -249 57.5 -246 c 128,-1,16
 58 -243 58 -243 58 -242 c 0,17,18
 59 -229 59 -229 63.5 -222.5 c 128,-1,19
 68 -216 68 -216 94 -190 c 0,20,21
 128 -156 128 -156 138 -156 c 128,-1,22
 148 -156 148 -156 172 -133 c 0,23,24
 195 -111 195 -111 198 -98 c 0,25,26
 199 -89 199 -89 208 -79 c 128,-1,27
 217 -69 217 -69 218 -60 c 0,28,29
 219 -47 219 -47 238 -30 c 2,30,-1
 257 -11 l 1,31,-1
 257 10 l 2,32,33
 257 25 257 25 258.5 29 c 128,-1,34
 260 33 260 33 267 38 c 2,35,-1
 277 45 l 1,36,-1
 277 148 l 1,37,-1
 286 156 l 1,38,-1
 296 164 l 1,39,-1
 296 263 l 1,40,-1
 283 277 l 1,41,-1
 269 290 l 1,42,-1
 209 290 l 1,43,-1
 195 305 l 2,44,45
 184 316 184 316 182 321 c 128,-1,46
 180 326 180 326 179 342 c 2,47,-1
 179 364 l 1,48,49
 194 378 194 378 222 407.5 c 128,-1,50
 250 437 250 437 265 452 c 1,51,-1
 318 452 l 1,52,-1
 371 453 l 1,53,-1
 397 427 l 2,54,55
 422 402 422 402 422 392 c 0,56,57
 422 380 422 380 425 380 c 0,58,59
 431 380 431 380 455 406 c 2,60,-1
 482 433 l 1,61,-1
 506 433 l 2,62,63
 531 433 531 433 534 430 c 0,64,65
 538 426 538 426 538 382 c 2,66,-1
 538 338 l 1,67,-1
 528 329 l 2,68,69
 518 320 518 320 518 309 c 128,-1,70
 518 298 518 298 509 290 c 0,71,72
 499 281 499 281 499 261 c 128,-1,73
 499 241 499 241 489 232 c 0,74,75
 480 224 480 224 480 213 c 0,76,77
 480 206 480 206 470 193.5 c 128,-1,78
 460 181 460 181 460 174 c 0,79,80
 460 162 460 162 451 154 c 0,81,82
 441 145 441 145 441 125 c 128,-1,83
 441 105 441 105 431 96 c 0,84,85
 422 88 422 88 422 77 c 128,-1,86
 422 66 422 66 393 37 c 0,87,88
 363 7 363 7 362 -4 c 0,89,90
 361 -12 361 -12 352 -24.5 c 128,-1,91
 343 -37 343 -37 342 -45 c 0,92,93
 339 -58 339 -58 321 -76 c 128,-1,94
 303 -94 303 -94 303 -105 c 0,0,1
EndSplineSet
EndChar

StartChar: z
Encoding: 122 122 67
Width: 773
GlyphClass: 2
Flags: W
LayerCount: 2
Fore
SplineSet
615 485 m 0,0,1
 616 489 616 489 627 489 c 0,2,3
 647 489 647 489 663 480 c 0,4,5
 701 459 701 459 701 407 c 0,6,7
 701 368 701 368 675 352 c 0,8,9
 665 346 665 346 642 318 c 0,10,11
 621 290 621 290 605 280 c 0,12,13
 588 269 588 269 550 223 c 2,14,-1
 540 210 l 1,15,-1
 542 212 l 2,16,17
 545 213 545 213 549 215.5 c 128,-1,18
 553 218 553 218 556 218 c 0,19,20
 561 218 561 218 573 232 c 0,21,22
 582 242 582 242 586 244 c 128,-1,23
 590 246 590 246 597 244 c 0,24,25
 628 238 628 238 638 183 c 0,26,27
 640 167 640 167 640 161 c 0,28,29
 640 109 640 109 602 98 c 0,30,31
 590 95 590 95 569 95 c 0,32,33
 530 95 530 95 518 102 c 0,34,35
 509 107 509 107 486 109 c 2,36,-1
 463 111 l 1,37,38
 450 92 450 92 422.5 55.5 c 128,-1,39
 395 19 395 19 381 1 c 1,40,-1
 435 4 l 2,41,42
 563 9 563 9 573 17 c 0,43,44
 577 21 577 21 594.5 26.5 c 128,-1,45
 612 32 612 32 617 37 c 0,46,47
 636 54 636 54 654 54 c 0,48,49
 666 54 666 54 679 47 c 0,50,51
 697 37 697 37 708 16 c 128,-1,52
 719 -5 719 -5 719 -28 c 0,53,54
 719 -44 719 -44 713 -58 c 0,55,56
 702 -80 702 -80 681 -89 c 0,57,58
 664 -96 664 -96 605 -96 c 0,59,60
 554 -96 554 -96 547 -90 c 0,61,62
 542 -86 542 -86 454 -86 c 2,63,-1
 367 -86 l 1,64,-1
 193 -86 l 1,65,-1
 176 -95 l 2,66,67
 160 -103 160 -103 142 -103 c 0,68,69
 105 -103 105 -103 86 -71 c 0,70,71
 78 -57 78 -57 78 -22 c 2,72,-1
 78 14 l 1,73,-1
 92 21 l 2,74,75
 108 29 108 29 112 33 c 0,76,77
 118 38 118 38 130 32 c 0,78,79
 155 21 155 21 204 18 c 0,80,81
 213 17 213 17 225 17 c 0,82,83
 239 17 239 17 252 25 c 0,84,85
 283 44 283 44 317 87 c 2,86,-1
 337 113 l 1,87,-1
 309 110 l 2,88,89
 276 107 276 107 265 101 c 128,-1,90
 254 95 254 95 245 95 c 0,91,92
 217 95 217 95 206 135 c 0,93,94
 203 145 203 145 203 179 c 0,95,96
 203 195 203 195 204 202.5 c 128,-1,97
 205 210 205 210 206 212.5 c 128,-1,98
 207 215 207 215 212.5 219 c 128,-1,99
 218 223 218 223 222 227 c 2,100,-1
 231 235 l 1,101,-1
 247 226 l 2,102,103
 263 218 263 218 293 215 c 0,104,105
 313 213 313 213 331 206 c 128,-1,106
 349 199 349 199 380 198 c 2,107,-1
 421 196 l 1,108,-1
 452 237 l 2,109,110
 524 334 524 334 524 344 c 0,111,112
 524 349 524 349 347 349 c 2,113,-1
 173 349 l 1,114,-1
 158 341 l 2,115,116
 142 332 142 332 123 332 c 128,-1,117
 104 332 104 332 89 342 c 0,118,119
 73 354 73 354 67 365.5 c 128,-1,120
 61 377 61 377 58 402 c 0,121,122
 56 422 56 422 56 427 c 0,123,124
 56 440 56 440 60.5 446.5 c 128,-1,125
 65 453 65 453 78 458 c 0,126,127
 93 465 93 465 93 468 c 128,-1,128
 93 471 93 471 97 471 c 0,129,130
 102 471 102 471 124 463 c 0,131,132
 139 457 139 457 186 454 c 128,-1,133
 233 451 233 451 244 445 c 0,134,135
 257 439 257 439 359 439 c 0,136,137
 456 439 456 439 504 443 c 0,138,139
 535 446 535 446 543.5 448.5 c 128,-1,140
 552 451 552 451 566 461 c 0,141,142
 584 474 584 474 599 478 c 0,143,144
 613 482 613 482 615 485 c 0,0,1
EndSplineSet
EndChar

StartChar: acute
Encoding: 180 180 69
Width: 307
GlyphClass: 2
Flags: W
LayerCount: 2
Fore
SplineSet
189 492 m 0,0,1
 189 484 189 484 178.5 471.5 c 128,-1,2
 168 459 168 459 168 450 c 0,3,4
 168 438 168 438 151 422 c 0,5,6
 140 411 140 411 135 409 c 128,-1,7
 130 407 130 407 117 407 c 2,8,-1
 110 407 l 1,9,-1
 86 407 l 1,10,-1
 69 423 l 2,11,12
 58 434 58 434 55.5 439 c 128,-1,13
 53 444 53 444 53 455 c 0,14,15
 53 471 53 471 63 481 c 0,16,17
 70 488 70 488 71.5 494 c 128,-1,18
 73 500 73 500 73 522 c 128,-1,19
 73 544 73 544 74.5 550 c 128,-1,20
 76 556 76 556 84 562 c 0,21,22
 94 571 94 571 94 593 c 128,-1,23
 94 615 94 615 104 624 c 0,24,25
 114 632 114 632 114 641 c 0,26,27
 114 647 114 647 116.5 653 c 128,-1,28
 119 659 119 659 123.5 666.5 c 128,-1,29
 128 674 128 674 129 677 c 0,30,31
 135 688 135 688 140 691 c 0,32,33
 146 694 146 694 186 694 c 0,34,35
 228 694 228 694 234 691 c 0,36,37
 253 682 253 682 253 630 c 0,38,39
 253 576 253 576 242 576 c 0,40,41
 239 576 239 576 224 561 c 0,42,43
 209 545 209 545 209 534 c 128,-1,44
 209 523 209 523 199 513 c 0,45,46
 189 504 189 504 189 492 c 0,0,1
EndSplineSet
EndChar

StartChar: AE
Encoding: 198 198 70
Width: 1013
GlyphClass: 2
Flags: W
LayerCount: 2
Fore
SplineSet
76 417 m 0,0,1
 84 417 84 417 95 425.5 c 128,-1,2
 106 434 106 434 113 434 c 0,3,4
 123 434 123 434 140.5 424 c 128,-1,5
 158 414 158 414 166 403 c 0,6,7
 168 400 168 400 174 392.5 c 128,-1,8
 180 385 180 385 183 382 c 0,9,10
 199 363 199 363 203 351.5 c 128,-1,11
 207 340 207 340 207 315 c 0,12,13
 207 297 207 297 204.5 287.5 c 128,-1,14
 202 278 202 278 197.5 270 c 128,-1,15
 193 262 193 262 190 253 c 0,16,17
 186 238 186 238 171 223 c 0,18,19
 160 211 160 211 155 209 c 128,-1,20
 150 207 150 207 135 207 c 128,-1,21
 120 207 120 207 116 208.5 c 128,-1,22
 112 210 112 210 103 220 c 128,-1,23
 94 230 94 230 89.5 232 c 128,-1,24
 85 234 85 234 72 234 c 2,25,-1
 54 234 l 1,26,-1
 54 319 l 2,27,28
 54 390 54 390 57 403.5 c 128,-1,29
 60 417 60 417 76 417 c 0,0,1
642 473 m 0,30,31
 640 488 640 488 636 488 c 0,32,33
 626 486 626 486 605 454 c 0,34,35
 593 434 593 434 593 421 c 0,36,37
 593 400 593 400 615 400 c 0,38,39
 627 400 627 400 635 417.5 c 128,-1,40
 643 435 643 435 643 458 c 0,41,42
 643 468 643 468 642 473 c 0,30,31
703 673 m 0,43,44
 707 679 707 679 713 680 c 128,-1,45
 719 681 719 681 747 681 c 0,46,47
 785 681 785 681 789 675 c 0,48,49
 794 668 794 668 825 668 c 0,50,51
 858 668 858 668 861 675 c 0,52,53
 864 681 864 681 889 681 c 2,54,-1
 913 681 l 1,55,-1
 927 664 l 2,56,57
 957 627 957 627 957 614 c 0,58,59
 957 606 957 606 951 597 c 0,60,61
 946 589 946 589 946 579 c 0,62,63
 946 572 946 572 933 554.5 c 128,-1,64
 920 537 920 537 910 532 c 0,65,66
 904 530 904 530 901 530 c 0,67,68
 879 530 879 530 857 558 c 0,69,70
 834 587 834 587 827.5 592 c 128,-1,71
 821 597 821 597 809 597 c 0,72,73
 794 597 794 597 789 589 c 0,74,75
 784 582 784 582 772 578 c 0,76,77
 764 576 764 576 761.5 572.5 c 128,-1,78
 759 569 759 569 757 558 c 0,79,80
 753 542 753 542 746 527 c 0,81,82
 741 518 741 518 735 490 c 128,-1,83
 729 462 729 462 728 458 c 0,84,85
 725 450 725 450 725 446 c 0,86,87
 725 436 725 436 759 436 c 0,88,89
 788 436 788 436 801 443 c 128,-1,90
 814 450 814 450 827 450 c 0,91,92
 838 450 838 450 844 444 c 0,93,94
 851 437 851 437 851 403 c 0,95,96
 851 370 851 370 844 357 c 0,97,98
 837 346 837 346 837 334 c 0,99,100
 837 305 837 305 818 298 c 0,101,102
 809 295 809 295 804 295 c 0,103,104
 794 295 794 295 778 311 c 2,105,-1
 763 327 l 1,106,-1
 734 328 l 1,107,-1
 721 328 l 2,108,109
 705 328 705 328 700 323.5 c 128,-1,110
 695 319 695 319 695 304 c 128,-1,111
 695 289 695 289 688 277 c 0,112,113
 681 264 681 264 681 224 c 0,114,115
 681 172 681 172 695 157 c 0,116,117
 703 149 703 149 723 149 c 0,118,119
 740 149 740 149 754 155 c 128,-1,120
 768 161 768 161 775 163 c 0,121,122
 792 166 792 166 805 185 c 0,123,124
 830 220 830 220 837 227.5 c 128,-1,125
 844 235 844 235 854 236 c 0,126,127
 856 236 856 236 858.5 236.5 c 128,-1,128
 861 237 861 237 862 237 c 0,129,130
 883 237 883 237 888 219 c 0,131,132
 891 206 891 206 891 189 c 0,133,134
 891 167 891 167 885 146 c 0,135,136
 878 120 878 120 854 89 c 0,137,138
 846 79 846 79 842 77 c 128,-1,139
 838 75 838 75 826 75 c 0,140,141
 810 75 810 75 799 65 c 0,142,143
 789 56 789 56 768 56 c 0,144,145
 745 56 745 56 735 64 c 0,146,147
 726 70 726 70 713 71.5 c 128,-1,148
 700 73 700 73 641 74 c 2,149,-1
 560 75 l 1,150,-1
 551 66 l 2,151,152
 540 55 540 55 524 55 c 0,153,154
 512 55 512 55 504 62 c 0,155,156
 495 71 495 71 489 71 c 128,-1,157
 483 71 483 71 471 85 c 0,158,159
 457 101 457 101 457 113 c 0,160,161
 457 124 457 124 468 137 c 0,162,163
 478 149 478 149 486 149 c 0,164,165
 495 149 495 149 509 156 c 128,-1,166
 523 163 523 163 538 163 c 0,167,168
 568 163 568 163 578 201 c 0,169,170
 589 243 589 243 607 278 c 0,171,172
 613 290 613 290 613 301 c 0,173,174
 613 310 613 310 610 317 c 0,175,176
 606 327 606 327 598 327 c 0,177,178
 593 327 593 327 583 322 c 0,179,180
 572 316 572 316 538 313 c 2,181,-1
 507 310 l 1,182,-1
 496 293 l 2,183,184
 487 280 487 280 473 272 c 128,-1,185
 459 264 459 264 450 251 c 0,186,187
 435 230 435 230 427 227 c 0,188,189
 407 219 407 219 376 172 c 0,190,191
 358 145 358 145 348 140 c 0,192,193
 336 134 336 134 325 123 c 0,194,195
 294 92 294 92 272 89 c 0,196,197
 259 88 259 88 253 79.5 c 128,-1,198
 247 71 247 71 239 68 c 0,199,200
 228 64 228 64 220 56 c 0,201,202
 215 51 215 51 181 51 c 0,203,204
 146 51 146 51 135 59 c 0,205,206
 122 68 122 68 113 68 c 0,207,208
 101 68 101 68 95 78 c 0,209,210
 88 88 88 88 77 88 c 0,211,212
 61 88 61 88 57.5 94 c 128,-1,213
 54 100 54 100 54 123 c 0,214,215
 54 163 54 163 69 163 c 0,216,217
 74 163 74 163 91 155 c 128,-1,218
 108 147 108 147 113 142 c 0,219,220
 120 135 120 135 136 135 c 0,221,222
 150 135 150 135 161 142 c 0,223,224
 170 149 170 149 183 149 c 0,225,226
 206 149 206 149 219 165 c 0,227,228
 226 174 226 174 248 177 c 0,229,230
 263 179 263 179 269.5 182.5 c 128,-1,231
 276 186 276 186 288 198 c 0,232,233
 294 204 294 204 305 215.5 c 128,-1,234
 316 227 316 227 319 230 c 0,235,236
 338 249 338 249 358 276 c 0,237,238
 385 311 385 311 394 314 c 0,239,240
 406 318 406 318 456 385 c 0,241,242
 467 400 467 400 504 446.5 c 128,-1,243
 541 493 541 493 552 508 c 0,244,245
 573 535 573 535 587 546 c 0,246,247
 605 562 605 562 630 598 c 0,248,249
 640 612 640 612 642 623 c 0,250,251
 643 630 643 630 647.5 635.5 c 128,-1,252
 652 641 652 641 663 649 c 2,253,-1
 674 657 l 2,254,255
 683 664 683 664 691 664 c 0,256,257
 698 664 698 664 703 673 c 0,43,44
EndSplineSet
EndChar

StartChar: agrave
Encoding: 224 224 71
Width: 515
GlyphClass: 2
Flags: W
LayerCount: 2
Fore
SplineSet
277 57 m 2,0,-1
 276 73 l 1,1,2
 270 74 270 74 257.5 74 c 128,-1,3
 245 74 245 74 239 75 c 1,4,-1
 222 56 l 2,5,6
 205 36 205 36 205 27 c 0,7,8
 205 20 205 20 208 19.5 c 128,-1,9
 211 19 211 19 232 18 c 2,10,-1
 259 17 l 1,11,-1
 269 29 l 2,12,13
 278 40 278 40 277 57 c 2,0,-1
117 95 m 0,14,15
 122 95 122 95 135 103.5 c 128,-1,16
 148 112 148 112 152 112 c 0,17,18
 160 112 160 112 170 120 c 0,19,20
 180 129 180 129 194 129 c 0,21,22
 206 129 206 129 216 135.5 c 128,-1,23
 226 142 226 142 238 143 c 0,24,25
 256 144 256 144 267 155 c 2,26,-1
 278 165 l 1,27,-1
 278 245 l 1,28,-1
 267 257 l 2,29,30
 259 265 259 265 253.5 266.5 c 128,-1,31
 248 268 248 268 223 268 c 0,32,33
 197 268 197 268 191.5 265.5 c 128,-1,34
 186 263 186 263 186 252 c 0,35,36
 186 245 186 245 174 233 c 2,37,-1
 162 220 l 1,38,-1
 120 220 l 2,39,40
 79 220 79 220 75 224 c 128,-1,41
 71 228 71 228 71 237 c 0,42,43
 71 249 71 249 79 257 c 0,44,45
 88 264 88 264 88 273 c 128,-1,46
 88 282 88 282 95 287 c 0,47,48
 101 292 101 292 101 309 c 0,49,50
 101 325 101 325 114 339 c 0,51,52
 126 353 126 353 134 353 c 0,53,54
 144 353 144 353 166 376 c 0,55,56
 188 398 188 398 196 401 c 0,57,58
 197 401 197 401 199.5 401.5 c 128,-1,59
 202 402 202 402 206.5 402 c 128,-1,60
 211 402 211 402 216 402 c 128,-1,61
 221 402 221 402 234.5 401.5 c 128,-1,62
 248 401 248 401 256 401 c 0,63,64
 310 400 310 400 315 394 c 0,65,66
 323 386 323 386 331 385 c 0,67,68
 342 383 342 383 377.5 347.5 c 128,-1,69
 413 312 413 312 413 303 c 128,-1,70
 413 294 413 294 420 289 c 0,71,72
 427 282 427 282 427 264 c 0,73,74
 427 245 427 245 420 238 c 0,75,76
 412 232 412 232 410.5 180.5 c 128,-1,77
 409 129 409 129 403 123 c 0,78,79
 396 116 396 116 396 86 c 2,80,-1
 396 54 l 1,81,-1
 420 30 l 2,82,83
 444 6 444 6 444 -1 c 128,-1,84
 444 -8 444 -8 452 -18 c 0,85,86
 461 -29 461 -29 461 -43 c 0,87,88
 461 -54 461 -54 458 -59.5 c 128,-1,89
 455 -65 455 -65 440 -80 c 2,90,-1
 419 -102 l 1,91,-1
 369 -102 l 2,92,93
 334 -102 334 -102 326 -100.5 c 128,-1,94
 318 -99 318 -99 312 -93 c 0,95,96
 305 -85 305 -85 273 -85 c 0,97,98
 242 -85 242 -85 233 -93 c 0,99,100
 225 -99 225 -99 216 -100.5 c 128,-1,101
 207 -102 207 -102 168 -102 c 2,102,-1
 112 -102 l 1,103,-1
 54 -44 l 1,104,-1
 54 -18 l 2,105,106
 54 6 54 6 62 14 c 0,107,108
 71 22 71 22 71 39 c 0,109,110
 71 51 71 51 74 56.5 c 128,-1,111
 77 62 77 62 91 76 c 0,112,113
 110 95 110 95 117 95 c 0,14,15
116 686 m 2,114,115
 118 688 118 688 121.5 691.5 c 128,-1,116
 125 695 125 695 125.5 696 c 128,-1,117
 126 697 126 697 129 699 c 128,-1,118
 132 701 132 701 132.5 701.5 c 128,-1,119
 133 702 133 702 135.5 703 c 128,-1,120
 138 704 138 704 139.5 704 c 128,-1,121
 141 704 141 704 144.5 704.5 c 128,-1,122
 148 705 148 705 151 705 c 128,-1,123
 154 705 154 705 159 705 c 2,124,-1
 177 705 l 1,125,-1
 213 705 l 1,126,127
 230 689 230 689 264 655 c 1,128,-1
 264 635 l 2,129,130
 264 615 264 615 274 606 c 0,131,132
 285 595 285 595 285 585 c 0,133,134
 285 574 285 574 293 567 c 0,135,136
 302 561 302 561 304 547 c 0,137,138
 306 535 306 535 324 517 c 2,139,-1
 342 499 l 1,140,-1
 342 467 l 2,141,142
 342 435 342 435 335.5 429.5 c 128,-1,143
 329 424 329 424 291 424 c 2,144,-1
 251 424 l 1,145,-1
 236 438 l 2,146,147
 220 454 220 454 220 462 c 0,148,149
 220 472 220 472 206 487 c 128,-1,150
 192 502 192 502 182 502 c 0,151,152
 171 502 171 502 156.5 516.5 c 128,-1,153
 142 531 142 531 142 541 c 0,154,155
 142 552 142 552 132 561 c 0,156,157
 122 571 122 571 122 582 c 0,158,159
 122 592 122 592 113 600 c 0,160,161
 106 605 106 605 104.5 611 c 128,-1,162
 103 617 103 617 102 640 c 2,163,-1
 101 672 l 1,164,-1
 116 686 l 2,114,115
EndSplineSet
EndChar

StartChar: aacute
Encoding: 225 225 72
Width: 528
GlyphClass: 2
Flags: W
LayerCount: 2
Fore
SplineSet
286 52 m 0,0,1
 286 66 286 66 281 70.5 c 128,-1,2
 276 75 276 75 262 75 c 0,3,4
 249 75 249 75 229 55 c 0,5,6
 211 37 211 37 211 28 c 0,7,8
 211 18 211 18 214.5 16.5 c 128,-1,9
 218 15 218 15 238 14 c 2,10,-1
 252 14 l 2,11,12
 265 14 265 14 275 24 c 0,13,14
 286 35 286 35 286 52 c 0,0,1
122 95 m 0,15,16
 127 95 127 95 139.5 103.5 c 128,-1,17
 152 112 152 112 157 112 c 0,18,19
 166 112 166 112 171 118 c 0,20,21
 178 125 178 125 195 126 c 0,22,23
 208 127 208 127 220 134.5 c 128,-1,24
 232 142 232 142 245 142 c 0,25,26
 261 142 261 142 275 156 c 2,27,-1
 289 169 l 1,28,-1
 288 210 l 1,29,-1
 286 251 l 1,30,-1
 275 262 l 2,31,32
 267 270 267 270 261.5 271.5 c 128,-1,33
 256 273 256 273 237 274 c 2,34,-1
 223 274 l 2,35,36
 207 274 207 274 200.5 270.5 c 128,-1,37
 194 267 194 267 192 256 c 0,38,39
 190 244 190 244 184 242 c 0,40,41
 180 241 180 241 174 230 c 2,42,-1
 169 220 l 1,43,-1
 123 220 l 2,44,45
 78 220 78 220 74 227 c 0,46,47
 71 233 71 233 71 240 c 0,48,49
 71 251 71 251 79 260 c 0,50,51
 88 271 88 271 88 277 c 0,52,53
 88 285 88 285 96 295 c 0,54,55
 105 307 105 307 105 320 c 128,-1,56
 105 333 105 333 115.5 346 c 128,-1,57
 126 359 126 359 138 361 c 0,58,59
 151 365 151 365 172 387 c 2,60,-1
 195 410 l 1,61,-1
 254 410 l 2,62,63
 298 410 298 410 307 409 c 128,-1,64
 316 408 316 408 322 402 c 0,65,66
 329 393 329 393 338 393 c 128,-1,67
 347 393 347 393 386 355 c 0,68,69
 423 318 423 318 423 311 c 0,70,71
 423 305 423 305 432 294 c 0,72,73
 441 284 441 284 441 268 c 0,74,75
 441 251 441 251 432 242 c 0,76,77
 426 235 426 235 424.5 226.5 c 128,-1,78
 423 218 423 218 423 183 c 0,79,80
 423 146 423 146 422 138.5 c 128,-1,81
 421 131 421 131 415 124 c 0,82,83
 407 116 407 116 407 84 c 2,84,-1
 407 53 l 1,85,-1
 432 27 l 2,86,87
 457 2 457 2 457 -5 c 128,-1,88
 457 -12 457 -12 466 -19 c 0,89,90
 474 -26 474 -26 474 -44 c 0,91,92
 474 -56 474 -56 471 -61.5 c 128,-1,93
 468 -67 468 -67 453 -82 c 2,94,-1
 432 -103 l 1,95,-1
 382 -104 l 1,96,-1
 353 -104 l 2,97,98
 331 -104 331 -104 323 -97 c 0,99,100
 312 -88 312 -88 278 -88 c 0,101,102
 245 -88 245 -88 240 -96 c 0,103,104
 236 -101 236 -101 227 -102 c 128,-1,105
 218 -103 218 -103 173 -103 c 2,106,-1
 112 -103 l 1,107,108
 92 -84 92 -84 54 -44 c 1,109,-1
 54 -20 l 2,110,111
 54 4 54 4 62 11 c 0,112,113
 71 19 71 19 71 36 c 0,114,115
 71 49 71 49 74 54 c 128,-1,116
 77 59 77 59 93 74 c 0,117,118
 114 95 114 95 122 95 c 0,15,16
359 551 m 0,119,120
 359 545 359 545 349 530 c 128,-1,121
 339 515 339 515 339 508 c 0,122,123
 339 499 339 499 330 493 c 0,124,125
 322 487 322 487 320 475 c 0,126,127
 319 464 319 464 316 460 c 128,-1,128
 313 456 313 456 300 445 c 128,-1,129
 287 434 287 434 266 434 c 128,-1,130
 245 434 245 434 230 446 c 0,131,132
 210 463 210 463 210 475 c 0,133,134
 210 486 210 486 220 496 c 0,135,136
 227 504 227 504 228.5 510 c 128,-1,137
 230 516 230 516 230 538 c 128,-1,138
 230 560 230 560 231.5 565.5 c 128,-1,139
 233 571 233 571 240 578 c 0,140,141
 251 589 251 589 251 608 c 0,142,143
 251 629 251 629 259 637 c 0,144,145
 268 644 268 644 270 657 c 0,146,147
 272 669 272 669 281 684.5 c 128,-1,148
 290 700 290 700 296 702 c 0,149,150
 304 704 304 704 322 704 c 0,151,152
 380 704 380 704 388 698 c 0,153,154
 402 685 402 685 402 658 c 0,155,156
 402 655 402 655 401.5 648.5 c 128,-1,157
 401 642 401 642 401 638 c 2,158,-1
 399 602 l 1,159,-1
 379 581 l 2,160,161
 359 560 359 560 359 551 c 0,119,120
EndSplineSet
EndChar

StartChar: atilde
Encoding: 227 227 73
Width: 596
GlyphClass: 2
Flags: W
LayerCount: 2
Fore
SplineSet
313 157 m 0,0,1
 310 163 310 163 291 163 c 2,2,-1
 280 163 l 2,3,4
 257 163 257 163 244 148 c 0,5,6
 236 139 236 139 234.5 134.5 c 128,-1,7
 233 130 233 130 233 113 c 128,-1,8
 233 96 233 96 234.5 91.5 c 128,-1,9
 236 87 236 87 245 78 c 2,10,-1
 258 67 l 1,11,-1
 283 67 l 2,12,13
 309 67 309 67 312.5 70.5 c 128,-1,14
 316 74 316 74 316 119 c 0,15,16
 316 154 316 154 313 157 c 0,0,1
218 429 m 0,17,18
 227 429 227 429 237 445 c 1,19,-1
 346 445 l 1,20,21
 354 429 354 429 366 429 c 0,22,23
 377 429 377 429 382 422 c 0,24,25
 387 413 387 413 398 412 c 0,26,27
 409 410 409 410 420 399.5 c 128,-1,28
 431 389 431 389 433 378 c 0,29,30
 435 365 435 365 442 360 c 2,31,-1
 450 354 l 1,32,-1
 450 89 l 1,33,34
 473 66 473 66 518 21 c 1,35,-1
 517 4 l 2,36,37
 516 -7 516 -7 513 -12.5 c 128,-1,38
 510 -18 510 -18 495 -32 c 2,39,-1
 475 -53 l 1,40,-1
 448 -53 l 2,41,42
 420 -53 420 -53 413 -45 c 0,43,44
 407 -38 407 -38 382 -38 c 0,45,46
 365 -38 365 -38 359.5 -36.5 c 128,-1,47
 354 -35 354 -35 348 -28 c 0,48,49
 339 -19 339 -19 317 -19 c 128,-1,50
 295 -19 295 -19 285 -28 c 0,51,52
 272 -38 272 -38 258 -38 c 0,53,54
 240 -38 240 -38 234 -45 c 0,55,56
 227 -53 227 -53 208 -53 c 0,57,58
 190 -53 190 -53 182 -45 c 0,59,60
 175 -38 175 -38 166 -38 c 0,61,62
 160 -38 160 -38 151 -30.5 c 128,-1,63
 142 -23 142 -23 135 -23 c 0,64,65
 125 -23 125 -23 112 -10 c 128,-1,66
 99 3 99 3 99 13 c 0,67,68
 99 22 99 22 90 31 c 2,69,-1
 80 39 l 1,70,-1
 81 74 l 2,71,72
 82 98 82 98 83.5 104.5 c 128,-1,73
 85 111 85 111 91 116 c 0,74,75
 99 123 99 123 99 132 c 0,76,77
 99 140 99 140 111 151.5 c 128,-1,78
 123 163 123 163 132 165 c 0,79,80
 142 166 142 166 151 175 c 0,81,82
 160 182 160 182 194 182 c 0,83,84
 217 182 217 182 223 183 c 128,-1,85
 229 184 229 184 233 190 c 0,86,87
 240 197 240 197 258 197 c 0,88,89
 274 197 274 197 282 205 c 0,90,91
 289 212 289 212 298 212 c 0,92,93
 311 212 311 212 313.5 221 c 128,-1,94
 316 230 316 230 316 269 c 2,95,-1
 316 317 l 1,96,97
 312 321 312 321 303 330 c 128,-1,98
 294 339 294 339 291 344 c 1,99,-1
 260 344 l 2,100,101
 234 344 234 344 226 341 c 128,-1,102
 218 338 218 338 218 328 c 0,103,104
 218 319 218 319 196 298 c 2,105,-1
 176 277 l 1,106,-1
 142 277 l 1,107,-1
 138 277 l 2,108,109
 109 277 109 277 104 283 c 128,-1,110
 99 289 99 289 99 320 c 2,111,-1
 99 354 l 1,112,-1
 120 375 l 2,113,114
 141 396 141 396 149 396 c 0,115,116
 158 396 158 396 165 403 c 0,117,118
 171 411 171 411 179 411 c 0,119,120
 189 411 189 411 198 420 c 0,121,122
 208 429 208 429 218 429 c 0,17,18
397 637 m 0,123,124
 408 646 408 646 432 646 c 0,125,126
 450 646 450 646 455 644.5 c 128,-1,127
 460 643 460 643 470 634 c 2,128,-1
 484 621 l 1,129,-1
 484 566 l 1,130,131
 459 541 459 541 409 492 c 1,132,133
 381 492 381 492 324.5 491 c 128,-1,134
 268 490 268 490 240 490 c 1,135,-1
 233 482 l 2,136,137
 228 477 228 477 221 476 c 128,-1,138
 214 475 214 475 183 475 c 2,139,-1
 140 475 l 1,140,-1
 127 488 l 2,141,142
 118 497 118 497 116 501.5 c 128,-1,143
 114 506 114 506 114 518 c 0,144,145
 114 536 114 536 122 544 c 0,146,147
 130 550 130 550 132 562 c 0,148,149
 132 571 132 571 154 592 c 0,150,151
 169 607 169 607 174 609.5 c 128,-1,152
 179 612 179 612 191 612 c 0,153,154
 208 612 208 612 215 620 c 0,155,156
 220 625 220 625 225 626 c 128,-1,157
 230 627 230 627 250.5 627 c 128,-1,158
 271 627 271 627 275.5 626 c 128,-1,159
 280 625 280 625 283.5 620 c 128,-1,160
 287 615 287 615 293.5 613.5 c 128,-1,161
 300 612 300 612 324 612 c 128,-1,162
 348 612 348 612 354 613.5 c 128,-1,163
 360 615 360 615 364 620 c 0,164,165
 368 627 368 627 377 627 c 0,166,167
 385 627 385 627 397 637 c 0,123,124
EndSplineSet
EndChar

StartChar: ae
Encoding: 230 230 74
Width: 730
GlyphClass: 2
Flags: W
LayerCount: 2
Fore
SplineSet
301 170 m 0,0,1
 300 175 300 175 280 175 c 0,2,3
 263 175 263 175 258 172.5 c 128,-1,4
 253 170 253 170 253 161 c 0,5,6
 253 153 253 153 245 144 c 256,7,8
 237 135 237 135 237 125 c 0,9,10
 237 114 237 114 241 111.5 c 128,-1,11
 245 109 245 109 267 107 c 0,12,13
 270 107 270 107 275 106.5 c 128,-1,14
 280 106 280 106 282 106 c 0,15,16
 297 106 297 106 300.5 112 c 128,-1,17
 304 118 304 118 304 139 c 0,18,19
 304 163 304 163 301 170 c 0,0,1
494 373 m 0,20,21
 490 373 490 373 482 366.5 c 128,-1,22
 474 360 474 360 469 360 c 0,23,24
 460 360 460 360 457 355 c 128,-1,25
 454 350 454 350 454 334 c 0,26,27
 454 317 454 317 458 312.5 c 128,-1,28
 462 308 462 308 478 308 c 0,29,30
 492 308 492 308 496 312.5 c 128,-1,31
 500 317 500 317 500 334 c 2,32,-1
 500 344 l 2,33,34
 500 372 500 372 494 373 c 0,20,21
666 158 m 1,35,36
 671 144 671 144 671 121 c 0,37,38
 671 104 671 104 670 100 c 128,-1,39
 669 96 669 96 663 92 c 0,40,41
 655 85 655 85 655 83 c 0,42,43
 655 78 655 78 648 74 c 0,44,45
 640 69 640 69 639 57 c 0,46,47
 637 43 637 43 618 25 c 0,48,49
 593 1 593 1 584.5 -5.5 c 128,-1,50
 576 -12 576 -12 570 -12 c 0,51,52
 561 -12 561 -12 553 -21 c 2,53,-1
 544 -29 l 1,54,55
 525 -29 525 -29 485.5 -29 c 128,-1,56
 446 -29 446 -29 427 -28 c 1,57,-1
 420 -20 l 2,58,59
 416 -14 416 -14 402 -9 c 128,-1,60
 388 -4 388 -4 384 0 c 0,61,62
 377 7 377 7 352 7 c 0,63,64
 333 7 333 7 329 6 c 128,-1,65
 325 5 325 5 321 -1 c 0,66,67
 314 -10 314 -10 305 -10 c 0,68,69
 294 -10 294 -10 288 -18 c 2,70,-1
 280 -28 l 1,71,72
 269 -29 269 -29 246.5 -29 c 128,-1,73
 224 -29 224 -29 212 -29 c 1,74,-1
 203 -21 l 2,75,76
 193 -13 193 -13 184 -12 c 256,77,78
 175 -11 175 -11 154 10 c 0,79,80
 134 31 134 31 134 39 c 0,81,82
 134 48 134 48 126 56 c 2,83,-1
 118 63 l 1,84,-1
 118 167 l 1,85,-1
 138 187 l 2,86,87
 157 206 157 206 169 209 c 0,88,89
 176 209 176 209 184.5 217 c 128,-1,90
 193 225 193 225 200 225 c 0,91,92
 209 225 209 225 217 233 c 0,93,94
 223 239 223 239 227.5 240 c 128,-1,95
 232 241 232 241 251 241 c 2,96,-1
 277 241 l 1,97,-1
 290 252 l 1,98,-1
 302 265 l 1,99,-1
 302 300 l 2,100,101
 302 336 302 336 299 339.5 c 128,-1,102
 296 343 296 343 258 343 c 0,103,104
 230 343 230 343 225 340 c 0,105,106
 219 336 219 336 219 328 c 0,107,108
 219 318 219 318 207 305 c 0,109,110
 198 296 198 296 193.5 294 c 128,-1,111
 189 292 189 292 177 291 c 0,112,113
 175 291 175 291 170 291 c 128,-1,114
 165 291 165 291 163 291 c 0,115,116
 144 291 144 291 130 304 c 2,117,-1
 118 316 l 1,118,-1
 118 370 l 1,119,-1
 172 424 l 2,120,121
 208 460 208 460 218 468.5 c 128,-1,122
 228 477 228 477 235 477 c 0,123,124
 244 477 244 477 250 486 c 2,125,-1
 257 494 l 1,126,-1
 365 494 l 1,127,-1
 372 486 l 2,128,129
 377 478 377 478 386 469 c 2,130,-1
 393 461 l 1,131,-1
 476 461 l 2,132,133
 479 464 479 464 483.5 469 c 128,-1,134
 488 474 488 474 491 477 c 2,135,-1
 578 477 l 1,136,-1
 656 400 l 1,137,-1
 653 357 l 1,138,-1
 652 314 l 1,139,-1
 640 304 l 2,140,141
 619 283 619 283 612.5 278.5 c 128,-1,142
 606 274 606 274 599 274 c 0,143,144
 590 274 590 274 585 267 c 0,145,146
 582 262 582 262 578 261.5 c 128,-1,147
 574 261 574 261 556 261 c 0,148,149
 532 261 532 261 522 252 c 0,150,151
 513 244 513 244 495 243 c 2,152,-1
 477 242 l 1,153,-1
 437 202 l 1,154,-1
 437 148 l 1,155,156
 457 129 457 129 477 109 c 1,157,-1
 547 109 l 1,158,-1
 596 158 l 1,159,-1
 666 158 l 1,35,36
EndSplineSet
EndChar

StartChar: egrave
Encoding: 232 232 75
Width: 547
GlyphClass: 2
Flags: W
LayerCount: 2
Fore
SplineSet
268 352 m 2,0,-1
 262 352 l 2,1,2
 251 352 251 352 240 341 c 0,3,4
 229 328 229 328 229 321 c 0,5,6
 229 308 229 308 251 308 c 0,7,8
 264 308 264 308 275 318 c 128,-1,9
 286 328 286 328 286 339 c 0,10,11
 286 347 286 347 283.5 349 c 128,-1,12
 281 351 281 351 268 352 c 2,0,-1
179 403 m 0,13,14
 184 403 184 403 193 410 c 128,-1,15
 202 417 202 417 207 417 c 0,16,17
 216 417 216 417 224 425 c 0,18,19
 234 434 234 434 258 434 c 0,20,21
 281 434 281 434 291 425 c 0,22,23
 298 419 298 419 304 418 c 128,-1,24
 310 417 310 417 338 417 c 2,25,-1
 377 417 l 1,26,-1
 392 402 l 2,27,28
 406 386 406 386 415 386 c 128,-1,29
 424 386 424 386 450 360 c 2,30,-1
 476 334 l 1,31,-1
 476 265 l 1,32,33
 469 258 469 258 455.5 245.5 c 128,-1,34
 442 233 442 233 436 227 c 1,35,-1
 399 227 l 2,36,37
 362 227 362 227 352 236 c 0,38,39
 343 244 343 244 304 244 c 0,40,41
 277 244 277 244 270.5 243 c 128,-1,42
 264 242 264 242 258 236 c 0,43,44
 249 227 249 227 217 227 c 2,45,-1
 211 227 l 2,46,47
 189 227 189 227 185 223 c 128,-1,48
 181 219 181 219 181 197 c 2,49,-1
 181 178 l 1,50,51
 239 120 239 120 269 91 c 1,52,-1
 322 92 l 2,53,54
 359 93 359 93 368 94.5 c 128,-1,55
 377 96 377 96 381 101 c 0,56,57
 386 108 386 108 394 108 c 128,-1,58
 402 108 402 108 413 117 c 0,59,60
 422 125 422 125 445 125 c 0,61,62
 461 125 461 125 466 123.5 c 128,-1,63
 471 122 471 122 480 113 c 0,64,65
 493 101 493 101 493 83 c 128,-1,66
 493 65 493 65 485 58 c 0,67,68
 476 51 476 51 476 41 c 0,69,70
 476 33 476 33 434 -9 c 128,-1,71
 392 -51 392 -51 384 -51 c 128,-1,72
 376 -51 376 -51 369 -58 c 128,-1,73
 362 -65 362 -65 328 -65 c 2,74,-1
 296 -65 l 2,75,76
 231 -64 231 -64 224 -57 c 0,77,78
 218 -51 218 -51 203 -51 c 0,79,80
 190 -51 190 -51 179 -42 c 0,81,82
 169 -34 169 -34 162 -34 c 128,-1,83
 155 -34 155 -34 136 -14.5 c 128,-1,84
 117 5 117 5 117 12 c 0,85,86
 117 18 117 18 108.5 28 c 128,-1,87
 100 38 100 38 100 44 c 128,-1,88
 100 50 100 50 93.5 58.5 c 128,-1,89
 87 67 87 67 87 73 c 0,90,91
 87 77 87 77 78.5 89 c 128,-1,92
 70 101 70 101 70 106 c 0,93,94
 70 115 70 115 63 120 c 0,95,96
 56 126 56 126 56 161 c 128,-1,97
 56 196 56 196 63 202 c 128,-1,98
 70 208 70 208 70 246 c 0,99,100
 70 285 70 285 77 292 c 128,-1,101
 84 299 84 299 86 309 c 128,-1,102
 88 319 88 319 129.5 361 c 128,-1,103
 171 403 171 403 179 403 c 0,13,14
178 568 m 0,104,105
 178 573 178 573 169.5 585 c 128,-1,106
 161 597 161 597 161 601 c 0,107,108
 161 610 161 610 154 615 c 0,109,110
 148 620 148 620 148 648 c 2,111,-1
 148 657 l 2,112,113
 148 670 148 670 150 674.5 c 128,-1,114
 152 679 152 679 160 687 c 0,115,116
 169 695 169 695 174.5 696.5 c 128,-1,117
 180 698 180 698 204 698 c 2,118,-1
 235 698 l 1,119,-1
 256 678 l 2,120,121
 271 663 271 663 273.5 658 c 128,-1,122
 276 653 276 653 276 641 c 0,123,124
 276 628 276 628 283.5 619.5 c 128,-1,125
 291 611 291 611 292 603 c 0,126,127
 294 591 294 591 300 587 c 0,128,129
 307 584 307 584 307 574 c 128,-1,130
 307 564 307 564 322 549 c 2,131,-1
 337 534 l 1,132,-1
 337 508 l 2,133,134
 337 484 337 484 331 479.5 c 128,-1,135
 325 475 325 475 294 475 c 2,136,-1
 263 475 l 1,137,-1
 251 488 l 2,138,139
 239 500 239 500 239 509 c 0,140,141
 239 516 239 516 229 526 c 128,-1,142
 219 536 219 536 212 536 c 128,-1,143
 205 536 205 536 191.5 548.5 c 128,-1,144
 178 561 178 561 178 568 c 0,104,105
EndSplineSet
EndChar

